<svg width="2110" height="1584" xmlns="http://www.w3.org/2000/svg" xmlns:xlink="http://www.w3.org/1999/xlink" overflow="hidden"><defs><clipPath id="clip0"><rect x="1145" y="403" width="2110" height="1584"/></clipPath><clipPath id="clip1"><rect x="1408" y="593" width="1636" height="1220"/></clipPath><clipPath id="clip2"><rect x="1408" y="593" width="1636" height="1220"/></clipPath><clipPath id="clip3"><rect x="1408" y="593" width="1636" height="1220"/></clipPath><clipPath id="clip4"><rect x="1408" y="593" width="1636" height="1220"/></clipPath><clipPath id="clip5"><rect x="1408" y="593" width="1636" height="1220"/></clipPath><clipPath id="clip6"><rect x="1408" y="593" width="1636" height="1220"/></clipPath><clipPath id="clip7"><rect x="1408" y="593" width="1636" height="1220"/></clipPath><clipPath id="clip8"><rect x="1408" y="593" width="1636" height="1220"/></clipPath></defs><g clip-path="url(#clip0)" transform="translate(-1145 -403)"><path d="M0 1582.28 2109.71 1582.28 2109.71 0 0 0Z" fill="#FFFFFF" transform="matrix(1.00014 0 0 1 1145 403.859)"/><path d="M263.714 1408.23 1898.74 1408.23 1898.74 189.874 263.714 189.874Z" fill="#FFFFFF" transform="matrix(1.00014 0 0 1 1145 403.859)"/><g clip-path="url(#clip1)"><path d="M338.033 1408.23 611.043 1408.23 611.043 684.952 338.033 684.952Z" fill="#1F77B4" fill-opacity="0.7" transform="matrix(1.00014 0 0 1 1145 403.859)"/></g><g clip-path="url(#clip2)"><path d="M944.721 1408.23 1217.73 1408.23 1217.73 561.353 944.721 561.353Z" fill="#1F77B4" fill-opacity="0.7" transform="matrix(1.00014 0 0 1 1145 403.859)"/></g><g clip-path="url(#clip3)"><path d="M1551.41 1408.23 1824.42 1408.23 1824.42 357.196 1551.41 357.196Z" fill="#1F77B4" fill-opacity="0.7" transform="matrix(1.00014 0 0 1 1145 403.859)"/></g><path d="M0 0 0 16.0243" stroke="#000000" stroke-width="3.66269" stroke-linejoin="round" fill="none" transform="matrix(1.00014 0 0 1 1619.6 1812.09)"/><path d="M55.7151 39.4125 55.7151 38.3338C54.6859 38.3338 53.852 38.1478 53.2134 37.7758 52.5749 37.41 51.9642 36.7249 51.3814 35.7205 50.997 35.0385 50.3863 33.4204 49.5493 30.866L38.5663-0.90208 37.4038-0.90208 28.4202 24.3004 19.5017-0.90208 18.4508-0.90208 6.74235 31.8239C5.86817 34.2667 5.31638 35.7112 5.08699 36.1576 4.6964 36.8892 4.16631 37.4348 3.49672 37.7944 2.83334 38.154 1.92816 38.3338 0.781183 38.3338L0.781183 39.4125 15.3726 39.4125 15.3726 38.3338 14.6751 38.3338C13.6521 38.3338 12.8678 38.1013 12.3222 37.6363 11.7828 37.1713 11.5132 36.6102 11.5132 35.953 11.5132 35.271 11.9378 33.7118 12.7872 31.2752L20.5433 9.151 27.0903 27.9552 25.9278 31.2752 24.9979 33.9164C24.5887 34.8835 24.133 35.736 23.6308 36.4738 23.3766 36.8396 23.0666 37.1496 22.7008 37.4038 22.2172 37.751 21.7305 38.0021 21.2407 38.1571 20.8749 38.2749 20.2953 38.3338 19.5017 38.3338L19.5017 39.4125 34.8463 39.4125 34.8463 38.3338 33.7955 38.3338C32.7105 38.3338 31.9169 38.1013 31.4147 37.6363 30.9125 37.1713 30.6614 36.542 30.6614 35.7484 30.6614 34.7564 31.0985 33.0329 31.9727 30.5777L39.5241 9.151 47.0198 30.866C47.8754 33.2654 48.3032 34.93 48.3032 35.86 48.3032 36.3064 48.1606 36.7218 47.8754 37.1062 47.5964 37.4968 47.243 37.7696 46.8152 37.9246 46.0836 38.1974 45.1257 38.3338 43.9415 38.3338L43.9415 39.4125 55.7151 39.4125Z" transform="matrix(1.00014 0 0 -1 1418.72 1885.47)"/><path d="M27.2856 7.58863 24.5329 0 1.28337 0 1.28337 1.07878C8.12182 7.31584 12.936 12.409 15.726 16.3583 18.5159 20.3139 19.9109 23.9284 19.9109 27.2019 19.9109 29.7005 19.1452 31.7526 17.6138 33.3584 16.0825 34.9703 14.2504 35.7763 12.1176 35.7763 10.1833 35.7763 8.44422 35.209 6.90045 34.0745 5.36288 32.9399 4.22521 31.2783 3.48742 29.0898L2.40865 29.0898C2.89844 32.6733 4.14461 35.4229 6.14717 37.3387 8.14972 39.2606 10.6545 40.2216 13.6614 40.2216 16.8543 40.2216 19.5203 39.1955 21.6592 37.1434 23.8044 35.0912 24.877 32.6702 24.877 29.8803 24.877 27.8839 24.412 25.8875 23.482 23.8912 22.0498 20.754 19.7249 17.4309 16.5071 13.9218 11.6836 8.65191 8.67051 5.47448 7.46774 4.3895L17.7533 4.3895C19.8489 4.3895 21.3182 4.467 22.1614 4.622 23.0046 4.777 23.7641 5.09009 24.4399 5.56128 25.1219 6.03867 25.7139 6.71445 26.2161 7.58863L27.2856 7.58863Z" transform="matrix(1.00014 0 0 -1 1474.91 1885.47)"/><path d="M42.2583 39.4125 42.2583 38.3338C40.8633 38.0796 39.8062 37.6332 39.0871 36.9946 38.0641 36.046 37.1527 34.5921 36.3529 32.633L22.6078-0.90208 21.5383-0.90208 6.77025 33.0701C6.01387 34.8184 5.48068 35.8848 5.17069 36.2692 4.6871 36.8706 4.09191 37.3387 3.38513 37.6735 2.67834 38.0145 1.72356 38.2346 0.520789 38.3338L0.520789 39.4125 16.628 39.4125 16.628 38.3338C14.8053 38.1602 13.6211 37.8502 13.0755 37.4038 12.5361 36.9574 12.2664 36.387 12.2664 35.6926 12.2664 34.7192 12.7128 33.2065 13.6056 31.1543L23.6308 8.05363 32.9306 30.866C33.842 33.1104 34.2977 34.6696 34.2977 35.5438 34.2977 36.108 34.0156 36.6443 33.4514 37.1527 32.8872 37.6673 31.9386 38.0331 30.6056 38.2501 30.5064 38.2687 30.3421 38.2966 30.1127 38.3338L30.1127 39.4125 42.2583 39.4125Z" transform="matrix(1.00014 0 0 -1 1504.67 1885.47)"/><path d="M15.5493 4.10121 15.5493 18.5996 1.07878 18.5996 1.07878 20.9803 15.5493 20.9803 15.5493 35.4229 17.8742 35.4229 17.8742 20.9803 32.4005 20.9803 32.4005 18.5996 17.8742 18.5996 17.8742 4.10121 15.5493 4.10121Z" transform="matrix(1.00014 0 0 -1 1547.66 1885.47)"/><path d="M24.3562 0 9.1231 33.1631 9.1231 6.82605C9.1231 4.4081 9.3866 2.89844 9.91358 2.29705 10.6266 1.48487 11.758 1.07878 13.308 1.07878L14.703 1.07878 14.703 0 0.985779 0 0.985779 1.07878 2.38075 1.07878C4.04851 1.07878 5.23269 1.58097 5.93327 2.58534 6.35486 3.20533 6.56566 4.6189 6.56566 6.82605L6.56566 32.5772C6.56566 34.3194 6.37346 35.5779 5.98907 36.3529 5.71628 36.9171 5.21719 37.3883 4.4918 37.7665 3.76642 38.1447 2.59774 38.3338 0.985779 38.3338L0.985779 39.4125 12.1455 39.4125 26.4486 8.57441 40.5099 39.4125 51.6697 39.4125 51.6697 38.3338 50.3026 38.3338C48.6224 38.3338 47.4321 37.8285 46.7315 36.8179 46.3037 36.1979 46.0898 34.7843 46.0898 32.5772L46.0898 6.82605C46.0898 4.4081 46.3626 2.89844 46.9082 2.29705 47.6212 1.48487 48.7526 1.07878 50.3026 1.07878L51.6697 1.07878 51.6697 0 34.93 0 34.93 1.07878 36.325 1.07878C38.0114 1.07878 39.1955 1.58097 39.8775 2.58534 40.2991 3.20533 40.5099 4.6189 40.5099 6.82605L40.5099 33.1631 25.3141 0 24.3562 0Z" transform="matrix(1.00014 0 0 -1 1581.23 1885.47)"/><path d="M25.1932 26.6253 25.1932 10.4902C25.1932 7.40884 25.2645 5.52408 25.407 4.8359 25.5558 4.14771 25.7883 3.66722 26.1045 3.39443 26.4269 3.12783 26.802 2.99453 27.2298 2.99453 27.8312 2.99453 28.5101 3.15883 29.2665 3.48742L29.6757 2.47375 21.7057-0.818382 20.4038-0.818382 20.4038 4.8266C18.116 2.34665 16.3707 0.784283 15.168 0.139497 13.9714-0.499089 12.7035-0.818382 11.3644-0.818382 9.87019-0.818382 8.57441-0.387492 7.47704 0.47429 6.38586 1.34227 5.62638 2.45205 5.19859 3.80362 4.777 5.16139 4.5662 7.08025 4.5662 9.56019L4.5662 21.4453C4.5662 22.7039 4.4298 23.575 4.15701 24.0586 3.88422 24.5484 3.48122 24.9235 2.94804 25.1839 2.41485 25.4442 1.45077 25.5651 0.0557988 25.5465L0.0557988 26.6253 9.3835 26.6253 9.3835 8.80691C9.3835 6.32696 9.81439 4.6995 10.6762 3.92451 11.5441 3.14953 12.5857 2.76204 13.8009 2.76204 14.6379 2.76204 15.5834 3.02243 16.6373 3.54322 17.6913 4.07021 18.9468 5.06839 20.4038 6.53776L20.4038 21.622C20.4038 23.1348 20.1279 24.1578 19.5761 24.691 19.0243 25.2242 17.8742 25.5093 16.1258 25.5465L16.1258 26.6253 25.1932 26.6253Z" transform="matrix(1.00014 0 0 -1 1634.16 1885.47)"/><path d="M11.011 41.3283 11.011 6.01697C11.011 4.34921 11.1319 3.24253 11.3737 2.69694 11.6216 2.15755 11.9967 1.74836 12.4989 1.46937 13.0011 1.19037 13.9404 1.05088 15.3168 1.05088L15.3168 0 2.26915 0 2.26915 1.05088C3.49052 1.05088 4.32131 1.17487 4.7615 1.42287 5.20789 1.67706 5.55818 2.09245 5.81237 2.66904 6.06657 3.25183 6.19367 4.36781 6.19367 6.01697L6.19367 30.1964C6.19367 33.1972 6.12547 35.0416 5.98907 35.7298 5.85267 36.418 5.63258 36.8861 5.32878 37.1341 5.03119 37.3883 4.6499 37.5154 4.18491 37.5154 3.68272 37.5154 3.04413 37.3604 2.26915 37.0504L1.77626 38.0734 9.70899 41.3283 11.011 41.3283Z" transform="matrix(1.00014 0 0 -1 1663.92 1885.47)"/><path d="M9.58809 35.3671 9.58809 26.6253 15.8097 26.6253 15.8097 24.5887 9.58809 24.5887 9.58809 7.32824C9.58809 5.59848 9.83609 4.4329 10.3321 3.83152 10.8281 3.23633 11.4636 2.93874 12.2385 2.93874 12.8771 2.93874 13.4971 3.13713 14.0985 3.53392 14.6999 3.93071 15.1649 4.5166 15.4935 5.29158L16.628 5.29158C15.9461 3.39443 14.9851 1.96536 13.7451 1.00438 12.5051 0.0433991 11.228-0.437091 9.91358-0.437091 9.0208-0.437091 8.14662-0.189096 7.29104 0.306893 6.44166 0.802883 5.81237 1.50967 5.40318 2.42725 5.00019 3.34483 4.7987 4.7646 4.7987 6.68655L4.7987 24.5887 0.585887 24.5887 0.585887 25.5465C1.64606 25.9743 2.73414 26.6966 3.85012 27.7134 4.96609 28.7302 5.95807 29.9361 6.82605 31.331 7.27244 32.0688 7.89243 33.4142 8.68601 35.3671L9.58809 35.3671Z" transform="matrix(1.00014 0 0 -1 1680.46 1885.47)"/><path d="M8.63021 41.3283C9.44239 41.3283 10.1337 41.04 10.7041 40.4634 11.2807 39.893 11.5689 39.2017 11.5689 38.3896 11.5689 37.5774 11.2807 36.8799 10.7041 36.2971 10.1337 35.7143 9.44239 35.4229 8.63021 35.4229 7.81803 35.4229 7.12055 35.7143 6.53776 36.2971 5.95497 36.8799 5.66358 37.5774 5.66358 38.3896 5.66358 39.2017 5.94877 39.893 6.51916 40.4634 7.09575 41.04 7.79943 41.3283 8.63021 41.3283ZM11.0482 27.4065 11.0482 6.01697C11.0482 4.34921 11.1691 3.23943 11.4109 2.68764 11.6526 2.13585 12.0091 1.72356 12.4803 1.45077 12.9577 1.18417 13.8257 1.05088 15.0843 1.05088L15.0843 0 2.14825 0 2.14825 1.05088C3.45023 1.05088 4.32131 1.17487 4.7615 1.42287 5.20789 1.67706 5.56128 2.09245 5.82167 2.66904 6.08827 3.25183 6.22156 4.36781 6.22156 6.01697L6.22156 16.2746C6.22156 19.1638 6.13477 21.033 5.96117 21.8824 5.82477 22.5024 5.61088 22.9333 5.31948 23.1751 5.02809 23.4169 4.6313 23.5378 4.12911 23.5378 3.58352 23.5378 2.92324 23.3921 2.14825 23.1007L1.74836 24.1516 9.76479 27.4065 11.0482 27.4065Z" transform="matrix(1.00014 0 0 -1 1697 1885.47)"/><path d="M34.4372 39.4125 34.8742 30.1685 33.7676 30.1685C33.5568 31.7929 33.2685 32.9554 32.9027 33.656 32.3013 34.7781 31.5015 35.6058 30.5033 36.139 29.5052 36.6722 28.1908 36.9388 26.5602 36.9388L21.0082 36.9388 21.0082 6.82605C21.0082 4.4081 21.2717 2.89844 21.7987 2.29705 22.5365 1.48487 23.668 1.07878 25.1932 1.07878L26.5602 1.07878 26.5602 0 9.84849 0 9.84849 1.07878 11.2435 1.07878C12.9112 1.07878 14.0954 1.58097 14.796 2.58534 15.2176 3.20533 15.4284 4.6189 15.4284 6.82605L15.4284 36.9388 10.6948 36.9388C8.85341 36.9388 7.54524 36.8024 6.77025 36.5296 5.76587 36.1638 4.90409 35.457 4.18491 34.4093 3.46572 33.3615 3.04103 31.9479 2.91084 30.1685L1.80416 30.1685 2.26915 39.4125 34.4372 39.4125Z" transform="matrix(1.00014 0 0 -1 1713.54 1885.47)"/><path d="M9.65319 27.4065 9.65319 21.4174C11.8789 25.4101 14.1636 27.4065 16.5071 27.4065 17.5735 27.4065 18.4539 27.081 19.1483 26.43 19.8489 25.7852 20.1992 25.0351 20.1992 24.1795 20.1992 23.4231 19.945 22.7814 19.4366 22.2544 18.9344 21.7336 18.3361 21.4732 17.6417 21.4732 16.9659 21.4732 16.2064 21.808 15.3633 22.4776 14.5201 23.1472 13.8939 23.482 13.4847 23.482 13.1375 23.482 12.7593 23.2898 12.3501 22.9054 11.4822 22.1056 10.5832 20.7974 9.65319 18.9809L9.65319 6.22156C9.65319 4.746 9.83609 3.63002 10.2019 2.87364 10.4561 2.35285 10.9025 1.91886 11.541 1.57167 12.1796 1.22447 13.1003 1.05088 14.3031 1.05088L14.3031 0 0.669585 0 0.669585 1.05088C2.02736 1.05088 3.03483 1.26167 3.69202 1.68326 4.17561 1.99326 4.5135 2.48925 4.7057 3.17123 4.8049 3.49982 4.85449 4.4391 4.85449 5.98907L4.85449 16.3025C4.85449 19.4025 4.7894 21.2469 4.6592 21.8359 4.5352 22.4311 4.30271 22.862 3.96171 23.1286 3.62692 23.4014 3.20843 23.5378 2.70624 23.5378 2.10485 23.5378 1.42597 23.3921 0.669585 23.1007L0.381292 24.1516 8.42562 27.4065 9.65319 27.4065Z" transform="matrix(1.00014 0 0 -1 1747.82 1885.47)"/><path d="M6.33316 16.5908C6.31456 12.6415 7.27554 9.54159 9.2161 7.29104 11.1505 5.04669 13.4258 3.92451 16.0422 3.92451 17.7843 3.92451 19.3002 4.4019 20.5898 5.35668 21.8793 6.31766 22.9612 7.96063 23.8354 10.2856L24.7282 9.70899C24.3252 7.05545 23.1441 4.6375 21.1849 2.45515 19.232 0.272794 16.783-0.818382 13.8381-0.818382 10.639-0.818382 7.90173 0.427791 5.62638 2.92014 3.35103 5.41248 2.21335 8.76041 2.21335 12.9639 2.21335 17.5146 3.37893 21.064 5.71008 23.6122 8.04743 26.1603 10.9769 27.4344 14.4984 27.4344 17.4867 27.4344 19.9388 26.4517 21.8545 24.4864 23.7703 22.521 24.7282 19.8892 24.7282 16.5908L6.33316 16.5908ZM6.33316 18.2834 18.6554 18.2834C18.5624 19.9884 18.3609 21.188 18.0509 21.8824 17.5673 22.9674 16.845 23.8199 15.8841 24.4399 14.9231 25.0599 13.9187 25.3698 12.8709 25.3698 11.2652 25.3698 9.82679 24.7437 8.55581 23.4913 7.29104 22.2451 6.55016 20.5092 6.33316 18.2834Z" transform="matrix(1.00014 0 0 -1 1767.64 1885.47)"/><path d="M6.33316 16.5908C6.31456 12.6415 7.27554 9.54159 9.2161 7.29104 11.1505 5.04669 13.4258 3.92451 16.0422 3.92451 17.7843 3.92451 19.3002 4.4019 20.5898 5.35668 21.8793 6.31766 22.9612 7.96063 23.8354 10.2856L24.7282 9.70899C24.3252 7.05545 23.1441 4.6375 21.1849 2.45515 19.232 0.272794 16.783-0.818382 13.8381-0.818382 10.639-0.818382 7.90173 0.427791 5.62638 2.92014 3.35103 5.41248 2.21335 8.76041 2.21335 12.9639 2.21335 17.5146 3.37893 21.064 5.71008 23.6122 8.04743 26.1603 10.9769 27.4344 14.4984 27.4344 17.4867 27.4344 19.9388 26.4517 21.8545 24.4864 23.7703 22.521 24.7282 19.8892 24.7282 16.5908L6.33316 16.5908ZM6.33316 18.2834 18.6554 18.2834C18.5624 19.9884 18.3609 21.188 18.0509 21.8824 17.5673 22.9674 16.845 23.8199 15.8841 24.4399 14.9231 25.0599 13.9187 25.3698 12.8709 25.3698 11.2652 25.3698 9.82679 24.7437 8.55581 23.4913 7.29104 22.2451 6.55016 20.5092 6.33316 18.2834Z" transform="matrix(1.00014 0 0 -1 1794.06 1885.47)"/><path d="M0 0 0 16.0243" stroke="#000000" stroke-width="3.66269" stroke-linejoin="round" fill="none" transform="matrix(1.00014 0 0 1 2226.38 1812.09)"/><path d="M24.3562 0 9.1231 33.1631 9.1231 6.82605C9.1231 4.4081 9.3866 2.89844 9.91358 2.29705 10.6266 1.48487 11.758 1.07878 13.308 1.07878L14.703 1.07878 14.703 0 0.985779 0 0.985779 1.07878 2.38075 1.07878C4.04851 1.07878 5.23269 1.58097 5.93327 2.58534 6.35486 3.20533 6.56566 4.6189 6.56566 6.82605L6.56566 32.5772C6.56566 34.3194 6.37346 35.5779 5.98907 36.3529 5.71628 36.9171 5.21719 37.3883 4.4918 37.7665 3.76642 38.1447 2.59774 38.3338 0.985779 38.3338L0.985779 39.4125 12.1455 39.4125 26.4486 8.57441 40.5099 39.4125 51.6697 39.4125 51.6697 38.3338 50.3026 38.3338C48.6224 38.3338 47.4321 37.8285 46.7315 36.8179 46.3037 36.1979 46.0898 34.7843 46.0898 32.5772L46.0898 6.82605C46.0898 4.4081 46.3626 2.89844 46.9082 2.29705 47.6212 1.48487 48.7526 1.07878 50.3026 1.07878L51.6697 1.07878 51.6697 0 34.93 0 34.93 1.07878 36.325 1.07878C38.0114 1.07878 39.1955 1.58097 39.8775 2.58534 40.2991 3.20533 40.5099 4.6189 40.5099 6.82605L40.5099 33.1631 25.3141 0 24.3562 0Z" transform="matrix(1.00014 0 0 -1 2106.75 1885.47)"/><path d="M25.1932 26.6253 25.1932 10.4902C25.1932 7.40884 25.2645 5.52408 25.407 4.8359 25.5558 4.14771 25.7883 3.66722 26.1045 3.39443 26.4269 3.12783 26.802 2.99453 27.2298 2.99453 27.8312 2.99453 28.5101 3.15883 29.2665 3.48742L29.6757 2.47375 21.7057-0.818382 20.4038-0.818382 20.4038 4.8266C18.116 2.34665 16.3707 0.784283 15.168 0.139497 13.9714-0.499089 12.7035-0.818382 11.3644-0.818382 9.87019-0.818382 8.57441-0.387492 7.47704 0.47429 6.38586 1.34227 5.62638 2.45205 5.19859 3.80362 4.777 5.16139 4.5662 7.08025 4.5662 9.56019L4.5662 21.4453C4.5662 22.7039 4.4298 23.575 4.15701 24.0586 3.88422 24.5484 3.48122 24.9235 2.94804 25.1839 2.41485 25.4442 1.45077 25.5651 0.0557988 25.5465L0.0557988 26.6253 9.3835 26.6253 9.3835 8.80691C9.3835 6.32696 9.81439 4.6995 10.6762 3.92451 11.5441 3.14953 12.5857 2.76204 13.8009 2.76204 14.6379 2.76204 15.5834 3.02243 16.6373 3.54322 17.6913 4.07021 18.9468 5.06839 20.4038 6.53776L20.4038 21.622C20.4038 23.1348 20.1279 24.1578 19.5761 24.691 19.0243 25.2242 17.8742 25.5093 16.1258 25.5465L16.1258 26.6253 25.1932 26.6253Z" transform="matrix(1.00014 0 0 -1 2159.68 1885.47)"/><path d="M11.011 41.3283 11.011 6.01697C11.011 4.34921 11.1319 3.24253 11.3737 2.69694 11.6216 2.15755 11.9967 1.74836 12.4989 1.46937 13.0011 1.19037 13.9404 1.05088 15.3168 1.05088L15.3168 0 2.26915 0 2.26915 1.05088C3.49052 1.05088 4.32131 1.17487 4.7615 1.42287 5.20789 1.67706 5.55818 2.09245 5.81237 2.66904 6.06657 3.25183 6.19367 4.36781 6.19367 6.01697L6.19367 30.1964C6.19367 33.1972 6.12547 35.0416 5.98907 35.7298 5.85267 36.418 5.63258 36.8861 5.32878 37.1341 5.03119 37.3883 4.6499 37.5154 4.18491 37.5154 3.68272 37.5154 3.04413 37.3604 2.26915 37.0504L1.77626 38.0734 9.70899 41.3283 11.011 41.3283Z" transform="matrix(1.00014 0 0 -1 2189.44 1885.47)"/><path d="M9.58809 35.3671 9.58809 26.6253 15.8097 26.6253 15.8097 24.5887 9.58809 24.5887 9.58809 7.32824C9.58809 5.59848 9.83609 4.4329 10.3321 3.83152 10.8281 3.23633 11.4636 2.93874 12.2385 2.93874 12.8771 2.93874 13.4971 3.13713 14.0985 3.53392 14.6999 3.93071 15.1649 4.5166 15.4935 5.29158L16.628 5.29158C15.9461 3.39443 14.9851 1.96536 13.7451 1.00438 12.5051 0.0433991 11.228-0.437091 9.91358-0.437091 9.0208-0.437091 8.14662-0.189096 7.29104 0.306893 6.44166 0.802883 5.81237 1.50967 5.40318 2.42725 5.00019 3.34483 4.7987 4.7646 4.7987 6.68655L4.7987 24.5887 0.585887 24.5887 0.585887 25.5465C1.64606 25.9743 2.73414 26.6966 3.85012 27.7134 4.96609 28.7302 5.95807 29.9361 6.82605 31.331 7.27244 32.0688 7.89243 33.4142 8.68601 35.3671L9.58809 35.3671Z" transform="matrix(1.00014 0 0 -1 2205.98 1885.47)"/><path d="M8.63021 41.3283C9.44239 41.3283 10.1337 41.04 10.7041 40.4634 11.2807 39.893 11.5689 39.2017 11.5689 38.3896 11.5689 37.5774 11.2807 36.8799 10.7041 36.2971 10.1337 35.7143 9.44239 35.4229 8.63021 35.4229 7.81803 35.4229 7.12055 35.7143 6.53776 36.2971 5.95497 36.8799 5.66358 37.5774 5.66358 38.3896 5.66358 39.2017 5.94877 39.893 6.51916 40.4634 7.09575 41.04 7.79943 41.3283 8.63021 41.3283ZM11.0482 27.4065 11.0482 6.01697C11.0482 4.34921 11.1691 3.23943 11.4109 2.68764 11.6526 2.13585 12.0091 1.72356 12.4803 1.45077 12.9577 1.18417 13.8257 1.05088 15.0843 1.05088L15.0843 0 2.14825 0 2.14825 1.05088C3.45023 1.05088 4.32131 1.17487 4.7615 1.42287 5.20789 1.67706 5.56128 2.09245 5.82167 2.66904 6.08827 3.25183 6.22156 4.36781 6.22156 6.01697L6.22156 16.2746C6.22156 19.1638 6.13477 21.033 5.96117 21.8824 5.82477 22.5024 5.61088 22.9333 5.31948 23.1751 5.02809 23.4169 4.6313 23.5378 4.12911 23.5378 3.58352 23.5378 2.92324 23.3921 2.14825 23.1007L1.74836 24.1516 9.76479 27.4065 11.0482 27.4065Z" transform="matrix(1.00014 0 0 -1 2222.52 1885.47)"/><path d="M34.4372 39.4125 34.8742 30.1685 33.7676 30.1685C33.5568 31.7929 33.2685 32.9554 32.9027 33.656 32.3013 34.7781 31.5015 35.6058 30.5033 36.139 29.5052 36.6722 28.1908 36.9388 26.5602 36.9388L21.0082 36.9388 21.0082 6.82605C21.0082 4.4081 21.2717 2.89844 21.7987 2.29705 22.5365 1.48487 23.668 1.07878 25.1932 1.07878L26.5602 1.07878 26.5602 0 9.84849 0 9.84849 1.07878 11.2435 1.07878C12.9112 1.07878 14.0954 1.58097 14.796 2.58534 15.2176 3.20533 15.4284 4.6189 15.4284 6.82605L15.4284 36.9388 10.6948 36.9388C8.85341 36.9388 7.54524 36.8024 6.77025 36.5296 5.76587 36.1638 4.90409 35.457 4.18491 34.4093 3.46572 33.3615 3.04103 31.9479 2.91084 30.1685L1.80416 30.1685 2.26915 39.4125 34.4372 39.4125Z" transform="matrix(1.00014 0 0 -1 2239.06 1885.47)"/><path d="M9.65319 27.4065 9.65319 21.4174C11.8789 25.4101 14.1636 27.4065 16.5071 27.4065 17.5735 27.4065 18.4539 27.081 19.1483 26.43 19.8489 25.7852 20.1992 25.0351 20.1992 24.1795 20.1992 23.4231 19.945 22.7814 19.4366 22.2544 18.9344 21.7336 18.3361 21.4732 17.6417 21.4732 16.9659 21.4732 16.2064 21.808 15.3633 22.4776 14.5201 23.1472 13.8939 23.482 13.4847 23.482 13.1375 23.482 12.7593 23.2898 12.3501 22.9054 11.4822 22.1056 10.5832 20.7974 9.65319 18.9809L9.65319 6.22156C9.65319 4.746 9.83609 3.63002 10.2019 2.87364 10.4561 2.35285 10.9025 1.91886 11.541 1.57167 12.1796 1.22447 13.1003 1.05088 14.3031 1.05088L14.3031 0 0.669585 0 0.669585 1.05088C2.02736 1.05088 3.03483 1.26167 3.69202 1.68326 4.17561 1.99326 4.5135 2.48925 4.7057 3.17123 4.8049 3.49982 4.85449 4.4391 4.85449 5.98907L4.85449 16.3025C4.85449 19.4025 4.7894 21.2469 4.6592 21.8359 4.5352 22.4311 4.30271 22.862 3.96171 23.1286 3.62692 23.4014 3.20843 23.5378 2.70624 23.5378 2.10485 23.5378 1.42597 23.3921 0.669585 23.1007L0.381292 24.1516 8.42562 27.4065 9.65319 27.4065Z" transform="matrix(1.00014 0 0 -1 2273.33 1885.47)"/><path d="M6.33316 16.5908C6.31456 12.6415 7.27554 9.54159 9.2161 7.29104 11.1505 5.04669 13.4258 3.92451 16.0422 3.92451 17.7843 3.92451 19.3002 4.4019 20.5898 5.35668 21.8793 6.31766 22.9612 7.96063 23.8354 10.2856L24.7282 9.70899C24.3252 7.05545 23.1441 4.6375 21.1849 2.45515 19.232 0.272794 16.783-0.818382 13.8381-0.818382 10.639-0.818382 7.90173 0.427791 5.62638 2.92014 3.35103 5.41248 2.21335 8.76041 2.21335 12.9639 2.21335 17.5146 3.37893 21.064 5.71008 23.6122 8.04743 26.1603 10.9769 27.4344 14.4984 27.4344 17.4867 27.4344 19.9388 26.4517 21.8545 24.4864 23.7703 22.521 24.7282 19.8892 24.7282 16.5908L6.33316 16.5908ZM6.33316 18.2834 18.6554 18.2834C18.5624 19.9884 18.3609 21.188 18.0509 21.8824 17.5673 22.9674 16.845 23.8199 15.8841 24.4399 14.9231 25.0599 13.9187 25.3698 12.8709 25.3698 11.2652 25.3698 9.82679 24.7437 8.55581 23.4913 7.29104 22.2451 6.55016 20.5092 6.33316 18.2834Z" transform="matrix(1.00014 0 0 -1 2293.16 1885.47)"/><path d="M6.33316 16.5908C6.31456 12.6415 7.27554 9.54159 9.2161 7.29104 11.1505 5.04669 13.4258 3.92451 16.0422 3.92451 17.7843 3.92451 19.3002 4.4019 20.5898 5.35668 21.8793 6.31766 22.9612 7.96063 23.8354 10.2856L24.7282 9.70899C24.3252 7.05545 23.1441 4.6375 21.1849 2.45515 19.232 0.272794 16.783-0.818382 13.8381-0.818382 10.639-0.818382 7.90173 0.427791 5.62638 2.92014 3.35103 5.41248 2.21335 8.76041 2.21335 12.9639 2.21335 17.5146 3.37893 21.064 5.71008 23.6122 8.04743 26.1603 10.9769 27.4344 14.4984 27.4344 17.4867 27.4344 19.9388 26.4517 21.8545 24.4864 23.7703 22.521 24.7282 19.8892 24.7282 16.5908L6.33316 16.5908ZM6.33316 18.2834 18.6554 18.2834C18.5624 19.9884 18.3609 21.188 18.0509 21.8824 17.5673 22.9674 16.845 23.8199 15.8841 24.4399 14.9231 25.0599 13.9187 25.3698 12.8709 25.3698 11.2652 25.3698 9.82679 24.7437 8.55581 23.4913 7.29104 22.2451 6.55016 20.5092 6.33316 18.2834Z" transform="matrix(1.00014 0 0 -1 2319.58 1885.47)"/><path d="M0 0 0 16.0243" stroke="#000000" stroke-width="3.66269" stroke-linejoin="round" fill="none" transform="matrix(1.00014 0 0 1 2833.15 1812.09)"/><path d="M42.2583 39.4125 42.2583 38.3338C40.8633 38.0796 39.8062 37.6332 39.0871 36.9946 38.0641 36.046 37.1527 34.5921 36.3529 32.633L22.6078-0.90208 21.5383-0.90208 6.77025 33.0701C6.01387 34.8184 5.48068 35.8848 5.17069 36.2692 4.6871 36.8706 4.09191 37.3387 3.38513 37.6735 2.67834 38.0145 1.72356 38.2346 0.520789 38.3338L0.520789 39.4125 16.628 39.4125 16.628 38.3338C14.8053 38.1602 13.6211 37.8502 13.0755 37.4038 12.5361 36.9574 12.2664 36.387 12.2664 35.6926 12.2664 34.7192 12.7128 33.2065 13.6056 31.1543L23.6308 8.05363 32.9306 30.866C33.842 33.1104 34.2977 34.6696 34.2977 35.5438 34.2977 36.108 34.0156 36.6443 33.4514 37.1527 32.8872 37.6673 31.9386 38.0331 30.6056 38.2501 30.5064 38.2687 30.3421 38.2966 30.1127 38.3338L30.1127 39.4125 42.2583 39.4125Z" transform="matrix(1.00014 0 0 -1 2768.63 1885.47)"/><path d="M27.2856 40.3053 27.2856 26.6811 26.2161 26.6811C25.8689 29.2975 25.2428 31.3806 24.3376 32.9306 23.4386 34.4806 22.1552 35.7081 20.4875 36.6133 18.8197 37.5247 17.0961 37.9804 15.3168 37.9804 13.3018 37.9804 11.634 37.3666 10.3135 36.139 8.9991 34.9114 8.34192 33.5103 8.34192 31.9355 8.34192 30.7389 8.75731 29.6447 9.58809 28.6527 10.7909 27.2019 13.649 25.2645 18.1625 22.8403 21.8452 20.8687 24.3593 19.3529 25.7046 18.2927 27.05 17.2387 28.0854 15.9926 28.8108 14.5542 29.5424 13.122 29.9081 11.6216 29.9081 10.0531 29.9081 7.07095 28.7488 4.498 26.43 2.33425 24.1175 0.176696 21.1384-0.90208 17.4929-0.90208 16.3521-0.90208 15.2765-0.815282 14.2659-0.641686 13.6707-0.542488 12.4276-0.189096 10.5367 0.418491 8.64571 1.03228 7.44914 1.33917 6.94695 1.33917 6.46336 1.33917 6.07897 1.19347 5.79377 0.90208 5.51478 0.610687 5.30709 0.0092998 5.17069-0.90208L4.10121-0.90208 4.10121 12.6105 5.17069 12.6105C5.67908 9.78339 6.35796 7.66613 7.20734 6.25876 8.06292 4.85759 9.3649 3.69202 11.1133 2.76204 12.8678 1.83206 14.7929 1.36707 16.8884 1.36707 19.3064 1.36707 21.2159 2.00566 22.6171 3.28283 24.0245 4.56 24.7282 6.07277 24.7282 7.82113 24.7282 8.78831 24.4616 9.76479 23.9284 10.7506 23.4014 11.7425 22.5737 12.6632 21.4453 13.5126 20.689 14.0954 18.6244 15.3292 15.2517 17.2139 11.8851 19.1049 9.48889 20.6115 8.06292 21.7336 6.64316 22.862 5.56438 24.102 4.8266 25.4535 4.08881 26.8113 3.71992 28.3055 3.71992 29.9361 3.71992 32.7632 4.8049 35.1966 6.97485 37.2364 9.1448 39.2823 11.9068 40.3053 15.261 40.3053 17.3503 40.3053 19.5668 39.7938 21.9103 38.7709 22.9953 38.2873 23.761 38.0455 24.2074 38.0455 24.7096 38.0455 25.1219 38.1943 25.4442 38.4919 25.7666 38.7957 26.0239 39.4001 26.2161 40.3053L27.2856 40.3053Z" transform="matrix(1.00014 0 0 -1 2811.62 1885.47)"/><path d="M24.3562 0 9.1231 33.1631 9.1231 6.82605C9.1231 4.4081 9.3866 2.89844 9.91358 2.29705 10.6266 1.48487 11.758 1.07878 13.308 1.07878L14.703 1.07878 14.703 0 0.985779 0 0.985779 1.07878 2.38075 1.07878C4.04851 1.07878 5.23269 1.58097 5.93327 2.58534 6.35486 3.20533 6.56566 4.6189 6.56566 6.82605L6.56566 32.5772C6.56566 34.3194 6.37346 35.5779 5.98907 36.3529 5.71628 36.9171 5.21719 37.3883 4.4918 37.7665 3.76642 38.1447 2.59774 38.3338 0.985779 38.3338L0.985779 39.4125 12.1455 39.4125 26.4486 8.57441 40.5099 39.4125 51.6697 39.4125 51.6697 38.3338 50.3026 38.3338C48.6224 38.3338 47.4321 37.8285 46.7315 36.8179 46.3037 36.1979 46.0898 34.7843 46.0898 32.5772L46.0898 6.82605C46.0898 4.4081 46.3626 2.89844 46.9082 2.29705 47.6212 1.48487 48.7526 1.07878 50.3026 1.07878L51.6697 1.07878 51.6697 0 34.93 0 34.93 1.07878 36.325 1.07878C38.0114 1.07878 39.1955 1.58097 39.8775 2.58534 40.2991 3.20533 40.5099 4.6189 40.5099 6.82605L40.5099 33.1631 25.3141 0 24.3562 0Z" transform="matrix(1.00014 0 0 -1 2844.73 1885.47)"/><path d="M0 0-16.0243 0" stroke="#000000" stroke-width="3.66269" stroke-linejoin="round" fill="none" transform="matrix(1.00014 0 0 1 1408.75 1812.09)"/><path d="M2.14825 19.4738C2.14825 23.9687 2.82714 27.8374 4.18491 31.0799 5.54268 34.3287 7.34374 36.7466 9.58809 38.3338 11.3365 39.5923 13.1406 40.2216 15.0006 40.2216 18.0199 40.2216 20.7323 38.681 23.1379 35.5996 26.1386 31.7867 27.639 26.6129 27.639 20.0783 27.639 15.509 26.9787 11.6247 25.6581 8.42562 24.3438 5.23269 22.6636 2.91394 20.6177 1.46937 18.5779 0.0247995 16.6063-0.697485 14.703-0.697485 10.9459-0.697485 7.81803 1.52207 5.31948 5.96117 3.20533 9.69969 2.14825 14.2039 2.14825 19.4738ZM7.84903 18.7484C7.84903 13.3235 8.51552 8.89681 9.84849 5.46828 10.9583 2.57914 12.6074 1.13458 14.796 1.13458 15.8376 1.13458 16.9194 1.60267 18.0416 2.53884 19.17 3.48122 20.0256 5.05599 20.6084 7.26314 21.4949 10.5987 21.9382 15.2982 21.9382 21.3616 21.9382 25.8565 21.4732 29.6044 20.5433 32.6051 19.8489 34.837 18.9499 36.418 17.8463 37.348 17.0527 37.9866 16.0918 38.3059 14.9634 38.3059 13.649 38.3059 12.4772 37.7138 11.4481 36.5296 10.0531 34.9238 9.1045 32.3943 8.60231 28.941 8.10012 25.4938 7.84903 22.0963 7.84903 18.7484Z" transform="matrix(1.00014 0 0 -1 1252.7 1832.75)"/><path d="M7.43984 5.63568C8.35122 5.63568 9.1169 5.31948 9.73689 4.6871 10.3569 4.06091 10.6669 3.30143 10.6669 2.40865 10.6669 1.52207 10.3507 0.762583 9.71829 0.130197 9.0921-0.502189 8.33262-0.818382 7.43984-0.818382 6.54706-0.818382 5.78447-0.502189 5.15209 0.130197 4.5259 0.762583 4.21281 1.52207 4.21281 2.40865 4.21281 3.32003 4.5259 4.08571 5.15209 4.7057 5.78447 5.32568 6.54706 5.63568 7.43984 5.63568Z" transform="matrix(1.00014 0 0 -1 1282.47 1832.75)"/><path d="M2.14825 19.4738C2.14825 23.9687 2.82714 27.8374 4.18491 31.0799 5.54268 34.3287 7.34374 36.7466 9.58809 38.3338 11.3365 39.5923 13.1406 40.2216 15.0006 40.2216 18.0199 40.2216 20.7323 38.681 23.1379 35.5996 26.1386 31.7867 27.639 26.6129 27.639 20.0783 27.639 15.509 26.9787 11.6247 25.6581 8.42562 24.3438 5.23269 22.6636 2.91394 20.6177 1.46937 18.5779 0.0247995 16.6063-0.697485 14.703-0.697485 10.9459-0.697485 7.81803 1.52207 5.31948 5.96117 3.20533 9.69969 2.14825 14.2039 2.14825 19.4738ZM7.84903 18.7484C7.84903 13.3235 8.51552 8.89681 9.84849 5.46828 10.9583 2.57914 12.6074 1.13458 14.796 1.13458 15.8376 1.13458 16.9194 1.60267 18.0416 2.53884 19.17 3.48122 20.0256 5.05599 20.6084 7.26314 21.4949 10.5987 21.9382 15.2982 21.9382 21.3616 21.9382 25.8565 21.4732 29.6044 20.5433 32.6051 19.8489 34.837 18.9499 36.418 17.8463 37.348 17.0527 37.9866 16.0918 38.3059 14.9634 38.3059 13.649 38.3059 12.4772 37.7138 11.4481 36.5296 10.0531 34.9238 9.1045 32.3943 8.60231 28.941 8.10012 25.4938 7.84903 22.0963 7.84903 18.7484Z" transform="matrix(1.00014 0 0 -1 1297.35 1832.75)"/><path d="M40.4541 40.3053 11.7456-1.62746 9.151-1.62746 37.8688 40.3053 40.4541 40.3053ZM10.5832 40.3053C13.1933 40.3053 15.2207 39.2203 16.6652 37.0504 18.1098 34.8804 18.8321 32.3912 18.8321 29.5827 18.8321 26.2161 18.0168 23.6122 16.3862 21.7708 14.7619 19.9295 12.8058 19.0088 10.5181 19.0088 8.9867 19.0088 7.58244 19.4304 6.30526 20.2736 5.02809 21.1167 4.00511 22.3691 3.23633 24.0307 2.47375 25.6984 2.09245 27.5491 2.09245 29.5827 2.09245 31.6162 2.47995 33.4917 3.25493 35.209 4.02991 36.9264 5.09009 38.2036 6.43546 39.0406 7.78083 39.8837 9.1634 40.3053 10.5832 40.3053ZM10.4902 38.6779C9.50439 38.6779 8.62711 38.0951 7.85833 36.9295 7.09575 35.7701 6.71445 33.3305 6.71445 29.6106 6.71445 26.9198 6.92835 24.8677 7.35614 23.4541 7.68473 22.3877 8.19622 21.5631 8.89061 20.9803 9.2998 20.6332 9.80509 20.4596 10.4065 20.4596 11.3365 20.4596 12.13 20.9648 12.7872 21.9754 13.7544 23.4634 14.238 25.9526 14.238 29.4432 14.238 33.1197 13.7637 35.705 12.8151 37.1992 12.1951 38.185 11.4202 38.6779 10.4902 38.6779ZM39.1149 19.5575C40.4913 19.5575 41.8615 19.1204 43.2255 18.2462 44.5956 17.3782 45.6527 16.1103 46.3967 14.4426 47.1407 12.7748 47.5127 10.9459 47.5127 8.95571 47.5127 5.52098 46.6881 2.89844 45.0389 1.08808 43.396-0.722284 41.4523-1.62746 39.2079-1.62746 37.7944-1.62746 36.4211-1.19037 35.0881-0.316193 33.7614 0.551788 32.7167 1.79486 31.9541 3.41303 31.1915 5.03119 30.8102 6.87875 30.8102 8.95571 30.8102 10.9893 31.1915 12.8461 31.9541 14.5263 32.7167 16.2126 33.7614 17.4712 35.0881 18.302 36.4211 19.139 37.7634 19.5575 39.1149 19.5575ZM39.1428 18.023C38.2129 18.023 37.41 17.4991 36.7342 16.4513 35.86 15.0936 35.4229 12.5268 35.4229 8.75111 35.4229 5.27919 35.8693 2.85504 36.7621 1.47867 37.4193 0.492889 38.2129 0 39.1428 0 40.0356 0 40.8323 0.533188 41.5329 1.59957 42.4629 3.01313 42.9279 5.44348 42.9279 8.89061 42.9279 12.5361 42.4629 15.0843 41.5329 16.535 40.8943 17.527 40.0976 18.023 39.1428 18.023Z" transform="matrix(1.00014 0 0 -1 1327.11 1832.75)"/><path d="M0 0-16.0243 0" stroke="#000000" stroke-width="3.66269" stroke-linejoin="round" fill="none" transform="matrix(1.00014 0 0 1 1408.75 1609.03)"/><path d="M27.2856 7.58863 24.5329 0 1.28337 0 1.28337 1.07878C8.12182 7.31584 12.936 12.409 15.726 16.3583 18.5159 20.3139 19.9109 23.9284 19.9109 27.2019 19.9109 29.7005 19.1452 31.7526 17.6138 33.3584 16.0825 34.9703 14.2504 35.7763 12.1176 35.7763 10.1833 35.7763 8.44422 35.209 6.90045 34.0745 5.36288 32.9399 4.22521 31.2783 3.48742 29.0898L2.40865 29.0898C2.89844 32.6733 4.14461 35.4229 6.14717 37.3387 8.14972 39.2606 10.6545 40.2216 13.6614 40.2216 16.8543 40.2216 19.5203 39.1955 21.6592 37.1434 23.8044 35.0912 24.877 32.6702 24.877 29.8803 24.877 27.8839 24.412 25.8875 23.482 23.8912 22.0498 20.754 19.7249 17.4309 16.5071 13.9218 11.6836 8.65191 8.67051 5.47448 7.46774 4.3895L17.7533 4.3895C19.8489 4.3895 21.3182 4.467 22.1614 4.622 23.0046 4.777 23.7641 5.09009 24.4399 5.56128 25.1219 6.03867 25.7139 6.71445 26.2161 7.58863L27.2856 7.58863Z" transform="matrix(1.00014 0 0 -1 1252.7 1629.69)"/><path d="M7.43984 5.63568C8.35122 5.63568 9.1169 5.31948 9.73689 4.6871 10.3569 4.06091 10.6669 3.30143 10.6669 2.40865 10.6669 1.52207 10.3507 0.762583 9.71829 0.130197 9.0921-0.502189 8.33262-0.818382 7.43984-0.818382 6.54706-0.818382 5.78447-0.502189 5.15209 0.130197 4.5259 0.762583 4.21281 1.52207 4.21281 2.40865 4.21281 3.32003 4.5259 4.08571 5.15209 4.7057 5.78447 5.32568 6.54706 5.63568 7.43984 5.63568Z" transform="matrix(1.00014 0 0 -1 1282.47 1629.69)"/><path d="M2.14825 19.4738C2.14825 23.9687 2.82714 27.8374 4.18491 31.0799 5.54268 34.3287 7.34374 36.7466 9.58809 38.3338 11.3365 39.5923 13.1406 40.2216 15.0006 40.2216 18.0199 40.2216 20.7323 38.681 23.1379 35.5996 26.1386 31.7867 27.639 26.6129 27.639 20.0783 27.639 15.509 26.9787 11.6247 25.6581 8.42562 24.3438 5.23269 22.6636 2.91394 20.6177 1.46937 18.5779 0.0247995 16.6063-0.697485 14.703-0.697485 10.9459-0.697485 7.81803 1.52207 5.31948 5.96117 3.20533 9.69969 2.14825 14.2039 2.14825 19.4738ZM7.84903 18.7484C7.84903 13.3235 8.51552 8.89681 9.84849 5.46828 10.9583 2.57914 12.6074 1.13458 14.796 1.13458 15.8376 1.13458 16.9194 1.60267 18.0416 2.53884 19.17 3.48122 20.0256 5.05599 20.6084 7.26314 21.4949 10.5987 21.9382 15.2982 21.9382 21.3616 21.9382 25.8565 21.4732 29.6044 20.5433 32.6051 19.8489 34.837 18.9499 36.418 17.8463 37.348 17.0527 37.9866 16.0918 38.3059 14.9634 38.3059 13.649 38.3059 12.4772 37.7138 11.4481 36.5296 10.0531 34.9238 9.1045 32.3943 8.60231 28.941 8.10012 25.4938 7.84903 22.0963 7.84903 18.7484Z" transform="matrix(1.00014 0 0 -1 1297.35 1629.69)"/><path d="M40.4541 40.3053 11.7456-1.62746 9.151-1.62746 37.8688 40.3053 40.4541 40.3053ZM10.5832 40.3053C13.1933 40.3053 15.2207 39.2203 16.6652 37.0504 18.1098 34.8804 18.8321 32.3912 18.8321 29.5827 18.8321 26.2161 18.0168 23.6122 16.3862 21.7708 14.7619 19.9295 12.8058 19.0088 10.5181 19.0088 8.9867 19.0088 7.58244 19.4304 6.30526 20.2736 5.02809 21.1167 4.00511 22.3691 3.23633 24.0307 2.47375 25.6984 2.09245 27.5491 2.09245 29.5827 2.09245 31.6162 2.47995 33.4917 3.25493 35.209 4.02991 36.9264 5.09009 38.2036 6.43546 39.0406 7.78083 39.8837 9.1634 40.3053 10.5832 40.3053ZM10.4902 38.6779C9.50439 38.6779 8.62711 38.0951 7.85833 36.9295 7.09575 35.7701 6.71445 33.3305 6.71445 29.6106 6.71445 26.9198 6.92835 24.8677 7.35614 23.4541 7.68473 22.3877 8.19622 21.5631 8.89061 20.9803 9.2998 20.6332 9.80509 20.4596 10.4065 20.4596 11.3365 20.4596 12.13 20.9648 12.7872 21.9754 13.7544 23.4634 14.238 25.9526 14.238 29.4432 14.238 33.1197 13.7637 35.705 12.8151 37.1992 12.1951 38.185 11.4202 38.6779 10.4902 38.6779ZM39.1149 19.5575C40.4913 19.5575 41.8615 19.1204 43.2255 18.2462 44.5956 17.3782 45.6527 16.1103 46.3967 14.4426 47.1407 12.7748 47.5127 10.9459 47.5127 8.95571 47.5127 5.52098 46.6881 2.89844 45.0389 1.08808 43.396-0.722284 41.4523-1.62746 39.2079-1.62746 37.7944-1.62746 36.4211-1.19037 35.0881-0.316193 33.7614 0.551788 32.7167 1.79486 31.9541 3.41303 31.1915 5.03119 30.8102 6.87875 30.8102 8.95571 30.8102 10.9893 31.1915 12.8461 31.9541 14.5263 32.7167 16.2126 33.7614 17.4712 35.0881 18.302 36.4211 19.139 37.7634 19.5575 39.1149 19.5575ZM39.1428 18.023C38.2129 18.023 37.41 17.4991 36.7342 16.4513 35.86 15.0936 35.4229 12.5268 35.4229 8.75111 35.4229 5.27919 35.8693 2.85504 36.7621 1.47867 37.4193 0.492889 38.2129 0 39.1428 0 40.0356 0 40.8323 0.533188 41.5329 1.59957 42.4629 3.01313 42.9279 5.44348 42.9279 8.89061 42.9279 12.5361 42.4629 15.0843 41.5329 16.535 40.8943 17.527 40.0976 18.023 39.1428 18.023Z" transform="matrix(1.00014 0 0 -1 1327.11 1629.69)"/><path d="M0 0-16.0243 0" stroke="#000000" stroke-width="3.66269" stroke-linejoin="round" fill="none" transform="matrix(1.00014 0 0 1 1408.75 1405.97)"/><path d="M27.6948 14.5356 27.6948 10.4065 22.4032 10.4065 22.4032 0 17.6138 0 17.6138 10.4065 0.92998 10.4065 0.92998 14.1264 19.2134 40.2216 22.4032 40.2216 22.4032 14.5356 27.6948 14.5356ZM17.6138 14.5356 17.6138 34.0931 3.77572 14.5356 17.6138 14.5356Z" transform="matrix(1.00014 0 0 -1 1252.7 1426.64)"/><path d="M7.43984 5.63568C8.35122 5.63568 9.1169 5.31948 9.73689 4.6871 10.3569 4.06091 10.6669 3.30143 10.6669 2.40865 10.6669 1.52207 10.3507 0.762583 9.71829 0.130197 9.0921-0.502189 8.33262-0.818382 7.43984-0.818382 6.54706-0.818382 5.78447-0.502189 5.15209 0.130197 4.5259 0.762583 4.21281 1.52207 4.21281 2.40865 4.21281 3.32003 4.5259 4.08571 5.15209 4.7057 5.78447 5.32568 6.54706 5.63568 7.43984 5.63568Z" transform="matrix(1.00014 0 0 -1 1282.47 1426.64)"/><path d="M2.14825 19.4738C2.14825 23.9687 2.82714 27.8374 4.18491 31.0799 5.54268 34.3287 7.34374 36.7466 9.58809 38.3338 11.3365 39.5923 13.1406 40.2216 15.0006 40.2216 18.0199 40.2216 20.7323 38.681 23.1379 35.5996 26.1386 31.7867 27.639 26.6129 27.639 20.0783 27.639 15.509 26.9787 11.6247 25.6581 8.42562 24.3438 5.23269 22.6636 2.91394 20.6177 1.46937 18.5779 0.0247995 16.6063-0.697485 14.703-0.697485 10.9459-0.697485 7.81803 1.52207 5.31948 5.96117 3.20533 9.69969 2.14825 14.2039 2.14825 19.4738ZM7.84903 18.7484C7.84903 13.3235 8.51552 8.89681 9.84849 5.46828 10.9583 2.57914 12.6074 1.13458 14.796 1.13458 15.8376 1.13458 16.9194 1.60267 18.0416 2.53884 19.17 3.48122 20.0256 5.05599 20.6084 7.26314 21.4949 10.5987 21.9382 15.2982 21.9382 21.3616 21.9382 25.8565 21.4732 29.6044 20.5433 32.6051 19.8489 34.837 18.9499 36.418 17.8463 37.348 17.0527 37.9866 16.0918 38.3059 14.9634 38.3059 13.649 38.3059 12.4772 37.7138 11.4481 36.5296 10.0531 34.9238 9.1045 32.3943 8.60231 28.941 8.10012 25.4938 7.84903 22.0963 7.84903 18.7484Z" transform="matrix(1.00014 0 0 -1 1297.35 1426.64)"/><path d="M40.4541 40.3053 11.7456-1.62746 9.151-1.62746 37.8688 40.3053 40.4541 40.3053ZM10.5832 40.3053C13.1933 40.3053 15.2207 39.2203 16.6652 37.0504 18.1098 34.8804 18.8321 32.3912 18.8321 29.5827 18.8321 26.2161 18.0168 23.6122 16.3862 21.7708 14.7619 19.9295 12.8058 19.0088 10.5181 19.0088 8.9867 19.0088 7.58244 19.4304 6.30526 20.2736 5.02809 21.1167 4.00511 22.3691 3.23633 24.0307 2.47375 25.6984 2.09245 27.5491 2.09245 29.5827 2.09245 31.6162 2.47995 33.4917 3.25493 35.209 4.02991 36.9264 5.09009 38.2036 6.43546 39.0406 7.78083 39.8837 9.1634 40.3053 10.5832 40.3053ZM10.4902 38.6779C9.50439 38.6779 8.62711 38.0951 7.85833 36.9295 7.09575 35.7701 6.71445 33.3305 6.71445 29.6106 6.71445 26.9198 6.92835 24.8677 7.35614 23.4541 7.68473 22.3877 8.19622 21.5631 8.89061 20.9803 9.2998 20.6332 9.80509 20.4596 10.4065 20.4596 11.3365 20.4596 12.13 20.9648 12.7872 21.9754 13.7544 23.4634 14.238 25.9526 14.238 29.4432 14.238 33.1197 13.7637 35.705 12.8151 37.1992 12.1951 38.185 11.4202 38.6779 10.4902 38.6779ZM39.1149 19.5575C40.4913 19.5575 41.8615 19.1204 43.2255 18.2462 44.5956 17.3782 45.6527 16.1103 46.3967 14.4426 47.1407 12.7748 47.5127 10.9459 47.5127 8.95571 47.5127 5.52098 46.6881 2.89844 45.0389 1.08808 43.396-0.722284 41.4523-1.62746 39.2079-1.62746 37.7944-1.62746 36.4211-1.19037 35.0881-0.316193 33.7614 0.551788 32.7167 1.79486 31.9541 3.41303 31.1915 5.03119 30.8102 6.87875 30.8102 8.95571 30.8102 10.9893 31.1915 12.8461 31.9541 14.5263 32.7167 16.2126 33.7614 17.4712 35.0881 18.302 36.4211 19.139 37.7634 19.5575 39.1149 19.5575ZM39.1428 18.023C38.2129 18.023 37.41 17.4991 36.7342 16.4513 35.86 15.0936 35.4229 12.5268 35.4229 8.75111 35.4229 5.27919 35.8693 2.85504 36.7621 1.47867 37.4193 0.492889 38.2129 0 39.1428 0 40.0356 0 40.8323 0.533188 41.5329 1.59957 42.4629 3.01313 42.9279 5.44348 42.9279 8.89061 42.9279 12.5361 42.4629 15.0843 41.5329 16.535 40.8943 17.527 40.0976 18.023 39.1428 18.023Z" transform="matrix(1.00014 0 0 -1 1327.11 1426.64)"/><path d="M0 0-16.0243 0" stroke="#000000" stroke-width="3.66269" stroke-linejoin="round" fill="none" transform="matrix(1.00014 0 0 1 1408.75 1202.91)"/><path d="M26.6811 40.2216 26.6811 39.1428C24.1206 38.8949 22.0312 38.3865 20.4131 37.6177 18.7949 36.8551 17.1953 35.6895 15.6144 34.121 14.0396 32.5524 12.7345 30.804 11.6991 28.8759 10.6638 26.9477 9.79579 24.6569 9.0952 22.0033 11.8851 23.9191 14.6844 24.877 17.4929 24.877 20.1899 24.877 22.5241 23.792 24.4957 21.622 26.4734 19.4521 27.4623 16.6621 27.4623 13.2522 27.4623 9.96008 26.4641 6.95625 24.4678 4.24071 22.0684 0.948579 18.891-0.697485 14.9355-0.697485 12.2447-0.697485 9.96008 0.195296 8.08152 1.98086 4.3988 5.44658 2.55744 9.94148 2.55744 15.4656 2.55744 18.9871 3.26423 22.335 4.6778 25.5093 6.09137 28.6899 8.10942 31.5108 10.732 33.9722 13.3607 36.4335 15.8748 38.0889 18.2741 38.9383 20.6797 39.7938 22.9209 40.2216 24.9979 40.2216L26.6811 40.2216ZM8.60231 19.883C8.25512 17.2666 8.08152 15.1525 8.08152 13.5405 8.08152 11.6805 8.42562 9.65939 9.1138 7.47704 9.80199 5.30088 10.8219 3.57422 12.1734 2.29705 13.1654 1.38567 14.3682 0.92998 15.7818 0.92998 17.4681 0.92998 18.9747 1.72356 20.3015 3.31073 21.6282 4.90409 22.2916 7.17324 22.2916 10.1182 22.2916 13.4289 21.6313 16.2932 20.3108 18.7112 18.9964 21.1353 17.1271 22.3474 14.703 22.3474 13.9714 22.3474 13.184 22.1924 12.3408 21.8824 11.4977 21.5724 10.2515 20.9059 8.60231 19.883Z" transform="matrix(1.00014 0 0 -1 1252.7 1223.58)"/><path d="M7.43984 5.63568C8.35122 5.63568 9.1169 5.31948 9.73689 4.6871 10.3569 4.06091 10.6669 3.30143 10.6669 2.40865 10.6669 1.52207 10.3507 0.762583 9.71829 0.130197 9.0921-0.502189 8.33262-0.818382 7.43984-0.818382 6.54706-0.818382 5.78447-0.502189 5.15209 0.130197 4.5259 0.762583 4.21281 1.52207 4.21281 2.40865 4.21281 3.32003 4.5259 4.08571 5.15209 4.7057 5.78447 5.32568 6.54706 5.63568 7.43984 5.63568Z" transform="matrix(1.00014 0 0 -1 1282.47 1223.58)"/><path d="M2.14825 19.4738C2.14825 23.9687 2.82714 27.8374 4.18491 31.0799 5.54268 34.3287 7.34374 36.7466 9.58809 38.3338 11.3365 39.5923 13.1406 40.2216 15.0006 40.2216 18.0199 40.2216 20.7323 38.681 23.1379 35.5996 26.1386 31.7867 27.639 26.6129 27.639 20.0783 27.639 15.509 26.9787 11.6247 25.6581 8.42562 24.3438 5.23269 22.6636 2.91394 20.6177 1.46937 18.5779 0.0247995 16.6063-0.697485 14.703-0.697485 10.9459-0.697485 7.81803 1.52207 5.31948 5.96117 3.20533 9.69969 2.14825 14.2039 2.14825 19.4738ZM7.84903 18.7484C7.84903 13.3235 8.51552 8.89681 9.84849 5.46828 10.9583 2.57914 12.6074 1.13458 14.796 1.13458 15.8376 1.13458 16.9194 1.60267 18.0416 2.53884 19.17 3.48122 20.0256 5.05599 20.6084 7.26314 21.4949 10.5987 21.9382 15.2982 21.9382 21.3616 21.9382 25.8565 21.4732 29.6044 20.5433 32.6051 19.8489 34.837 18.9499 36.418 17.8463 37.348 17.0527 37.9866 16.0918 38.3059 14.9634 38.3059 13.649 38.3059 12.4772 37.7138 11.4481 36.5296 10.0531 34.9238 9.1045 32.3943 8.60231 28.941 8.10012 25.4938 7.84903 22.0963 7.84903 18.7484Z" transform="matrix(1.00014 0 0 -1 1297.35 1223.58)"/><path d="M40.4541 40.3053 11.7456-1.62746 9.151-1.62746 37.8688 40.3053 40.4541 40.3053ZM10.5832 40.3053C13.1933 40.3053 15.2207 39.2203 16.6652 37.0504 18.1098 34.8804 18.8321 32.3912 18.8321 29.5827 18.8321 26.2161 18.0168 23.6122 16.3862 21.7708 14.7619 19.9295 12.8058 19.0088 10.5181 19.0088 8.9867 19.0088 7.58244 19.4304 6.30526 20.2736 5.02809 21.1167 4.00511 22.3691 3.23633 24.0307 2.47375 25.6984 2.09245 27.5491 2.09245 29.5827 2.09245 31.6162 2.47995 33.4917 3.25493 35.209 4.02991 36.9264 5.09009 38.2036 6.43546 39.0406 7.78083 39.8837 9.1634 40.3053 10.5832 40.3053ZM10.4902 38.6779C9.50439 38.6779 8.62711 38.0951 7.85833 36.9295 7.09575 35.7701 6.71445 33.3305 6.71445 29.6106 6.71445 26.9198 6.92835 24.8677 7.35614 23.4541 7.68473 22.3877 8.19622 21.5631 8.89061 20.9803 9.2998 20.6332 9.80509 20.4596 10.4065 20.4596 11.3365 20.4596 12.13 20.9648 12.7872 21.9754 13.7544 23.4634 14.238 25.9526 14.238 29.4432 14.238 33.1197 13.7637 35.705 12.8151 37.1992 12.1951 38.185 11.4202 38.6779 10.4902 38.6779ZM39.1149 19.5575C40.4913 19.5575 41.8615 19.1204 43.2255 18.2462 44.5956 17.3782 45.6527 16.1103 46.3967 14.4426 47.1407 12.7748 47.5127 10.9459 47.5127 8.95571 47.5127 5.52098 46.6881 2.89844 45.0389 1.08808 43.396-0.722284 41.4523-1.62746 39.2079-1.62746 37.7944-1.62746 36.4211-1.19037 35.0881-0.316193 33.7614 0.551788 32.7167 1.79486 31.9541 3.41303 31.1915 5.03119 30.8102 6.87875 30.8102 8.95571 30.8102 10.9893 31.1915 12.8461 31.9541 14.5263 32.7167 16.2126 33.7614 17.4712 35.0881 18.302 36.4211 19.139 37.7634 19.5575 39.1149 19.5575ZM39.1428 18.023C38.2129 18.023 37.41 17.4991 36.7342 16.4513 35.86 15.0936 35.4229 12.5268 35.4229 8.75111 35.4229 5.27919 35.8693 2.85504 36.7621 1.47867 37.4193 0.492889 38.2129 0 39.1428 0 40.0356 0 40.8323 0.533188 41.5329 1.59957 42.4629 3.01313 42.9279 5.44348 42.9279 8.89061 42.9279 12.5361 42.4629 15.0843 41.5329 16.535 40.8943 17.527 40.0976 18.023 39.1428 18.023Z" transform="matrix(1.00014 0 0 -1 1327.11 1223.58)"/><path d="M0 0-16.0243 0" stroke="#000000" stroke-width="3.66269" stroke-linejoin="round" fill="none" transform="matrix(1.00014 0 0 1 1408.75 999.852)"/><path d="M11.4202 19.8458C8.30162 22.4063 6.28976 24.4616 5.38458 26.0115 4.4856 27.5615 4.03611 29.1704 4.03611 30.8381 4.03611 33.3925 5.02499 35.5934 7.00275 37.441 8.9805 39.2947 11.6061 40.2216 14.8797 40.2216 18.0602 40.2216 20.6177 39.3598 22.552 37.6363 24.4926 35.9127 25.4628 33.9474 25.4628 31.7402 25.4628 30.2646 24.939 28.7612 23.8912 27.2298 22.8434 25.6984 20.6642 23.8974 17.3534 21.8266 20.7633 19.1917 23.0201 17.1178 24.1237 15.6051 25.593 13.6273 26.3277 11.5441 26.3277 9.3556 26.3277 6.58426 25.2707 4.21591 23.1565 2.25055 21.0485 0.285194 18.2803-0.697485 14.8518-0.697485 11.1133-0.697485 8.19622 0.47429 6.10067 2.81784 4.4391 4.6964 3.60832 6.75165 3.60832 8.9836 3.60832 10.7258 4.19421 12.4524 5.36598 14.1636 6.53776 15.881 8.55581 17.775 11.4202 19.8458ZM15.9864 22.9612C18.3113 25.0506 19.7838 26.6997 20.4038 27.9087 21.0237 29.1239 21.3337 30.4971 21.3337 32.0285 21.3337 34.0621 20.7602 35.6554 19.6133 36.8086 18.4725 37.9618 16.9132 38.5384 14.9355 38.5384 12.9639 38.5384 11.3582 37.9649 10.1182 36.8179 8.87821 35.6771 8.25822 34.3411 8.25822 32.8097 8.25822 31.8053 8.51241 30.7978 9.0208 29.7873 9.53539 28.7829 10.267 27.825 11.2156 26.9136L15.9864 22.9612ZM12.7872 18.7484C11.1815 17.3906 9.99108 15.912 9.2161 14.3124 8.44112 12.7128 8.05363 10.9831 8.05363 9.1231 8.05363 6.62456 8.73561 4.6251 10.0996 3.12473 11.4636 1.62436 13.2026 0.874181 15.3168 0.874181 17.4061 0.874181 19.0801 1.46317 20.3387 2.64114 21.6034 3.82532 22.2358 5.26059 22.2358 6.94695 22.2358 8.34192 21.8669 9.59119 21.1291 10.6948 19.7528 12.7469 16.9721 15.4315 12.7872 18.7484Z" transform="matrix(1.00014 0 0 -1 1252.7 1020.52)"/><path d="M7.43984 5.63568C8.35122 5.63568 9.1169 5.31948 9.73689 4.6871 10.3569 4.06091 10.6669 3.30143 10.6669 2.40865 10.6669 1.52207 10.3507 0.762583 9.71829 0.130197 9.0921-0.502189 8.33262-0.818382 7.43984-0.818382 6.54706-0.818382 5.78447-0.502189 5.15209 0.130197 4.5259 0.762583 4.21281 1.52207 4.21281 2.40865 4.21281 3.32003 4.5259 4.08571 5.15209 4.7057 5.78447 5.32568 6.54706 5.63568 7.43984 5.63568Z" transform="matrix(1.00014 0 0 -1 1282.47 1020.52)"/><path d="M2.14825 19.4738C2.14825 23.9687 2.82714 27.8374 4.18491 31.0799 5.54268 34.3287 7.34374 36.7466 9.58809 38.3338 11.3365 39.5923 13.1406 40.2216 15.0006 40.2216 18.0199 40.2216 20.7323 38.681 23.1379 35.5996 26.1386 31.7867 27.639 26.6129 27.639 20.0783 27.639 15.509 26.9787 11.6247 25.6581 8.42562 24.3438 5.23269 22.6636 2.91394 20.6177 1.46937 18.5779 0.0247995 16.6063-0.697485 14.703-0.697485 10.9459-0.697485 7.81803 1.52207 5.31948 5.96117 3.20533 9.69969 2.14825 14.2039 2.14825 19.4738ZM7.84903 18.7484C7.84903 13.3235 8.51552 8.89681 9.84849 5.46828 10.9583 2.57914 12.6074 1.13458 14.796 1.13458 15.8376 1.13458 16.9194 1.60267 18.0416 2.53884 19.17 3.48122 20.0256 5.05599 20.6084 7.26314 21.4949 10.5987 21.9382 15.2982 21.9382 21.3616 21.9382 25.8565 21.4732 29.6044 20.5433 32.6051 19.8489 34.837 18.9499 36.418 17.8463 37.348 17.0527 37.9866 16.0918 38.3059 14.9634 38.3059 13.649 38.3059 12.4772 37.7138 11.4481 36.5296 10.0531 34.9238 9.1045 32.3943 8.60231 28.941 8.10012 25.4938 7.84903 22.0963 7.84903 18.7484Z" transform="matrix(1.00014 0 0 -1 1297.35 1020.52)"/><path d="M40.4541 40.3053 11.7456-1.62746 9.151-1.62746 37.8688 40.3053 40.4541 40.3053ZM10.5832 40.3053C13.1933 40.3053 15.2207 39.2203 16.6652 37.0504 18.1098 34.8804 18.8321 32.3912 18.8321 29.5827 18.8321 26.2161 18.0168 23.6122 16.3862 21.7708 14.7619 19.9295 12.8058 19.0088 10.5181 19.0088 8.9867 19.0088 7.58244 19.4304 6.30526 20.2736 5.02809 21.1167 4.00511 22.3691 3.23633 24.0307 2.47375 25.6984 2.09245 27.5491 2.09245 29.5827 2.09245 31.6162 2.47995 33.4917 3.25493 35.209 4.02991 36.9264 5.09009 38.2036 6.43546 39.0406 7.78083 39.8837 9.1634 40.3053 10.5832 40.3053ZM10.4902 38.6779C9.50439 38.6779 8.62711 38.0951 7.85833 36.9295 7.09575 35.7701 6.71445 33.3305 6.71445 29.6106 6.71445 26.9198 6.92835 24.8677 7.35614 23.4541 7.68473 22.3877 8.19622 21.5631 8.89061 20.9803 9.2998 20.6332 9.80509 20.4596 10.4065 20.4596 11.3365 20.4596 12.13 20.9648 12.7872 21.9754 13.7544 23.4634 14.238 25.9526 14.238 29.4432 14.238 33.1197 13.7637 35.705 12.8151 37.1992 12.1951 38.185 11.4202 38.6779 10.4902 38.6779ZM39.1149 19.5575C40.4913 19.5575 41.8615 19.1204 43.2255 18.2462 44.5956 17.3782 45.6527 16.1103 46.3967 14.4426 47.1407 12.7748 47.5127 10.9459 47.5127 8.95571 47.5127 5.52098 46.6881 2.89844 45.0389 1.08808 43.396-0.722284 41.4523-1.62746 39.2079-1.62746 37.7944-1.62746 36.4211-1.19037 35.0881-0.316193 33.7614 0.551788 32.7167 1.79486 31.9541 3.41303 31.1915 5.03119 30.8102 6.87875 30.8102 8.95571 30.8102 10.9893 31.1915 12.8461 31.9541 14.5263 32.7167 16.2126 33.7614 17.4712 35.0881 18.302 36.4211 19.139 37.7634 19.5575 39.1149 19.5575ZM39.1428 18.023C38.2129 18.023 37.41 17.4991 36.7342 16.4513 35.86 15.0936 35.4229 12.5268 35.4229 8.75111 35.4229 5.27919 35.8693 2.85504 36.7621 1.47867 37.4193 0.492889 38.2129 0 39.1428 0 40.0356 0 40.8323 0.533188 41.5329 1.59957 42.4629 3.01313 42.9279 5.44348 42.9279 8.89061 42.9279 12.5361 42.4629 15.0843 41.5329 16.535 40.8943 17.527 40.0976 18.023 39.1428 18.023Z" transform="matrix(1.00014 0 0 -1 1327.11 1020.52)"/><path d="M0 0-16.0243 0" stroke="#000000" stroke-width="3.66269" stroke-linejoin="round" fill="none" transform="matrix(1.00014 0 0 1 1408.75 796.792)"/><path d="M6.97485 35.5438 16.5629 40.2216 17.5208 40.2216 17.5208 6.94695C17.5208 4.7398 17.6138 3.36343 17.7998 2.81784 17.9858 2.27845 18.3671 1.86306 18.9437 1.57167 19.5265 1.28027 20.7106 1.11598 22.4962 1.07878L22.4962 0 7.67233 0 7.67233 1.07878C9.53229 1.11598 10.732 1.27407 11.2714 1.55307 11.8169 1.83826 12.1951 2.21645 12.4059 2.68764 12.6229 3.16503 12.7314 4.5848 12.7314 6.94695L12.7314 28.2156C12.7314 31.0861 12.6353 32.9275 12.4431 33.7397 12.3067 34.3597 12.0587 34.8153 11.6991 35.1067 11.3396 35.3981 10.9087 35.5438 10.4065 35.5438 9.68729 35.5438 8.68911 35.2431 7.41194 34.6417L6.97485 35.5438Z" transform="matrix(1.00014 0 0 -1 1222.94 817.456)"/><path d="M2.14825 19.4738C2.14825 23.9687 2.82714 27.8374 4.18491 31.0799 5.54268 34.3287 7.34374 36.7466 9.58809 38.3338 11.3365 39.5923 13.1406 40.2216 15.0006 40.2216 18.0199 40.2216 20.7323 38.681 23.1379 35.5996 26.1386 31.7867 27.639 26.6129 27.639 20.0783 27.639 15.509 26.9787 11.6247 25.6581 8.42562 24.3438 5.23269 22.6636 2.91394 20.6177 1.46937 18.5779 0.0247995 16.6063-0.697485 14.703-0.697485 10.9459-0.697485 7.81803 1.52207 5.31948 5.96117 3.20533 9.69969 2.14825 14.2039 2.14825 19.4738ZM7.84903 18.7484C7.84903 13.3235 8.51552 8.89681 9.84849 5.46828 10.9583 2.57914 12.6074 1.13458 14.796 1.13458 15.8376 1.13458 16.9194 1.60267 18.0416 2.53884 19.17 3.48122 20.0256 5.05599 20.6084 7.26314 21.4949 10.5987 21.9382 15.2982 21.9382 21.3616 21.9382 25.8565 21.4732 29.6044 20.5433 32.6051 19.8489 34.837 18.9499 36.418 17.8463 37.348 17.0527 37.9866 16.0918 38.3059 14.9634 38.3059 13.649 38.3059 12.4772 37.7138 11.4481 36.5296 10.0531 34.9238 9.1045 32.3943 8.60231 28.941 8.10012 25.4938 7.84903 22.0963 7.84903 18.7484Z" transform="matrix(1.00014 0 0 -1 1252.7 817.456)"/><path d="M7.43984 5.63568C8.35122 5.63568 9.1169 5.31948 9.73689 4.6871 10.3569 4.06091 10.6669 3.30143 10.6669 2.40865 10.6669 1.52207 10.3507 0.762583 9.71829 0.130197 9.0921-0.502189 8.33262-0.818382 7.43984-0.818382 6.54706-0.818382 5.78447-0.502189 5.15209 0.130197 4.5259 0.762583 4.21281 1.52207 4.21281 2.40865 4.21281 3.32003 4.5259 4.08571 5.15209 4.7057 5.78447 5.32568 6.54706 5.63568 7.43984 5.63568Z" transform="matrix(1.00014 0 0 -1 1282.47 817.456)"/><path d="M2.14825 19.4738C2.14825 23.9687 2.82714 27.8374 4.18491 31.0799 5.54268 34.3287 7.34374 36.7466 9.58809 38.3338 11.3365 39.5923 13.1406 40.2216 15.0006 40.2216 18.0199 40.2216 20.7323 38.681 23.1379 35.5996 26.1386 31.7867 27.639 26.6129 27.639 20.0783 27.639 15.509 26.9787 11.6247 25.6581 8.42562 24.3438 5.23269 22.6636 2.91394 20.6177 1.46937 18.5779 0.0247995 16.6063-0.697485 14.703-0.697485 10.9459-0.697485 7.81803 1.52207 5.31948 5.96117 3.20533 9.69969 2.14825 14.2039 2.14825 19.4738ZM7.84903 18.7484C7.84903 13.3235 8.51552 8.89681 9.84849 5.46828 10.9583 2.57914 12.6074 1.13458 14.796 1.13458 15.8376 1.13458 16.9194 1.60267 18.0416 2.53884 19.17 3.48122 20.0256 5.05599 20.6084 7.26314 21.4949 10.5987 21.9382 15.2982 21.9382 21.3616 21.9382 25.8565 21.4732 29.6044 20.5433 32.6051 19.8489 34.837 18.9499 36.418 17.8463 37.348 17.0527 37.9866 16.0918 38.3059 14.9634 38.3059 13.649 38.3059 12.4772 37.7138 11.4481 36.5296 10.0531 34.9238 9.1045 32.3943 8.60231 28.941 8.10012 25.4938 7.84903 22.0963 7.84903 18.7484Z" transform="matrix(1.00014 0 0 -1 1297.35 817.456)"/><path d="M40.4541 40.3053 11.7456-1.62746 9.151-1.62746 37.8688 40.3053 40.4541 40.3053ZM10.5832 40.3053C13.1933 40.3053 15.2207 39.2203 16.6652 37.0504 18.1098 34.8804 18.8321 32.3912 18.8321 29.5827 18.8321 26.2161 18.0168 23.6122 16.3862 21.7708 14.7619 19.9295 12.8058 19.0088 10.5181 19.0088 8.9867 19.0088 7.58244 19.4304 6.30526 20.2736 5.02809 21.1167 4.00511 22.3691 3.23633 24.0307 2.47375 25.6984 2.09245 27.5491 2.09245 29.5827 2.09245 31.6162 2.47995 33.4917 3.25493 35.209 4.02991 36.9264 5.09009 38.2036 6.43546 39.0406 7.78083 39.8837 9.1634 40.3053 10.5832 40.3053ZM10.4902 38.6779C9.50439 38.6779 8.62711 38.0951 7.85833 36.9295 7.09575 35.7701 6.71445 33.3305 6.71445 29.6106 6.71445 26.9198 6.92835 24.8677 7.35614 23.4541 7.68473 22.3877 8.19622 21.5631 8.89061 20.9803 9.2998 20.6332 9.80509 20.4596 10.4065 20.4596 11.3365 20.4596 12.13 20.9648 12.7872 21.9754 13.7544 23.4634 14.238 25.9526 14.238 29.4432 14.238 33.1197 13.7637 35.705 12.8151 37.1992 12.1951 38.185 11.4202 38.6779 10.4902 38.6779ZM39.1149 19.5575C40.4913 19.5575 41.8615 19.1204 43.2255 18.2462 44.5956 17.3782 45.6527 16.1103 46.3967 14.4426 47.1407 12.7748 47.5127 10.9459 47.5127 8.95571 47.5127 5.52098 46.6881 2.89844 45.0389 1.08808 43.396-0.722284 41.4523-1.62746 39.2079-1.62746 37.7944-1.62746 36.4211-1.19037 35.0881-0.316193 33.7614 0.551788 32.7167 1.79486 31.9541 3.41303 31.1915 5.03119 30.8102 6.87875 30.8102 8.95571 30.8102 10.9893 31.1915 12.8461 31.9541 14.5263 32.7167 16.2126 33.7614 17.4712 35.0881 18.302 36.4211 19.139 37.7634 19.5575 39.1149 19.5575ZM39.1428 18.023C38.2129 18.023 37.41 17.4991 36.7342 16.4513 35.86 15.0936 35.4229 12.5268 35.4229 8.75111 35.4229 5.27919 35.8693 2.85504 36.7621 1.47867 37.4193 0.492889 38.2129 0 39.1428 0 40.0356 0 40.8323 0.533188 41.5329 1.59957 42.4629 3.01313 42.9279 5.44348 42.9279 8.89061 42.9279 12.5361 42.4629 15.0843 41.5329 16.535 40.8943 17.527 40.0976 18.023 39.1428 18.023Z" transform="matrix(1.00014 0 0 -1 1327.11 817.456)"/><path d="M0 0-16.0243 0" stroke="#000000" stroke-width="3.66269" stroke-linejoin="round" fill="none" transform="matrix(1.00014 0 0 1 1408.75 593.733)"/><path d="M6.97485 35.5438 16.5629 40.2216 17.5208 40.2216 17.5208 6.94695C17.5208 4.7398 17.6138 3.36343 17.7998 2.81784 17.9858 2.27845 18.3671 1.86306 18.9437 1.57167 19.5265 1.28027 20.7106 1.11598 22.4962 1.07878L22.4962 0 7.67233 0 7.67233 1.07878C9.53229 1.11598 10.732 1.27407 11.2714 1.55307 11.8169 1.83826 12.1951 2.21645 12.4059 2.68764 12.6229 3.16503 12.7314 4.5848 12.7314 6.94695L12.7314 28.2156C12.7314 31.0861 12.6353 32.9275 12.4431 33.7397 12.3067 34.3597 12.0587 34.8153 11.6991 35.1067 11.3396 35.3981 10.9087 35.5438 10.4065 35.5438 9.68729 35.5438 8.68911 35.2431 7.41194 34.6417L6.97485 35.5438Z" transform="matrix(1.00014 0 0 -1 1222.94 614.397)"/><path d="M27.2856 7.58863 24.5329 0 1.28337 0 1.28337 1.07878C8.12182 7.31584 12.936 12.409 15.726 16.3583 18.5159 20.3139 19.9109 23.9284 19.9109 27.2019 19.9109 29.7005 19.1452 31.7526 17.6138 33.3584 16.0825 34.9703 14.2504 35.7763 12.1176 35.7763 10.1833 35.7763 8.44422 35.209 6.90045 34.0745 5.36288 32.9399 4.22521 31.2783 3.48742 29.0898L2.40865 29.0898C2.89844 32.6733 4.14461 35.4229 6.14717 37.3387 8.14972 39.2606 10.6545 40.2216 13.6614 40.2216 16.8543 40.2216 19.5203 39.1955 21.6592 37.1434 23.8044 35.0912 24.877 32.6702 24.877 29.8803 24.877 27.8839 24.412 25.8875 23.482 23.8912 22.0498 20.754 19.7249 17.4309 16.5071 13.9218 11.6836 8.65191 8.67051 5.47448 7.46774 4.3895L17.7533 4.3895C19.8489 4.3895 21.3182 4.467 22.1614 4.622 23.0046 4.777 23.7641 5.09009 24.4399 5.56128 25.1219 6.03867 25.7139 6.71445 26.2161 7.58863L27.2856 7.58863Z" transform="matrix(1.00014 0 0 -1 1252.7 614.397)"/><path d="M7.43984 5.63568C8.35122 5.63568 9.1169 5.31948 9.73689 4.6871 10.3569 4.06091 10.6669 3.30143 10.6669 2.40865 10.6669 1.52207 10.3507 0.762583 9.71829 0.130197 9.0921-0.502189 8.33262-0.818382 7.43984-0.818382 6.54706-0.818382 5.78447-0.502189 5.15209 0.130197 4.5259 0.762583 4.21281 1.52207 4.21281 2.40865 4.21281 3.32003 4.5259 4.08571 5.15209 4.7057 5.78447 5.32568 6.54706 5.63568 7.43984 5.63568Z" transform="matrix(1.00014 0 0 -1 1282.47 614.397)"/><path d="M2.14825 19.4738C2.14825 23.9687 2.82714 27.8374 4.18491 31.0799 5.54268 34.3287 7.34374 36.7466 9.58809 38.3338 11.3365 39.5923 13.1406 40.2216 15.0006 40.2216 18.0199 40.2216 20.7323 38.681 23.1379 35.5996 26.1386 31.7867 27.639 26.6129 27.639 20.0783 27.639 15.509 26.9787 11.6247 25.6581 8.42562 24.3438 5.23269 22.6636 2.91394 20.6177 1.46937 18.5779 0.0247995 16.6063-0.697485 14.703-0.697485 10.9459-0.697485 7.81803 1.52207 5.31948 5.96117 3.20533 9.69969 2.14825 14.2039 2.14825 19.4738ZM7.84903 18.7484C7.84903 13.3235 8.51552 8.89681 9.84849 5.46828 10.9583 2.57914 12.6074 1.13458 14.796 1.13458 15.8376 1.13458 16.9194 1.60267 18.0416 2.53884 19.17 3.48122 20.0256 5.05599 20.6084 7.26314 21.4949 10.5987 21.9382 15.2982 21.9382 21.3616 21.9382 25.8565 21.4732 29.6044 20.5433 32.6051 19.8489 34.837 18.9499 36.418 17.8463 37.348 17.0527 37.9866 16.0918 38.3059 14.9634 38.3059 13.649 38.3059 12.4772 37.7138 11.4481 36.5296 10.0531 34.9238 9.1045 32.3943 8.60231 28.941 8.10012 25.4938 7.84903 22.0963 7.84903 18.7484Z" transform="matrix(1.00014 0 0 -1 1297.35 614.397)"/><path d="M40.4541 40.3053 11.7456-1.62746 9.151-1.62746 37.8688 40.3053 40.4541 40.3053ZM10.5832 40.3053C13.1933 40.3053 15.2207 39.2203 16.6652 37.0504 18.1098 34.8804 18.8321 32.3912 18.8321 29.5827 18.8321 26.2161 18.0168 23.6122 16.3862 21.7708 14.7619 19.9295 12.8058 19.0088 10.5181 19.0088 8.9867 19.0088 7.58244 19.4304 6.30526 20.2736 5.02809 21.1167 4.00511 22.3691 3.23633 24.0307 2.47375 25.6984 2.09245 27.5491 2.09245 29.5827 2.09245 31.6162 2.47995 33.4917 3.25493 35.209 4.02991 36.9264 5.09009 38.2036 6.43546 39.0406 7.78083 39.8837 9.1634 40.3053 10.5832 40.3053ZM10.4902 38.6779C9.50439 38.6779 8.62711 38.0951 7.85833 36.9295 7.09575 35.7701 6.71445 33.3305 6.71445 29.6106 6.71445 26.9198 6.92835 24.8677 7.35614 23.4541 7.68473 22.3877 8.19622 21.5631 8.89061 20.9803 9.2998 20.6332 9.80509 20.4596 10.4065 20.4596 11.3365 20.4596 12.13 20.9648 12.7872 21.9754 13.7544 23.4634 14.238 25.9526 14.238 29.4432 14.238 33.1197 13.7637 35.705 12.8151 37.1992 12.1951 38.185 11.4202 38.6779 10.4902 38.6779ZM39.1149 19.5575C40.4913 19.5575 41.8615 19.1204 43.2255 18.2462 44.5956 17.3782 45.6527 16.1103 46.3967 14.4426 47.1407 12.7748 47.5127 10.9459 47.5127 8.95571 47.5127 5.52098 46.6881 2.89844 45.0389 1.08808 43.396-0.722284 41.4523-1.62746 39.2079-1.62746 37.7944-1.62746 36.4211-1.19037 35.0881-0.316193 33.7614 0.551788 32.7167 1.79486 31.9541 3.41303 31.1915 5.03119 30.8102 6.87875 30.8102 8.95571 30.8102 10.9893 31.1915 12.8461 31.9541 14.5263 32.7167 16.2126 33.7614 17.4712 35.0881 18.302 36.4211 19.139 37.7634 19.5575 39.1149 19.5575ZM39.1428 18.023C38.2129 18.023 37.41 17.4991 36.7342 16.4513 35.86 15.0936 35.4229 12.5268 35.4229 8.75111 35.4229 5.27919 35.8693 2.85504 36.7621 1.47867 37.4193 0.492889 38.2129 0 39.1428 0 40.0356 0 40.8323 0.533188 41.5329 1.59957 42.4629 3.01313 42.9279 5.44348 42.9279 8.89061 42.9279 12.5361 42.4629 15.0843 41.5329 16.535 40.8943 17.527 40.0976 18.023 39.1428 18.023Z" transform="matrix(1.00014 0 0 -1 1327.11 614.397)"/><path d="M27.2298 13.1964 11.9781 13.1964 9.2998 6.97485C8.64261 5.44348 8.31402 4.29961 8.31402 3.54322 8.31402 2.94184 8.59921 2.41485 9.1696 1.96226 9.73999 1.50967 10.9738 1.21517 12.8709 1.07878L12.8709 0 0.46499 0 0.46499 1.07878C2.11415 1.37017 3.18053 1.74836 3.66412 2.21335 4.6499 3.14333 5.74418 5.03119 6.94695 7.87693L20.8129 40.3053 21.8266 40.3053 35.5438 7.52354C36.6474 4.88859 37.6487 3.17743 38.5477 2.39005 39.4528 1.60887 40.7083 1.17177 42.3141 1.07878L42.3141 0 26.7648 0 26.7648 1.07878C28.3334 1.15317 29.3936 1.41357 29.9453 1.85996 30.4971 2.30635 30.773 2.84884 30.773 3.48742 30.773 4.34301 30.3855 5.68838 29.6106 7.52354L27.2298 13.1964ZM26.4207 15.3447 19.7342 31.2752 12.8709 15.3447 26.4207 15.3447Z" transform="matrix(6.12408e-17 -1 -1.00014 -6.12323e-17 1191.78 1366.76)"/><path d="M0.492889 26.6253 13.0197 26.6253 13.0197 25.5465 12.2106 25.5465C11.4543 25.5465 10.8777 25.3605 10.4809 24.9886 10.0841 24.6228 9.88568 24.1299 9.88568 23.5099 9.88568 22.8341 10.0872 22.0312 10.4902 21.1012L16.6838 6.39826 22.9054 21.6499C23.3456 22.7349 23.5657 23.5595 23.5657 24.1237 23.5657 24.3965 23.4882 24.6197 23.3332 24.7933 23.1224 25.0847 22.8527 25.2831 22.5241 25.3884 22.1955 25.4938 21.5259 25.5465 20.5154 25.5465L20.5154 26.6253 29.2107 26.6253 29.2107 25.5465C28.2001 25.4659 27.5026 25.2614 27.1182 24.9328 26.4362 24.3562 25.8255 23.389 25.2861 22.0312L15.8376-0.818382 14.6472-0.818382 5.14279 21.6499C4.715 22.6977 4.30581 23.4479 3.91522 23.9005 3.53082 24.3593 3.04103 24.7437 2.44585 25.0537 2.11105 25.2273 1.46007 25.3915 0.492889 25.5465L0.492889 26.6253Z" transform="matrix(6.12408e-17 -1 -1.00014 -6.12323e-17 1191.78 1328.17)"/><path d="M6.33316 16.5908C6.31456 12.6415 7.27554 9.54159 9.2161 7.29104 11.1505 5.04669 13.4258 3.92451 16.0422 3.92451 17.7843 3.92451 19.3002 4.4019 20.5898 5.35668 21.8793 6.31766 22.9612 7.96063 23.8354 10.2856L24.7282 9.70899C24.3252 7.05545 23.1441 4.6375 21.1849 2.45515 19.232 0.272794 16.783-0.818382 13.8381-0.818382 10.639-0.818382 7.90173 0.427791 5.62638 2.92014 3.35103 5.41248 2.21335 8.76041 2.21335 12.9639 2.21335 17.5146 3.37893 21.064 5.71008 23.6122 8.04743 26.1603 10.9769 27.4344 14.4984 27.4344 17.4867 27.4344 19.9388 26.4517 21.8545 24.4864 23.7703 22.521 24.7282 19.8892 24.7282 16.5908L6.33316 16.5908ZM6.33316 18.2834 18.6554 18.2834C18.5624 19.9884 18.3609 21.188 18.0509 21.8824 17.5673 22.9674 16.845 23.8199 15.8841 24.4399 14.9231 25.0599 13.9187 25.3698 12.8709 25.3698 11.2652 25.3698 9.82679 24.7437 8.55581 23.4913 7.29104 22.2451 6.55016 20.5092 6.33316 18.2834Z" transform="matrix(6.12408e-17 -1 -1.00014 -6.12323e-17 1191.78 1298.41)"/><path d="M9.65319 27.4065 9.65319 21.4174C11.8789 25.4101 14.1636 27.4065 16.5071 27.4065 17.5735 27.4065 18.4539 27.081 19.1483 26.43 19.8489 25.7852 20.1992 25.0351 20.1992 24.1795 20.1992 23.4231 19.945 22.7814 19.4366 22.2544 18.9344 21.7336 18.3361 21.4732 17.6417 21.4732 16.9659 21.4732 16.2064 21.808 15.3633 22.4776 14.5201 23.1472 13.8939 23.482 13.4847 23.482 13.1375 23.482 12.7593 23.2898 12.3501 22.9054 11.4822 22.1056 10.5832 20.7974 9.65319 18.9809L9.65319 6.22156C9.65319 4.746 9.83609 3.63002 10.2019 2.87364 10.4561 2.35285 10.9025 1.91886 11.541 1.57167 12.1796 1.22447 13.1003 1.05088 14.3031 1.05088L14.3031 0 0.669585 0 0.669585 1.05088C2.02736 1.05088 3.03483 1.26167 3.69202 1.68326 4.17561 1.99326 4.5135 2.48925 4.7057 3.17123 4.8049 3.49982 4.85449 4.4391 4.85449 5.98907L4.85449 16.3025C4.85449 19.4025 4.7894 21.2469 4.6592 21.8359 4.5352 22.4311 4.30271 22.862 3.96171 23.1286 3.62692 23.4014 3.20843 23.5378 2.70624 23.5378 2.10485 23.5378 1.42597 23.3921 0.669585 23.1007L0.381292 24.1516 8.42562 27.4065 9.65319 27.4065Z" transform="matrix(6.12408e-17 -1 -1.00014 -6.12323e-17 1191.78 1271.99)"/><path d="M16.9442 3.84082C14.2101 1.72666 12.4958 0.505289 11.8014 0.176696 10.7537-0.306893 9.63769-0.548688 8.45352-0.548688 6.61836-0.548688 5.10249 0.0805983 3.90592 1.33917 2.71554 2.59774 2.12035 4.25311 2.12035 6.30526 2.12035 7.60723 2.41175 8.73251 2.99453 9.68109 3.78812 10.9955 5.16759 12.2323 7.13295 13.3917 9.0983 14.5573 12.3687 15.974 16.9442 17.6417L16.9442 18.6833C16.9442 21.343 16.5226 23.1658 15.6795 24.1516 14.8363 25.1374 13.6118 25.6302 12.006 25.6302 10.7847 25.6302 9.81439 25.3017 9.0952 24.6445 8.35742 23.9873 7.98853 23.2309 7.98853 22.3753L8.05363 20.6921C8.05363 19.7993 7.82423 19.1111 7.36544 18.6275 6.91285 18.1439 6.31766 17.9021 5.57988 17.9021 4.86069 17.9021 4.27481 18.1532 3.82222 18.6554 3.36963 19.1638 3.14333 19.852 3.14333 20.7199 3.14333 22.3877 3.99581 23.9191 5.70078 25.3141 7.40574 26.709 9.79579 27.4065 12.8709 27.4065 15.2393 27.4065 17.1767 27.0097 18.6833 26.2161 19.8303 25.6147 20.6735 24.6755 21.2128 23.3983 21.5662 22.5613 21.7429 20.8563 21.7429 18.2834L21.7429 9.244C21.7429 6.70205 21.7894 5.14589 21.8824 4.5755 21.9816 4.00511 22.1428 3.62382 22.366 3.43163 22.5892 3.23943 22.8465 3.14333 23.1379 3.14333 23.4479 3.14333 23.7176 3.20843 23.947 3.33863 24.3562 3.59282 25.1405 4.30271 26.2998 5.46828L26.2998 3.84082C24.1299 0.93308 22.056-0.520789 20.0783-0.520789 19.1297-0.520789 18.3733-0.192196 17.8091 0.46499 17.2511 1.12218 16.9628 2.24745 16.9442 3.84082ZM16.9442 5.72868 16.9442 15.8655C14.0179 14.7061 12.13 13.8846 11.2807 13.401 9.74929 12.5454 8.65191 11.6526 7.98853 10.7227 7.33134 9.79269 7.00275 8.77591 7.00275 7.67233 7.00275 6.27736 7.41814 5.11799 8.24892 4.19421 9.0859 3.27663 10.0469 2.81784 11.1319 2.81784 12.6012 2.81784 14.5387 3.78812 16.9442 5.72868Z" transform="matrix(6.12408e-17 -1 -1.00014 -6.12323e-17 1191.78 1252.17)"/><path d="M8.9836 9.70899C7.35304 10.5026 6.10067 11.6092 5.22649 13.029 4.35851 14.455 3.92451 16.0298 3.92451 17.7533 3.92451 20.3883 4.91649 22.6543 6.90045 24.5515 8.89061 26.4548 11.4357 27.4065 14.5356 27.4065 17.0713 27.4065 19.2692 26.7865 21.1291 25.5465L26.7648 25.5465C27.6018 25.5465 28.0854 25.5217 28.2156 25.4721 28.352 25.4225 28.4512 25.3419 28.5132 25.2304 28.6248 25.0506 28.6806 24.7406 28.6806 24.3004 28.6806 23.792 28.6341 23.4417 28.5411 23.2495 28.4791 23.1503 28.3768 23.0728 28.2342 23.017 28.0916 22.9612 27.6018 22.9333 26.7648 22.9333L23.3053 22.9333C24.3903 21.5383 24.9328 19.7559 24.9328 17.5859 24.9328 15.106 23.9842 12.9825 22.087 11.2156 20.1899 9.45479 17.6417 8.57441 14.4426 8.57441 13.1282 8.57441 11.7828 8.76661 10.4065 9.151 9.55089 8.41942 8.97121 7.77773 8.66741 7.22594 8.36982 6.67416 8.22102 6.20297 8.22102 5.81237 8.22102 5.48378 8.38222 5.16449 8.70461 4.85449 9.027 4.5445 9.65319 4.32131 10.5832 4.18491 11.1226 4.11051 12.4772 4.04231 14.6472 3.98031 18.6399 3.88732 21.2252 3.75092 22.4032 3.57112 24.2074 3.32313 25.6457 2.65664 26.7183 1.57167 27.7971 0.486689 28.3365-0.852481 28.3365-2.44585 28.3365-4.6344 27.3104-6.68655 25.2583-8.60231 22.2327-11.4295 18.2896-12.843 13.4289-12.843 9.69039-12.843 6.53156-11.9998 3.95241-10.3135 2.50165-9.3463 1.77626-8.33882 1.77626-7.29104 1.77626-6.82605 1.88166-6.36106 2.09245-5.89607 2.42105-5.18309 3.09993-4.18801 4.12911-2.91084 4.26551-2.73104 5.25439-1.68326 7.09575 0.232495 6.08517 0.833882 5.37218 1.37017 4.95679 1.84136 4.5414 2.31875 4.33371 2.85814 4.33371 3.45952 4.33371 4.13531 4.6096 4.92889 5.16139 5.84027 5.71318 6.75165 6.98725 8.04123 8.9836 9.70899ZM14.0334 26.0115C12.6012 26.0115 11.4016 25.438 10.4344 24.2911 9.46719 23.1503 8.9836 21.3988 8.9836 19.0367 8.9836 15.974 9.64079 13.5994 10.9552 11.913 11.9657 10.6359 13.246 9.99728 14.796 9.99728 16.2653 9.99728 17.4743 10.5491 18.4229 11.6526 19.3715 12.7562 19.8458 14.4922 19.8458 16.8605 19.8458 19.9357 19.1793 22.3474 17.8463 24.0958 16.8543 25.3729 15.5834 26.0115 14.0334 26.0115ZM8.68601 0C7.78083-0.985779 7.09575-1.90336 6.63076-2.75274 6.16577-3.60832 5.93327-4.3957 5.93327-5.11489 5.93327-6.04487 6.49436-6.86015 7.61653-7.56074 9.55089-8.75731 12.3501-9.3556 16.0143-9.3556 19.4986-9.3556 22.0684-8.73871 23.7238-7.50494 25.3853-6.27736 26.2161-4.96609 26.2161-3.57112 26.2161-2.56674 25.7201-1.85066 24.7282-1.42287 23.7238-0.995078 21.7305-0.743984 18.7484-0.669585 14.3899-0.551788 11.0358-0.328593 8.68601 0Z" transform="matrix(6.12408e-17 -1 -1.00014 -6.12323e-17 1191.78 1225.76)"/><path d="M6.33316 16.5908C6.31456 12.6415 7.27554 9.54159 9.2161 7.29104 11.1505 5.04669 13.4258 3.92451 16.0422 3.92451 17.7843 3.92451 19.3002 4.4019 20.5898 5.35668 21.8793 6.31766 22.9612 7.96063 23.8354 10.2856L24.7282 9.70899C24.3252 7.05545 23.1441 4.6375 21.1849 2.45515 19.232 0.272794 16.783-0.818382 13.8381-0.818382 10.639-0.818382 7.90173 0.427791 5.62638 2.92014 3.35103 5.41248 2.21335 8.76041 2.21335 12.9639 2.21335 17.5146 3.37893 21.064 5.71008 23.6122 8.04743 26.1603 10.9769 27.4344 14.4984 27.4344 17.4867 27.4344 19.9388 26.4517 21.8545 24.4864 23.7703 22.521 24.7282 19.8892 24.7282 16.5908L6.33316 16.5908ZM6.33316 18.2834 18.6554 18.2834C18.5624 19.9884 18.3609 21.188 18.0509 21.8824 17.5673 22.9674 16.845 23.8199 15.8841 24.4399 14.9231 25.0599 13.9187 25.3698 12.8709 25.3698 11.2652 25.3698 9.82679 24.7437 8.55581 23.4913 7.29104 22.2451 6.55016 20.5092 6.33316 18.2834Z" transform="matrix(6.12408e-17 -1 -1.00014 -6.12323e-17 1191.78 1196)"/><path d="M6.33316 16.5908C6.31456 12.6415 7.27554 9.54159 9.2161 7.29104 11.1505 5.04669 13.4258 3.92451 16.0422 3.92451 17.7843 3.92451 19.3002 4.4019 20.5898 5.35668 21.8793 6.31766 22.9612 7.96063 23.8354 10.2856L24.7282 9.70899C24.3252 7.05545 23.1441 4.6375 21.1849 2.45515 19.232 0.272794 16.783-0.818382 13.8381-0.818382 10.639-0.818382 7.90173 0.427791 5.62638 2.92014 3.35103 5.41248 2.21335 8.76041 2.21335 12.9639 2.21335 17.5146 3.37893 21.064 5.71008 23.6122 8.04743 26.1603 10.9769 27.4344 14.4984 27.4344 17.4867 27.4344 19.9388 26.4517 21.8545 24.4864 23.7703 22.521 24.7282 19.8892 24.7282 16.5908L6.33316 16.5908ZM6.33316 18.2834 18.6554 18.2834C18.5624 19.9884 18.3609 21.188 18.0509 21.8824 17.5673 22.9674 16.845 23.8199 15.8841 24.4399 14.9231 25.0599 13.9187 25.3698 12.8709 25.3698 11.2652 25.3698 9.82679 24.7437 8.55581 23.4913 7.29104 22.2451 6.55016 20.5092 6.33316 18.2834Z" transform="matrix(6.12408e-17 -1 -1.00014 -6.12323e-17 1191.78 1154.7)"/><path d="M9.65319 27.4065 9.65319 21.4174C11.8789 25.4101 14.1636 27.4065 16.5071 27.4065 17.5735 27.4065 18.4539 27.081 19.1483 26.43 19.8489 25.7852 20.1992 25.0351 20.1992 24.1795 20.1992 23.4231 19.945 22.7814 19.4366 22.2544 18.9344 21.7336 18.3361 21.4732 17.6417 21.4732 16.9659 21.4732 16.2064 21.808 15.3633 22.4776 14.5201 23.1472 13.8939 23.482 13.4847 23.482 13.1375 23.482 12.7593 23.2898 12.3501 22.9054 11.4822 22.1056 10.5832 20.7974 9.65319 18.9809L9.65319 6.22156C9.65319 4.746 9.83609 3.63002 10.2019 2.87364 10.4561 2.35285 10.9025 1.91886 11.541 1.57167 12.1796 1.22447 13.1003 1.05088 14.3031 1.05088L14.3031 0 0.669585 0 0.669585 1.05088C2.02736 1.05088 3.03483 1.26167 3.69202 1.68326 4.17561 1.99326 4.5135 2.48925 4.7057 3.17123 4.8049 3.49982 4.85449 4.4391 4.85449 5.98907L4.85449 16.3025C4.85449 19.4025 4.7894 21.2469 4.6592 21.8359 4.5352 22.4311 4.30271 22.862 3.96171 23.1286 3.62692 23.4014 3.20843 23.5378 2.70624 23.5378 2.10485 23.5378 1.42597 23.3921 0.669585 23.1007L0.381292 24.1516 8.42562 27.4065 9.65319 27.4065Z" transform="matrix(6.12408e-17 -1 -1.00014 -6.12323e-17 1191.78 1128.28)"/><path d="M9.65319 27.4065 9.65319 21.4174C11.8789 25.4101 14.1636 27.4065 16.5071 27.4065 17.5735 27.4065 18.4539 27.081 19.1483 26.43 19.8489 25.7852 20.1992 25.0351 20.1992 24.1795 20.1992 23.4231 19.945 22.7814 19.4366 22.2544 18.9344 21.7336 18.3361 21.4732 17.6417 21.4732 16.9659 21.4732 16.2064 21.808 15.3633 22.4776 14.5201 23.1472 13.8939 23.482 13.4847 23.482 13.1375 23.482 12.7593 23.2898 12.3501 22.9054 11.4822 22.1056 10.5832 20.7974 9.65319 18.9809L9.65319 6.22156C9.65319 4.746 9.83609 3.63002 10.2019 2.87364 10.4561 2.35285 10.9025 1.91886 11.541 1.57167 12.1796 1.22447 13.1003 1.05088 14.3031 1.05088L14.3031 0 0.669585 0 0.669585 1.05088C2.02736 1.05088 3.03483 1.26167 3.69202 1.68326 4.17561 1.99326 4.5135 2.48925 4.7057 3.17123 4.8049 3.49982 4.85449 4.4391 4.85449 5.98907L4.85449 16.3025C4.85449 19.4025 4.7894 21.2469 4.6592 21.8359 4.5352 22.4311 4.30271 22.862 3.96171 23.1286 3.62692 23.4014 3.20843 23.5378 2.70624 23.5378 2.10485 23.5378 1.42597 23.3921 0.669585 23.1007L0.381292 24.1516 8.42562 27.4065 9.65319 27.4065Z" transform="matrix(6.12408e-17 -1 -1.00014 -6.12323e-17 1191.78 1108.46)"/><path d="M14.8797 27.4065C18.9096 27.4065 22.1459 25.8751 24.5887 22.8124 26.6594 20.1961 27.6948 17.1922 27.6948 13.8009 27.6948 11.4202 27.1213 9.0084 25.9743 6.56566 24.8336 4.12911 23.2619 2.28775 21.2593 1.04158 19.2568-0.198396 17.0248-0.818382 14.5635-0.818382 10.5522-0.818382 7.36544 0.781183 5.00329 3.98031 3.00693 6.67726 2.00876 9.69969 2.00876 13.0476 2.00876 15.4904 2.61324 17.9176 3.82222 20.3294 5.03119 22.7411 6.62456 24.5236 8.60231 25.6767 10.5801 26.8299 12.6725 27.4065 14.8797 27.4065ZM13.9776 25.5186C12.9546 25.5186 11.9223 25.2118 10.8808 24.598 9.84539 23.9904 9.0084 22.9209 8.36982 21.3895 7.73123 19.8582 7.41194 17.8928 7.41194 15.4935 7.41194 11.6185 8.18072 8.27372 9.71829 5.45898 11.2621 2.65044 13.2925 1.24617 15.8097 1.24617 17.6882 1.24617 19.2382 2.02116 20.4596 3.57112 21.6809 5.12109 22.2916 7.78703 22.2916 11.5689 22.2916 16.2932 21.2748 20.0132 19.2413 22.7287 17.8649 24.5887 16.1103 25.5186 13.9776 25.5186Z" transform="matrix(6.12408e-17 -1 -1.00014 -6.12323e-17 1191.78 1088.64)"/><path d="M9.65319 27.4065 9.65319 21.4174C11.8789 25.4101 14.1636 27.4065 16.5071 27.4065 17.5735 27.4065 18.4539 27.081 19.1483 26.43 19.8489 25.7852 20.1992 25.0351 20.1992 24.1795 20.1992 23.4231 19.945 22.7814 19.4366 22.2544 18.9344 21.7336 18.3361 21.4732 17.6417 21.4732 16.9659 21.4732 16.2064 21.808 15.3633 22.4776 14.5201 23.1472 13.8939 23.482 13.4847 23.482 13.1375 23.482 12.7593 23.2898 12.3501 22.9054 11.4822 22.1056 10.5832 20.7974 9.65319 18.9809L9.65319 6.22156C9.65319 4.746 9.83609 3.63002 10.2019 2.87364 10.4561 2.35285 10.9025 1.91886 11.541 1.57167 12.1796 1.22447 13.1003 1.05088 14.3031 1.05088L14.3031 0 0.669585 0 0.669585 1.05088C2.02736 1.05088 3.03483 1.26167 3.69202 1.68326 4.17561 1.99326 4.5135 2.48925 4.7057 3.17123 4.8049 3.49982 4.85449 4.4391 4.85449 5.98907L4.85449 16.3025C4.85449 19.4025 4.7894 21.2469 4.6592 21.8359 4.5352 22.4311 4.30271 22.862 3.96171 23.1286 3.62692 23.4014 3.20843 23.5378 2.70624 23.5378 2.10485 23.5378 1.42597 23.3921 0.669585 23.1007L0.381292 24.1516 8.42562 27.4065 9.65319 27.4065Z" transform="matrix(6.12408e-17 -1 -1.00014 -6.12323e-17 1191.78 1058.88)"/><g clip-path="url(#clip4)"><path d="M474.538 716.394 474.538 653.51" stroke="#333333" stroke-width="6.86754" stroke-linejoin="round" fill="none" transform="matrix(1.00014 0 0 1 1145 403.859)"/></g><g clip-path="url(#clip5)"><path d="M1081.23 603.553 1081.23 519.152" stroke="#333333" stroke-width="6.86754" stroke-linejoin="round" fill="none" transform="matrix(1.00014 0 0 1 1145 403.859)"/></g><g clip-path="url(#clip6)"><path d="M1687.91 419.251 1687.91 295.142" stroke="#333333" stroke-width="6.86754" stroke-linejoin="round" fill="none" transform="matrix(1.00014 0 0 1 1145 403.859)"/></g><g clip-path="url(#clip7)"><path d="M22.8918 0-22.8918 0" stroke="#333333" stroke-width="4.57836" stroke-linejoin="round" fill="none" transform="matrix(1.00014 0 0 1 1619.6 1120.25)"/><path d="M22.8918 0-22.8918 0" stroke="#333333" stroke-width="4.57836" stroke-linejoin="round" fill="none" transform="matrix(1.00014 0 0 1 2226.38 1007.41)"/><path d="M22.8918 0-22.8918 0" stroke="#333333" stroke-width="4.57836" stroke-linejoin="round" fill="none" transform="matrix(1.00014 0 0 1 2833.15 823.11)"/></g><g clip-path="url(#clip8)"><path d="M22.8918 0-22.8918 0" stroke="#333333" stroke-width="4.57836" stroke-linejoin="round" fill="none" transform="matrix(1.00014 0 0 1 1619.6 1057.37)"/><path d="M22.8918 0-22.8918 0" stroke="#333333" stroke-width="4.57836" stroke-linejoin="round" fill="none" transform="matrix(1.00014 0 0 1 2226.38 923.011)"/><path d="M22.8918 0-22.8918 0" stroke="#333333" stroke-width="4.57836" stroke-linejoin="round" fill="none" transform="matrix(1.00014 0 0 1 2833.15 699.001)"/></g><path d="M263.714 1408.23 263.714 189.874" stroke="#000000" stroke-width="3.66269" stroke-linecap="square" fill="none" transform="matrix(1.00014 0 0 1 1145 403.859)"/><path d="M1898.74 1408.23 1898.74 189.874" stroke="#000000" stroke-width="3.66269" stroke-linecap="square" fill="none" transform="matrix(1.00014 0 0 1 1145 403.859)"/><path d="M263.714 1408.23 1898.74 1408.23" stroke="#000000" stroke-width="3.66269" stroke-linecap="square" fill="none" transform="matrix(1.00014 0 0 1 1145 403.859)"/><path d="M263.714 189.874 1898.74 189.874" stroke="#000000" stroke-width="3.66269" stroke-linecap="square" fill="none" transform="matrix(1.00014 0 0 1 1145 403.859)"/><path d="M1620.5 660.5 2835.11 660.5" stroke="#000000" stroke-width="3.4375" stroke-miterlimit="8" fill="none" fill-rule="evenodd"/><path d="M1620.5 660.5 1620.5 675.676" stroke="#000000" stroke-width="3.4375" stroke-miterlimit="8" fill="none" fill-rule="evenodd"/><path d="M2835.5 660.5 2835.5 675.676" stroke="#000000" stroke-width="3.4375" stroke-miterlimit="8" fill="none" fill-rule="evenodd"/><text font-family="Times New Roman,Times New Roman_MSFontService,sans-serif" font-weight="400" font-size="55" transform="matrix(1 0 0 1 2185.51 663)">***</text><path d="M1620.5 883.5 1620.5 898.677" stroke="#000000" stroke-width="3.4375" stroke-miterlimit="8" fill="none" fill-rule="evenodd"/><path d="M2227.5 884.5 2227.5 899.677" stroke="#000000" stroke-width="3.4375" stroke-miterlimit="8" fill="none" fill-rule="evenodd"/><path d="M1620.5 883.5 2227.8 886.213" stroke="#000000" stroke-width="3.4375" stroke-miterlimit="8" fill="none" fill-rule="evenodd"/><text font-family="Times New Roman,Times New Roman_MSFontService,sans-serif" font-weight="400" font-size="55" transform="matrix(1 0 0 1 1881.86 887)">***</text></g></svg>