<svg width="2110" height="1585" xmlns="http://www.w3.org/2000/svg" xmlns:xlink="http://www.w3.org/1999/xlink" overflow="hidden"><defs><clipPath id="clip0"><rect x="1145" y="445" width="2110" height="1585"/></clipPath><clipPath id="clip1"><rect x="1408" y="635" width="1636" height="1220"/></clipPath><clipPath id="clip2"><rect x="1408" y="635" width="1636" height="1220"/></clipPath><clipPath id="clip3"><rect x="1408" y="635" width="1636" height="1220"/></clipPath><clipPath id="clip4"><rect x="1408" y="635" width="1636" height="1220"/></clipPath><clipPath id="clip5"><rect x="1408" y="635" width="1636" height="1220"/></clipPath><clipPath id="clip6"><rect x="1408" y="635" width="1636" height="1220"/></clipPath><clipPath id="clip7"><rect x="1408" y="635" width="1636" height="1220"/></clipPath><clipPath id="clip8"><rect x="1408" y="635" width="1636" height="1220"/></clipPath></defs><g clip-path="url(#clip0)" transform="translate(-1145 -445)"><path d="M0 1582.5 2110 1582.5 2110 0 0 0Z" fill="#FFFFFF" transform="matrix(1 0 0 1.00049 1145 445.86)"/><path d="M263.75 1408.43 1899 1408.43 1899 189.9 263.75 189.9Z" fill="#FFFFFF" transform="matrix(1 0 0 1.00049 1145 445.86)"/><g clip-path="url(#clip1)"><path d="M338.08 1408.43 611.127 1408.43 611.127 654.339 338.08 654.339Z" fill="#1F77B4" fill-opacity="0.7" transform="matrix(1 0 0 1.00049 1145 445.86)"/></g><g clip-path="url(#clip2)"><path d="M944.851 1408.43 1217.9 1408.43 1217.9 525.475 944.851 525.475Z" fill="#1F77B4" fill-opacity="0.7" transform="matrix(1 0 0 1.00049 1145 445.86)"/></g><g clip-path="url(#clip3)"><path d="M1551.62 1408.43 1824.67 1408.43 1824.67 312.623 1551.62 312.623Z" fill="#1F77B4" fill-opacity="0.7" transform="matrix(1 0 0 1.00049 1145 445.86)"/></g><path d="M0 0 0 16.0265" stroke="#000000" stroke-width="3.66319" stroke-linejoin="round" fill="none" transform="matrix(1 0 0 1.00049 1619.6 1854.98)"/><path d="M55.7228 39.418 55.7228 38.3391C54.6934 38.3391 53.8594 38.153 53.2208 37.781 52.5821 37.4151 51.9713 36.73 51.3885 35.7254 51.004 35.0434 50.3932 33.425 49.5562 30.8703L38.5716-0.902205 37.4089-0.902205 28.4241 24.3037 19.5044-0.902205 18.4533-0.902205 6.74328 31.8283C5.86898 34.2714 5.31712 35.7161 5.08769 36.1626 4.69705 36.8943 4.16688 37.4399 3.49721 37.7996 2.83373 38.1592 1.92842 38.3391 0.781291 38.3391L0.781291 39.418 15.3747 39.418 15.3747 38.3391 14.6771 38.3391C13.654 38.3391 12.8696 38.1065 12.3239 37.6415 11.7845 37.1764 11.5147 36.6152 11.5147 35.958 11.5147 35.2759 11.9395 33.7164 12.789 31.2795L20.5461 9.15226 27.094 27.959 25.9314 31.2795 25.0013 33.921C24.5921 34.8883 24.1363 35.7409 23.634 36.4788 23.3798 36.8447 23.0698 37.1547 22.7039 37.4089 22.2203 37.7562 21.7335 38.0073 21.2437 38.1623 20.8778 38.2801 20.2981 38.3391 19.5044 38.3391L19.5044 39.418 34.8511 39.418 34.8511 38.3391 33.8001 38.3391C32.715 38.3391 31.9213 38.1065 31.419 37.6415 30.9168 37.1764 30.6657 36.547 30.6657 35.7533 30.6657 34.7612 31.1028 33.0374 31.9771 30.5819L39.5296 9.15226 47.0263 30.8703C47.882 33.27 48.3098 34.9349 48.3098 35.865 48.3098 36.3114 48.1672 36.7269 47.882 37.1113 47.6029 37.502 47.2495 37.7748 46.8216 37.9298 46.09 38.2026 45.1319 38.3391 43.9476 38.3391L43.9476 39.418 55.7228 39.418Z" transform="matrix(1 0 0 -1.00049 1418.72 1928.4)"/><path d="M27.2894 7.58968 24.5362 0 1.28355 0 1.28355 1.07893C8.12294 7.31685 12.9378 12.4107 15.7281 16.3606 18.5184 20.3167 19.9136 23.9317 19.9136 27.2057 19.9136 29.7045 19.1478 31.757 17.6162 33.363 16.0847 34.9752 14.2524 35.7813 12.1193 35.7813 10.1847 35.7813 8.44538 35.2139 6.9014 34.0792 5.36362 32.9444 4.22579 31.2826 3.4879 29.0938L2.40898 29.0938C2.89884 32.6778 4.14518 35.4278 6.14801 37.3438 8.15085 39.2661 10.6559 40.2272 13.6633 40.2272 16.8567 40.2272 19.523 39.2009 21.6622 37.1485 23.8077 35.0961 24.8804 32.6747 24.8804 29.8844 24.8804 27.8877 24.4153 25.8911 23.4852 23.8945 22.0529 20.7569 19.7276 17.4333 16.5094 13.9237 11.6853 8.6531 8.67171 5.47524 7.46877 4.39011L17.7558 4.39011C19.8516 4.39011 21.3212 4.46762 22.1645 4.62264 23.0078 4.77765 23.7674 5.09079 24.4432 5.56205 25.1253 6.0395 25.7175 6.71538 26.2197 7.58968L27.2894 7.58968Z" transform="matrix(1 0 0 -1.00049 1474.91 1928.4)"/><path d="M42.2641 39.418 42.2641 38.3391C40.8689 38.0848 39.8117 37.6384 39.0924 36.9997 38.0693 36.051 37.1578 34.5969 36.3579 32.6375L22.6109-0.902205 21.5413-0.902205 6.77119 33.0746C6.0147 34.8232 5.48144 35.8898 5.1714 36.2742 4.68774 36.8757 4.09247 37.3438 3.38559 37.6787 2.67871 38.0197 1.7238 38.2398 0.52086 38.3391L0.52086 39.418 16.6303 39.418 16.6303 38.3391C14.8073 38.1654 13.623 37.8554 13.0773 37.4089 12.5379 36.9625 12.2681 36.392 12.2681 35.6975 12.2681 34.724 12.7146 33.2111 13.6075 31.1586L23.634 8.05474 32.9351 30.8703C33.8466 33.1149 34.3024 34.6744 34.3024 35.5487 34.3024 36.113 34.0202 36.6494 33.456 37.1578 32.8917 37.6725 31.943 38.0383 30.6099 38.2553 30.5106 38.2739 30.3463 38.3018 30.1169 38.3391L30.1169 39.418 42.2641 39.418Z" transform="matrix(1 0 0 -1.00049 1504.67 1928.4)"/><path d="M15.5514 4.10178 15.5514 18.6022 1.07893 18.6022 1.07893 20.9832 15.5514 20.9832 15.5514 35.4278 17.8767 35.4278 17.8767 20.9832 32.405 20.9832 32.405 18.6022 17.8767 18.6022 17.8767 4.10178 15.5514 4.10178Z" transform="matrix(1 0 0 -1.00049 1547.66 1928.4)"/><path d="M24.3595 0 9.12436 33.1676 9.12436 6.82699C9.12436 4.40871 9.38789 2.89884 9.91495 2.29737 10.628 1.48507 11.7597 1.07893 13.3098 1.07893L14.705 1.07893 14.705 0 0.985914 0 0.985914 1.07893 2.38108 1.07893C4.04907 1.07893 5.23341 1.58118 5.93409 2.5857 6.35574 3.20577 6.56656 4.61954 6.56656 6.82699L6.56656 32.5817C6.56656 34.3241 6.37434 35.5828 5.9899 36.3579 5.71706 36.9222 5.21791 37.3934 4.49242 37.7717 3.76694 38.1499 2.5981 38.3391 0.985914 38.3391L0.985914 39.418 12.1472 39.418 26.4523 8.57559 40.5155 39.418 51.6768 39.418 51.6768 38.3391 50.3095 38.3391C48.6291 38.3391 47.4386 37.8337 46.7379 36.823 46.3101 36.2029 46.0961 34.7891 46.0961 32.5817L46.0961 6.82699C46.0961 4.40871 46.369 2.89884 46.9146 2.29737 47.6277 1.48507 48.7594 1.07893 50.3095 1.07893L51.6768 1.07893 51.6768 0 34.9349 0 34.9349 1.07893 36.33 1.07893C38.0166 1.07893 39.2009 1.58118 39.883 2.5857 40.3047 3.20577 40.5155 4.61954 40.5155 6.82699L40.5155 33.1676 25.3175 0 24.3595 0Z" transform="matrix(1 0 0 -1.00049 1581.23 1928.4)"/><path d="M25.1966 26.629 25.1966 10.4916C25.1966 7.40986 25.2679 5.52484 25.4105 4.83656 25.5594 4.14828 25.7919 3.66773 26.1081 3.39489 26.4306 3.12826 26.8057 2.99495 27.2336 2.99495 27.835 2.99495 28.514 3.15927 29.2705 3.4879L29.6797 2.47409 21.7087-0.818495 20.4066-0.818495 20.4066 4.82726C18.1185 2.34697 16.373 0.784391 15.1701 0.139516 13.9733-0.499158 12.7053-0.818495 11.3659-0.818495 9.87155-0.818495 8.57559-0.387545 7.47807 0.474355 6.38674 1.34246 5.62715 2.45238 5.1993 3.80414 4.77765 5.1621 4.56683 7.08122 4.56683 9.56151L4.56683 21.4483C4.56683 22.707 4.43041 23.5782 4.15758 24.0619 3.88475 24.5518 3.4817 24.9269 2.94844 25.1873 2.41518 25.4478 1.45097 25.5687 0.0558065 25.5501L0.0558065 26.629 9.38479 26.629 9.38479 8.80812C9.38479 6.32783 9.81574 4.70015 10.6776 3.92506 11.5457 3.14997 12.5875 2.76242 13.8028 2.76242 14.6399 2.76242 15.5855 3.02285 16.6396 3.54371 17.6938 4.07077 18.9494 5.06909 20.4066 6.53866L20.4066 21.625C20.4066 23.138 20.1306 24.1611 19.5788 24.6944 19.0269 25.2276 17.8767 25.5129 16.1281 25.5501L16.1281 26.629 25.1966 26.629Z" transform="matrix(1 0 0 -1.00049 1634.16 1928.4)"/><path d="M11.0125 41.334 11.0125 6.0178C11.0125 4.3498 11.1334 3.24298 11.3752 2.69731 11.6232 2.15785 11.9984 1.7486 12.5007 1.46957 13.0029 1.19054 13.9423 1.05102 15.3189 1.05102L15.3189 0 2.26946 0 2.26946 1.05102C3.49101 1.05102 4.3219 1.17504 4.76215 1.42307 5.2086 1.67729 5.55895 2.09274 5.81317 2.66941 6.0674 3.25228 6.19452 4.36841 6.19452 6.0178L6.19452 30.2006C6.19452 33.2018 6.12631 35.0465 5.9899 35.7347 5.85348 36.423 5.63335 36.8912 5.32952 37.1392 5.03188 37.3934 4.65054 37.5206 4.18549 37.5206 3.68323 37.5206 3.04455 37.3655 2.26946 37.0555L1.77651 38.0786 9.71033 41.334 11.0125 41.334Z" transform="matrix(1 0 0 -1.00049 1663.92 1928.4)"/><path d="M9.58941 35.372 9.58941 26.629 15.8118 26.629 15.8118 24.5921 9.58941 24.5921 9.58941 7.32925C9.58941 5.59925 9.83744 4.43351 10.3335 3.83204 10.8296 3.23678 11.4651 2.93914 12.2402 2.93914 12.8789 2.93914 13.499 3.13756 14.1004 3.53441 14.7019 3.93126 15.167 4.51722 15.4956 5.29231L16.6303 5.29231C15.9483 3.39489 14.9871 1.96563 13.747 1.00452 12.5069 0.043405 11.2295-0.437151 9.91495-0.437151 9.02205-0.437151 8.14775-0.189122 7.29205 0.306936 6.44255 0.802993 5.81317 1.50988 5.40393 2.42758 5.00088 3.34529 4.79936 4.76525 4.79936 6.68748L4.79936 24.5921 0.585968 24.5921 0.585968 25.5501C1.64629 25.9779 2.73452 26.7003 3.85065 27.7172 4.96678 28.7341 5.95889 29.9402 6.82699 31.3353 7.27344 32.0732 7.89352 33.4188 8.68721 35.372L9.58941 35.372Z" transform="matrix(1 0 0 -1.00049 1680.46 1928.4)"/><path d="M8.6314 41.334C9.4437 41.334 10.1351 41.0457 10.7055 40.469 11.2822 39.8985 11.5705 39.2072 11.5705 38.3949 11.5705 37.5826 11.2822 36.885 10.7055 36.3021 10.1351 35.7192 9.4437 35.4278 8.6314 35.4278 7.81911 35.4278 7.12153 35.7192 6.53866 36.3021 5.95579 36.885 5.66436 37.5826 5.66436 38.3949 5.66436 39.2072 5.94959 39.8985 6.52006 40.469 7.09672 41.0457 7.80051 41.334 8.6314 41.334ZM11.0497 27.4103 11.0497 6.0178C11.0497 4.3498 11.1706 3.23988 11.4124 2.68801 11.6543 2.13615 12.0108 1.7238 12.482 1.45097 12.9595 1.18434 13.8276 1.05102 15.0864 1.05102L15.0864 0 2.14855 0 2.14855 1.05102C3.4507 1.05102 4.3219 1.17504 4.76215 1.42307 5.2086 1.67729 5.56205 2.09274 5.82248 2.66941 6.08911 3.25228 6.22242 4.36841 6.22242 6.0178L6.22242 16.2769C6.22242 19.1664 6.13561 21.0359 5.96199 21.8854 5.82558 22.5055 5.61165 22.9365 5.32022 23.1783 5.02878 23.4201 4.63194 23.541 4.12968 23.541 3.58402 23.541 2.92364 23.3953 2.14855 23.1039L1.7486 24.1549 9.76613 27.4103 11.0497 27.4103Z" transform="matrix(1 0 0 -1.00049 1697 1928.4)"/><path d="M34.4419 39.418 34.879 30.1727 33.7722 30.1727C33.5614 31.7973 33.2731 32.9599 32.9072 33.6606 32.3057 34.7829 31.5059 35.6107 30.5075 36.144 29.5092 36.6773 28.1947 36.9439 26.5639 36.9439L21.0111 36.9439 21.0111 6.82699C21.0111 4.40871 21.2747 2.89884 21.8017 2.29737 22.5396 1.48507 23.6712 1.07893 25.1966 1.07893L26.5639 1.07893 26.5639 0 9.84984 0 9.84984 1.07893 11.245 1.07893C12.913 1.07893 14.0973 1.58118 14.798 2.5857 15.2197 3.20577 15.4305 4.61954 15.4305 6.82699L15.4305 36.9439 10.6962 36.9439C8.85463 36.9439 7.54628 36.8075 6.77119 36.5346 5.76667 36.1688 4.90477 35.4619 4.18549 34.414 3.4662 33.3661 3.04145 31.9523 2.91124 30.1727L1.80441 30.1727 2.26946 39.418 34.4419 39.418Z" transform="matrix(1 0 0 -1.00049 1713.54 1928.4)"/><path d="M9.65452 27.4103 9.65452 21.4204C11.8806 25.4136 14.1655 27.4103 16.5094 27.4103 17.5759 27.4103 18.4564 27.0847 19.1509 26.4337 19.8516 25.7888 20.2019 25.0385 20.2019 24.1828 20.2019 23.4263 19.9477 22.7845 19.4393 22.2575 18.937 21.7366 18.3386 21.4762 17.6441 21.4762 16.9683 21.4762 16.2087 21.811 15.3654 22.4807 14.5221 23.1504 13.8958 23.4852 13.4866 23.4852 13.1393 23.4852 12.7611 23.293 12.3518 22.9086 11.4837 22.1087 10.5846 20.8003 9.65452 18.9835L9.65452 6.22242C9.65452 4.74665 9.83744 3.63052 10.2033 2.87403 10.4575 2.35317 10.904 1.91912 11.5426 1.57188 12.1813 1.22464 13.1021 1.05102 14.3051 1.05102L14.3051 0 0.669678 0 0.669678 1.05102C2.02764 1.05102 3.03525 1.26185 3.69253 1.6835 4.17618 1.99353 4.51412 2.48959 4.70635 3.17167 4.80556 3.50031 4.85516 4.43972 4.85516 5.9899L4.85516 16.3048C4.85516 19.4052 4.79006 21.2499 4.65984 21.8389 4.53583 22.4342 4.3033 22.8652 3.96226 23.1318 3.62742 23.4046 3.20887 23.541 2.70661 23.541 2.10514 23.541 1.42617 23.3953 0.669678 23.1039L0.381344 24.1549 8.42678 27.4103 9.65452 27.4103Z" transform="matrix(1 0 0 -1.00049 1747.82 1928.4)"/><path d="M6.33403 16.5931C6.31543 12.6433 7.27654 9.54291 9.21737 7.29205 11.152 5.04739 13.4277 3.92506 16.0444 3.92506 17.7868 3.92506 19.3028 4.40251 20.5926 5.35742 21.8823 6.31853 22.9644 7.96172 23.8387 10.287L24.7316 9.71033C24.3285 7.05642 23.1473 4.63814 21.1879 2.45548 19.2346 0.272832 16.7853-0.818495 13.84-0.818495 10.6404-0.818495 7.90282 0.42785 5.62715 2.92054 3.35149 5.41323 2.21366 8.76162 2.21366 12.9657 2.21366 17.517 3.37939 21.0669 5.71086 23.6154 8.04853 26.1639 10.9784 27.4382 14.5004 27.4382 17.4891 27.4382 19.9415 26.4554 21.8575 24.4897 23.7736 22.5241 24.7316 19.8919 24.7316 16.5931L6.33403 16.5931ZM6.33403 18.2859 18.658 18.2859C18.565 19.9911 18.3634 21.191 18.0534 21.8854 17.5697 22.9706 16.8474 23.8232 15.8862 24.4432 14.9251 25.0633 13.9206 25.3733 12.8727 25.3733 11.2667 25.3733 9.82814 24.7471 8.55699 23.4945 7.29205 22.2482 6.55106 20.512 6.33403 18.2859Z" transform="matrix(1 0 0 -1.00049 1767.64 1928.4)"/><path d="M6.33403 16.5931C6.31543 12.6433 7.27654 9.54291 9.21737 7.29205 11.152 5.04739 13.4277 3.92506 16.0444 3.92506 17.7868 3.92506 19.3028 4.40251 20.5926 5.35742 21.8823 6.31853 22.9644 7.96172 23.8387 10.287L24.7316 9.71033C24.3285 7.05642 23.1473 4.63814 21.1879 2.45548 19.2346 0.272832 16.7853-0.818495 13.84-0.818495 10.6404-0.818495 7.90282 0.42785 5.62715 2.92054 3.35149 5.41323 2.21366 8.76162 2.21366 12.9657 2.21366 17.517 3.37939 21.0669 5.71086 23.6154 8.04853 26.1639 10.9784 27.4382 14.5004 27.4382 17.4891 27.4382 19.9415 26.4554 21.8575 24.4897 23.7736 22.5241 24.7316 19.8919 24.7316 16.5931L6.33403 16.5931ZM6.33403 18.2859 18.658 18.2859C18.565 19.9911 18.3634 21.191 18.0534 21.8854 17.5697 22.9706 16.8474 23.8232 15.8862 24.4432 14.9251 25.0633 13.9206 25.3733 12.8727 25.3733 11.2667 25.3733 9.82814 24.7471 8.55699 23.4945 7.29205 22.2482 6.55106 20.512 6.33403 18.2859Z" transform="matrix(1 0 0 -1.00049 1794.06 1928.4)"/><path d="M0 0 0 16.0265" stroke="#000000" stroke-width="3.66319" stroke-linejoin="round" fill="none" transform="matrix(1 0 0 1.00049 2226.38 1854.98)"/><path d="M24.3595 0 9.12436 33.1676 9.12436 6.82699C9.12436 4.40871 9.38789 2.89884 9.91495 2.29737 10.628 1.48507 11.7597 1.07893 13.3098 1.07893L14.705 1.07893 14.705 0 0.985914 0 0.985914 1.07893 2.38108 1.07893C4.04907 1.07893 5.23341 1.58118 5.93409 2.5857 6.35574 3.20577 6.56656 4.61954 6.56656 6.82699L6.56656 32.5817C6.56656 34.3241 6.37434 35.5828 5.9899 36.3579 5.71706 36.9222 5.21791 37.3934 4.49242 37.7717 3.76694 38.1499 2.5981 38.3391 0.985914 38.3391L0.985914 39.418 12.1472 39.418 26.4523 8.57559 40.5155 39.418 51.6768 39.418 51.6768 38.3391 50.3095 38.3391C48.6291 38.3391 47.4386 37.8337 46.7379 36.823 46.3101 36.2029 46.0961 34.7891 46.0961 32.5817L46.0961 6.82699C46.0961 4.40871 46.369 2.89884 46.9146 2.29737 47.6277 1.48507 48.7594 1.07893 50.3095 1.07893L51.6768 1.07893 51.6768 0 34.9349 0 34.9349 1.07893 36.33 1.07893C38.0166 1.07893 39.2009 1.58118 39.883 2.5857 40.3047 3.20577 40.5155 4.61954 40.5155 6.82699L40.5155 33.1676 25.3175 0 24.3595 0Z" transform="matrix(1 0 0 -1.00049 2106.75 1928.4)"/><path d="M25.1966 26.629 25.1966 10.4916C25.1966 7.40986 25.2679 5.52484 25.4105 4.83656 25.5594 4.14828 25.7919 3.66773 26.1081 3.39489 26.4306 3.12826 26.8057 2.99495 27.2336 2.99495 27.835 2.99495 28.514 3.15927 29.2705 3.4879L29.6797 2.47409 21.7087-0.818495 20.4066-0.818495 20.4066 4.82726C18.1185 2.34697 16.373 0.784391 15.1701 0.139516 13.9733-0.499158 12.7053-0.818495 11.3659-0.818495 9.87155-0.818495 8.57559-0.387545 7.47807 0.474355 6.38674 1.34246 5.62715 2.45238 5.1993 3.80414 4.77765 5.1621 4.56683 7.08122 4.56683 9.56151L4.56683 21.4483C4.56683 22.707 4.43041 23.5782 4.15758 24.0619 3.88475 24.5518 3.4817 24.9269 2.94844 25.1873 2.41518 25.4478 1.45097 25.5687 0.0558065 25.5501L0.0558065 26.629 9.38479 26.629 9.38479 8.80812C9.38479 6.32783 9.81574 4.70015 10.6776 3.92506 11.5457 3.14997 12.5875 2.76242 13.8028 2.76242 14.6399 2.76242 15.5855 3.02285 16.6396 3.54371 17.6938 4.07077 18.9494 5.06909 20.4066 6.53866L20.4066 21.625C20.4066 23.138 20.1306 24.1611 19.5788 24.6944 19.0269 25.2276 17.8767 25.5129 16.1281 25.5501L16.1281 26.629 25.1966 26.629Z" transform="matrix(1 0 0 -1.00049 2159.68 1928.4)"/><path d="M11.0125 41.334 11.0125 6.0178C11.0125 4.3498 11.1334 3.24298 11.3752 2.69731 11.6232 2.15785 11.9984 1.7486 12.5007 1.46957 13.0029 1.19054 13.9423 1.05102 15.3189 1.05102L15.3189 0 2.26946 0 2.26946 1.05102C3.49101 1.05102 4.3219 1.17504 4.76215 1.42307 5.2086 1.67729 5.55895 2.09274 5.81317 2.66941 6.0674 3.25228 6.19452 4.36841 6.19452 6.0178L6.19452 30.2006C6.19452 33.2018 6.12631 35.0465 5.9899 35.7347 5.85348 36.423 5.63335 36.8912 5.32952 37.1392 5.03188 37.3934 4.65054 37.5206 4.18549 37.5206 3.68323 37.5206 3.04455 37.3655 2.26946 37.0555L1.77651 38.0786 9.71033 41.334 11.0125 41.334Z" transform="matrix(1 0 0 -1.00049 2189.44 1928.4)"/><path d="M9.58941 35.372 9.58941 26.629 15.8118 26.629 15.8118 24.5921 9.58941 24.5921 9.58941 7.32925C9.58941 5.59925 9.83744 4.43351 10.3335 3.83204 10.8296 3.23678 11.4651 2.93914 12.2402 2.93914 12.8789 2.93914 13.499 3.13756 14.1004 3.53441 14.7019 3.93126 15.167 4.51722 15.4956 5.29231L16.6303 5.29231C15.9483 3.39489 14.9871 1.96563 13.747 1.00452 12.5069 0.043405 11.2295-0.437151 9.91495-0.437151 9.02205-0.437151 8.14775-0.189122 7.29205 0.306936 6.44255 0.802993 5.81317 1.50988 5.40393 2.42758 5.00088 3.34529 4.79936 4.76525 4.79936 6.68748L4.79936 24.5921 0.585968 24.5921 0.585968 25.5501C1.64629 25.9779 2.73452 26.7003 3.85065 27.7172 4.96678 28.7341 5.95889 29.9402 6.82699 31.3353 7.27344 32.0732 7.89352 33.4188 8.68721 35.372L9.58941 35.372Z" transform="matrix(1 0 0 -1.00049 2205.98 1928.4)"/><path d="M8.6314 41.334C9.4437 41.334 10.1351 41.0457 10.7055 40.469 11.2822 39.8985 11.5705 39.2072 11.5705 38.3949 11.5705 37.5826 11.2822 36.885 10.7055 36.3021 10.1351 35.7192 9.4437 35.4278 8.6314 35.4278 7.81911 35.4278 7.12153 35.7192 6.53866 36.3021 5.95579 36.885 5.66436 37.5826 5.66436 38.3949 5.66436 39.2072 5.94959 39.8985 6.52006 40.469 7.09672 41.0457 7.80051 41.334 8.6314 41.334ZM11.0497 27.4103 11.0497 6.0178C11.0497 4.3498 11.1706 3.23988 11.4124 2.68801 11.6543 2.13615 12.0108 1.7238 12.482 1.45097 12.9595 1.18434 13.8276 1.05102 15.0864 1.05102L15.0864 0 2.14855 0 2.14855 1.05102C3.4507 1.05102 4.3219 1.17504 4.76215 1.42307 5.2086 1.67729 5.56205 2.09274 5.82248 2.66941 6.08911 3.25228 6.22242 4.36841 6.22242 6.0178L6.22242 16.2769C6.22242 19.1664 6.13561 21.0359 5.96199 21.8854 5.82558 22.5055 5.61165 22.9365 5.32022 23.1783 5.02878 23.4201 4.63194 23.541 4.12968 23.541 3.58402 23.541 2.92364 23.3953 2.14855 23.1039L1.7486 24.1549 9.76613 27.4103 11.0497 27.4103Z" transform="matrix(1 0 0 -1.00049 2222.52 1928.4)"/><path d="M34.4419 39.418 34.879 30.1727 33.7722 30.1727C33.5614 31.7973 33.2731 32.9599 32.9072 33.6606 32.3057 34.7829 31.5059 35.6107 30.5075 36.144 29.5092 36.6773 28.1947 36.9439 26.5639 36.9439L21.0111 36.9439 21.0111 6.82699C21.0111 4.40871 21.2747 2.89884 21.8017 2.29737 22.5396 1.48507 23.6712 1.07893 25.1966 1.07893L26.5639 1.07893 26.5639 0 9.84984 0 9.84984 1.07893 11.245 1.07893C12.913 1.07893 14.0973 1.58118 14.798 2.5857 15.2197 3.20577 15.4305 4.61954 15.4305 6.82699L15.4305 36.9439 10.6962 36.9439C8.85463 36.9439 7.54628 36.8075 6.77119 36.5346 5.76667 36.1688 4.90477 35.4619 4.18549 34.414 3.4662 33.3661 3.04145 31.9523 2.91124 30.1727L1.80441 30.1727 2.26946 39.418 34.4419 39.418Z" transform="matrix(1 0 0 -1.00049 2239.06 1928.4)"/><path d="M9.65452 27.4103 9.65452 21.4204C11.8806 25.4136 14.1655 27.4103 16.5094 27.4103 17.5759 27.4103 18.4564 27.0847 19.1509 26.4337 19.8516 25.7888 20.2019 25.0385 20.2019 24.1828 20.2019 23.4263 19.9477 22.7845 19.4393 22.2575 18.937 21.7366 18.3386 21.4762 17.6441 21.4762 16.9683 21.4762 16.2087 21.811 15.3654 22.4807 14.5221 23.1504 13.8958 23.4852 13.4866 23.4852 13.1393 23.4852 12.7611 23.293 12.3518 22.9086 11.4837 22.1087 10.5846 20.8003 9.65452 18.9835L9.65452 6.22242C9.65452 4.74665 9.83744 3.63052 10.2033 2.87403 10.4575 2.35317 10.904 1.91912 11.5426 1.57188 12.1813 1.22464 13.1021 1.05102 14.3051 1.05102L14.3051 0 0.669678 0 0.669678 1.05102C2.02764 1.05102 3.03525 1.26185 3.69253 1.6835 4.17618 1.99353 4.51412 2.48959 4.70635 3.17167 4.80556 3.50031 4.85516 4.43972 4.85516 5.9899L4.85516 16.3048C4.85516 19.4052 4.79006 21.2499 4.65984 21.8389 4.53583 22.4342 4.3033 22.8652 3.96226 23.1318 3.62742 23.4046 3.20887 23.541 2.70661 23.541 2.10514 23.541 1.42617 23.3953 0.669678 23.1039L0.381344 24.1549 8.42678 27.4103 9.65452 27.4103Z" transform="matrix(1 0 0 -1.00049 2273.33 1928.4)"/><path d="M6.33403 16.5931C6.31543 12.6433 7.27654 9.54291 9.21737 7.29205 11.152 5.04739 13.4277 3.92506 16.0444 3.92506 17.7868 3.92506 19.3028 4.40251 20.5926 5.35742 21.8823 6.31853 22.9644 7.96172 23.8387 10.287L24.7316 9.71033C24.3285 7.05642 23.1473 4.63814 21.1879 2.45548 19.2346 0.272832 16.7853-0.818495 13.84-0.818495 10.6404-0.818495 7.90282 0.42785 5.62715 2.92054 3.35149 5.41323 2.21366 8.76162 2.21366 12.9657 2.21366 17.517 3.37939 21.0669 5.71086 23.6154 8.04853 26.1639 10.9784 27.4382 14.5004 27.4382 17.4891 27.4382 19.9415 26.4554 21.8575 24.4897 23.7736 22.5241 24.7316 19.8919 24.7316 16.5931L6.33403 16.5931ZM6.33403 18.2859 18.658 18.2859C18.565 19.9911 18.3634 21.191 18.0534 21.8854 17.5697 22.9706 16.8474 23.8232 15.8862 24.4432 14.9251 25.0633 13.9206 25.3733 12.8727 25.3733 11.2667 25.3733 9.82814 24.7471 8.55699 23.4945 7.29205 22.2482 6.55106 20.512 6.33403 18.2859Z" transform="matrix(1 0 0 -1.00049 2293.16 1928.4)"/><path d="M6.33403 16.5931C6.31543 12.6433 7.27654 9.54291 9.21737 7.29205 11.152 5.04739 13.4277 3.92506 16.0444 3.92506 17.7868 3.92506 19.3028 4.40251 20.5926 5.35742 21.8823 6.31853 22.9644 7.96172 23.8387 10.287L24.7316 9.71033C24.3285 7.05642 23.1473 4.63814 21.1879 2.45548 19.2346 0.272832 16.7853-0.818495 13.84-0.818495 10.6404-0.818495 7.90282 0.42785 5.62715 2.92054 3.35149 5.41323 2.21366 8.76162 2.21366 12.9657 2.21366 17.517 3.37939 21.0669 5.71086 23.6154 8.04853 26.1639 10.9784 27.4382 14.5004 27.4382 17.4891 27.4382 19.9415 26.4554 21.8575 24.4897 23.7736 22.5241 24.7316 19.8919 24.7316 16.5931L6.33403 16.5931ZM6.33403 18.2859 18.658 18.2859C18.565 19.9911 18.3634 21.191 18.0534 21.8854 17.5697 22.9706 16.8474 23.8232 15.8862 24.4432 14.9251 25.0633 13.9206 25.3733 12.8727 25.3733 11.2667 25.3733 9.82814 24.7471 8.55699 23.4945 7.29205 22.2482 6.55106 20.512 6.33403 18.2859Z" transform="matrix(1 0 0 -1.00049 2319.58 1928.4)"/><path d="M0 0 0 16.0265" stroke="#000000" stroke-width="3.66319" stroke-linejoin="round" fill="none" transform="matrix(1 0 0 1.00049 2833.15 1854.98)"/><path d="M42.2641 39.418 42.2641 38.3391C40.8689 38.0848 39.8117 37.6384 39.0924 36.9997 38.0693 36.051 37.1578 34.5969 36.3579 32.6375L22.6109-0.902205 21.5413-0.902205 6.77119 33.0746C6.0147 34.8232 5.48144 35.8898 5.1714 36.2742 4.68774 36.8757 4.09247 37.3438 3.38559 37.6787 2.67871 38.0197 1.7238 38.2398 0.52086 38.3391L0.52086 39.418 16.6303 39.418 16.6303 38.3391C14.8073 38.1654 13.623 37.8554 13.0773 37.4089 12.5379 36.9625 12.2681 36.392 12.2681 35.6975 12.2681 34.724 12.7146 33.2111 13.6075 31.1586L23.634 8.05474 32.9351 30.8703C33.8466 33.1149 34.3024 34.6744 34.3024 35.5487 34.3024 36.113 34.0202 36.6494 33.456 37.1578 32.8917 37.6725 31.943 38.0383 30.6099 38.2553 30.5106 38.2739 30.3463 38.3018 30.1169 38.3391L30.1169 39.418 42.2641 39.418Z" transform="matrix(1 0 0 -1.00049 2768.63 1928.4)"/><path d="M27.2894 40.3109 27.2894 26.6848 26.2197 26.6848C25.8725 29.3015 25.2462 31.3849 24.3409 32.9351 23.4418 34.4853 22.1583 35.713 20.4903 36.6184 18.8223 37.5299 17.0985 37.9856 15.3189 37.9856 13.3036 37.9856 11.6357 37.3717 10.3149 36.144 9.00034 34.9163 8.34307 33.5149 8.34307 31.9399 8.34307 30.7432 8.75852 29.6487 9.58941 28.6566 10.7924 27.2057 13.6509 25.2679 18.165 22.8435 21.8482 20.8716 24.3626 19.3555 25.7082 18.2952 27.0537 17.2411 28.0893 15.9948 28.8147 14.5562 29.5464 13.1238 29.9123 11.6232 29.9123 10.0545 29.9123 7.07192 28.7527 4.49862 26.4337 2.33457 24.1208 0.176721 21.1414-0.902205 17.4953-0.902205 16.3544-0.902205 15.2786-0.815395 14.2679-0.641774 13.6726-0.542563 12.4293-0.189122 10.5381 0.418549 8.6469 1.03242 7.45016 1.33936 6.94791 1.33936 6.46425 1.33936 6.07981 1.19364 5.79457 0.902205 5.51554 0.610771 5.30782 0.00930108 5.1714-0.902205L4.10178-0.902205 4.10178 12.6123 5.1714 12.6123C5.67986 9.78474 6.35884 7.66719 7.20834 6.25963 8.06404 4.85826 9.36619 3.69253 11.1148 2.76242 12.8696 1.83231 14.7949 1.36726 16.8908 1.36726 19.309 1.36726 21.2189 2.00593 22.6202 3.28328 24.0278 4.56063 24.7316 6.07361 24.7316 7.82221 24.7316 8.78952 24.4649 9.76613 23.9317 10.752 23.4046 11.7442 22.5768 12.665 21.4483 13.5145 20.6918 14.0973 18.627 15.3313 15.2538 17.2163 11.8868 19.1075 9.4902 20.6143 8.06404 21.7366 6.64407 22.8652 5.56515 24.1053 4.82726 25.4571 4.08937 26.815 3.72043 28.3094 3.72043 29.9402 3.72043 32.7677 4.80556 35.2015 6.97581 37.2415 9.14606 39.2878 11.9085 40.3109 15.2631 40.3109 17.3527 40.3109 19.5695 39.7993 21.9133 38.7762 22.9985 38.2925 23.7643 38.0507 24.2107 38.0507 24.713 38.0507 25.1253 38.1995 25.4478 38.4972 25.7702 38.801 26.0275 39.4056 26.2197 40.3109L27.2894 40.3109Z" transform="matrix(1 0 0 -1.00049 2811.62 1928.4)"/><path d="M24.3595 0 9.12436 33.1676 9.12436 6.82699C9.12436 4.40871 9.38789 2.89884 9.91495 2.29737 10.628 1.48507 11.7597 1.07893 13.3098 1.07893L14.705 1.07893 14.705 0 0.985914 0 0.985914 1.07893 2.38108 1.07893C4.04907 1.07893 5.23341 1.58118 5.93409 2.5857 6.35574 3.20577 6.56656 4.61954 6.56656 6.82699L6.56656 32.5817C6.56656 34.3241 6.37434 35.5828 5.9899 36.3579 5.71706 36.9222 5.21791 37.3934 4.49242 37.7717 3.76694 38.1499 2.5981 38.3391 0.985914 38.3391L0.985914 39.418 12.1472 39.418 26.4523 8.57559 40.5155 39.418 51.6768 39.418 51.6768 38.3391 50.3095 38.3391C48.6291 38.3391 47.4386 37.8337 46.7379 36.823 46.3101 36.2029 46.0961 34.7891 46.0961 32.5817L46.0961 6.82699C46.0961 4.40871 46.369 2.89884 46.9146 2.29737 47.6277 1.48507 48.7594 1.07893 50.3095 1.07893L51.6768 1.07893 51.6768 0 34.9349 0 34.9349 1.07893 36.33 1.07893C38.0166 1.07893 39.2009 1.58118 39.883 2.5857 40.3047 3.20577 40.5155 4.61954 40.5155 6.82699L40.5155 33.1676 25.3175 0 24.3595 0Z" transform="matrix(1 0 0 -1.00049 2844.73 1928.4)"/><path d="M0 0-16.0265 0" stroke="#000000" stroke-width="3.66319" stroke-linejoin="round" fill="none" transform="matrix(1 0 0 1.00049 1408.75 1854.98)"/><path d="M2.14855 19.4765C2.14855 23.972 2.82753 27.8412 4.18549 31.0842 5.54344 34.3334 7.34475 36.7517 9.58941 38.3391 11.338 39.5978 13.1424 40.2272 15.0026 40.2272 18.0224 40.2272 20.7352 38.6863 23.1411 35.6045 26.1422 31.7911 27.6428 26.6166 27.6428 20.081 27.6428 15.5111 26.9824 11.6263 25.6617 8.42678 24.3471 5.23341 22.6667 2.91434 20.6205 1.46957 18.5805 0.0248029 16.6086-0.697581 14.705-0.697581 10.9474-0.697581 7.81911 1.52228 5.32022 5.96199 3.20577 9.70103 2.14855 14.2058 2.14855 19.4765ZM7.85011 18.751C7.85011 13.3253 8.51669 8.89803 9.84984 5.46903 10.9598 2.5795 12.6092 1.13473 14.798 1.13473 15.8397 1.13473 16.9218 1.60289 18.0441 2.53919 19.1726 3.4817 20.0283 5.05669 20.6112 7.26414 21.4979 10.6001 21.9412 15.3003 21.9412 21.3646 21.9412 25.8601 21.4762 29.6084 20.5461 32.6096 19.8516 34.8418 18.9525 36.423 17.8488 37.3531 17.0551 37.9918 16.094 38.3111 14.9654 38.3111 13.6509 38.3111 12.4789 37.719 11.4496 36.5346 10.0545 34.9287 9.10576 32.3988 8.6035 28.945 8.10124 25.4974 7.85011 22.0994 7.85011 18.751Z" transform="matrix(1 0 0 -1.00049 1252.7 1875.66)"/><path d="M7.44086 5.63645C8.35237 5.63645 9.11816 5.32022 9.73823 4.68774 10.3583 4.06147 10.6683 3.30188 10.6683 2.40898 10.6683 1.52228 10.3521 0.762689 9.71963 0.130215 9.09336-0.502258 8.33377-0.818495 7.44086-0.818495 6.54796-0.818495 5.78527-0.502258 5.1528 0.130215 4.52653 0.762689 4.21339 1.52228 4.21339 2.40898 4.21339 3.32049 4.52653 4.08627 5.1528 4.70635 5.78527 5.32642 6.54796 5.63645 7.44086 5.63645Z" transform="matrix(1 0 0 -1.00049 1282.47 1875.66)"/><path d="M2.14855 19.4765C2.14855 23.972 2.82753 27.8412 4.18549 31.0842 5.54344 34.3334 7.34475 36.7517 9.58941 38.3391 11.338 39.5978 13.1424 40.2272 15.0026 40.2272 18.0224 40.2272 20.7352 38.6863 23.1411 35.6045 26.1422 31.7911 27.6428 26.6166 27.6428 20.081 27.6428 15.5111 26.9824 11.6263 25.6617 8.42678 24.3471 5.23341 22.6667 2.91434 20.6205 1.46957 18.5805 0.0248029 16.6086-0.697581 14.705-0.697581 10.9474-0.697581 7.81911 1.52228 5.32022 5.96199 3.20577 9.70103 2.14855 14.2058 2.14855 19.4765ZM7.85011 18.751C7.85011 13.3253 8.51669 8.89803 9.84984 5.46903 10.9598 2.5795 12.6092 1.13473 14.798 1.13473 15.8397 1.13473 16.9218 1.60289 18.0441 2.53919 19.1726 3.4817 20.0283 5.05669 20.6112 7.26414 21.4979 10.6001 21.9412 15.3003 21.9412 21.3646 21.9412 25.8601 21.4762 29.6084 20.5461 32.6096 19.8516 34.8418 18.9525 36.423 17.8488 37.3531 17.0551 37.9918 16.094 38.3111 14.9654 38.3111 13.6509 38.3111 12.4789 37.719 11.4496 36.5346 10.0545 34.9287 9.10576 32.3988 8.6035 28.945 8.10124 25.4974 7.85011 22.0994 7.85011 18.751Z" transform="matrix(1 0 0 -1.00049 1297.35 1875.66)"/><path d="M40.4597 40.3109 11.7473-1.62769 9.15226-1.62769 37.874 40.3109 40.4597 40.3109ZM10.5846 40.3109C13.1951 40.3109 15.2228 39.2258 16.6675 37.0555 18.1123 34.8853 18.8347 32.3957 18.8347 29.5867 18.8347 26.2197 18.0193 23.6154 16.3885 21.7738 14.7639 19.9322 12.8076 19.0114 10.5195 19.0114 8.98794 19.0114 7.58348 19.4331 6.30613 20.2764 5.02878 21.1197 4.00566 22.3722 3.23678 24.034 2.47409 25.702 2.09274 27.5529 2.09274 29.5867 2.09274 31.6206 2.48029 33.4963 3.25538 35.2139 4.03047 36.9315 5.09079 38.2088 6.43635 39.0459 7.7819 39.8892 9.16466 40.3109 10.5846 40.3109ZM10.4916 38.6832C9.5057 38.6832 8.6283 38.1003 7.85941 36.9346 7.09672 35.7751 6.71538 33.3351 6.71538 29.6146 6.71538 26.9235 6.9293 24.8711 7.35715 23.4573 7.68579 22.3908 8.19735 21.5661 8.89183 20.9832 9.30108 20.636 9.80644 20.4624 10.4079 20.4624 11.338 20.4624 12.1317 20.9677 12.789 21.9785 13.7563 23.4666 14.24 25.9562 14.24 29.4472 14.24 33.1242 13.7656 35.7099 12.8169 37.2043 12.1968 38.1902 11.4217 38.6832 10.4916 38.6832ZM39.1203 19.5602C40.4969 19.5602 41.8673 19.123 43.2314 18.2487 44.6018 17.3806 45.659 16.1126 46.4031 14.4446 47.1472 12.7766 47.5192 10.9474 47.5192 8.95694 47.5192 5.52174 46.6945 2.89884 45.0451 1.08823 43.4019-0.722384 41.458-1.62769 39.2134-1.62769 37.7996-1.62769 36.4261-1.19054 35.093-0.316237 33.766 0.551864 32.7212 1.79511 31.9585 3.4135 31.1958 5.03188 30.8145 6.8797 30.8145 8.95694 30.8145 10.9908 31.1958 12.8479 31.9585 14.5283 32.7212 16.2149 33.766 17.4736 35.093 18.3045 36.4261 19.1416 37.7686 19.5602 39.1203 19.5602ZM39.1482 18.0255C38.2181 18.0255 37.4151 17.5015 36.7393 16.4536 35.865 15.0957 35.4278 12.5286 35.4278 8.75232 35.4278 5.27991 35.8743 2.85543 36.7672 1.47887 37.4244 0.492957 38.2181 0 39.1482 0 40.0411 0 40.8379 0.533262 41.5386 1.59979 42.4687 3.01355 42.9338 5.44423 42.9338 8.89183 42.9338 12.5379 42.4687 15.0864 41.5386 16.5373 40.8999 17.5294 40.1032 18.0255 39.1482 18.0255Z" transform="matrix(1 0 0 -1.00049 1327.11 1875.66)"/><path d="M0 0-16.0265 0" stroke="#000000" stroke-width="3.66319" stroke-linejoin="round" fill="none" transform="matrix(1 0 0 1.00049 1408.75 1643.17)"/><path d="M27.2894 7.58968 24.5362 0 1.28355 0 1.28355 1.07893C8.12294 7.31685 12.9378 12.4107 15.7281 16.3606 18.5184 20.3167 19.9136 23.9317 19.9136 27.2057 19.9136 29.7045 19.1478 31.757 17.6162 33.363 16.0847 34.9752 14.2524 35.7813 12.1193 35.7813 10.1847 35.7813 8.44538 35.2139 6.9014 34.0792 5.36362 32.9444 4.22579 31.2826 3.4879 29.0938L2.40898 29.0938C2.89884 32.6778 4.14518 35.4278 6.14801 37.3438 8.15085 39.2661 10.6559 40.2272 13.6633 40.2272 16.8567 40.2272 19.523 39.2009 21.6622 37.1485 23.8077 35.0961 24.8804 32.6747 24.8804 29.8844 24.8804 27.8877 24.4153 25.8911 23.4852 23.8945 22.0529 20.7569 19.7276 17.4333 16.5094 13.9237 11.6853 8.6531 8.67171 5.47524 7.46877 4.39011L17.7558 4.39011C19.8516 4.39011 21.3212 4.46762 22.1645 4.62264 23.0078 4.77765 23.7674 5.09079 24.4432 5.56205 25.1253 6.0395 25.7175 6.71538 26.2197 7.58968L27.2894 7.58968Z" transform="matrix(1 0 0 -1.00049 1252.7 1663.84)"/><path d="M7.44086 5.63645C8.35237 5.63645 9.11816 5.32022 9.73823 4.68774 10.3583 4.06147 10.6683 3.30188 10.6683 2.40898 10.6683 1.52228 10.3521 0.762689 9.71963 0.130215 9.09336-0.502258 8.33377-0.818495 7.44086-0.818495 6.54796-0.818495 5.78527-0.502258 5.1528 0.130215 4.52653 0.762689 4.21339 1.52228 4.21339 2.40898 4.21339 3.32049 4.52653 4.08627 5.1528 4.70635 5.78527 5.32642 6.54796 5.63645 7.44086 5.63645Z" transform="matrix(1 0 0 -1.00049 1282.47 1663.84)"/><path d="M2.14855 19.4765C2.14855 23.972 2.82753 27.8412 4.18549 31.0842 5.54344 34.3334 7.34475 36.7517 9.58941 38.3391 11.338 39.5978 13.1424 40.2272 15.0026 40.2272 18.0224 40.2272 20.7352 38.6863 23.1411 35.6045 26.1422 31.7911 27.6428 26.6166 27.6428 20.081 27.6428 15.5111 26.9824 11.6263 25.6617 8.42678 24.3471 5.23341 22.6667 2.91434 20.6205 1.46957 18.5805 0.0248029 16.6086-0.697581 14.705-0.697581 10.9474-0.697581 7.81911 1.52228 5.32022 5.96199 3.20577 9.70103 2.14855 14.2058 2.14855 19.4765ZM7.85011 18.751C7.85011 13.3253 8.51669 8.89803 9.84984 5.46903 10.9598 2.5795 12.6092 1.13473 14.798 1.13473 15.8397 1.13473 16.9218 1.60289 18.0441 2.53919 19.1726 3.4817 20.0283 5.05669 20.6112 7.26414 21.4979 10.6001 21.9412 15.3003 21.9412 21.3646 21.9412 25.8601 21.4762 29.6084 20.5461 32.6096 19.8516 34.8418 18.9525 36.423 17.8488 37.3531 17.0551 37.9918 16.094 38.3111 14.9654 38.3111 13.6509 38.3111 12.4789 37.719 11.4496 36.5346 10.0545 34.9287 9.10576 32.3988 8.6035 28.945 8.10124 25.4974 7.85011 22.0994 7.85011 18.751Z" transform="matrix(1 0 0 -1.00049 1297.35 1663.84)"/><path d="M40.4597 40.3109 11.7473-1.62769 9.15226-1.62769 37.874 40.3109 40.4597 40.3109ZM10.5846 40.3109C13.1951 40.3109 15.2228 39.2258 16.6675 37.0555 18.1123 34.8853 18.8347 32.3957 18.8347 29.5867 18.8347 26.2197 18.0193 23.6154 16.3885 21.7738 14.7639 19.9322 12.8076 19.0114 10.5195 19.0114 8.98794 19.0114 7.58348 19.4331 6.30613 20.2764 5.02878 21.1197 4.00566 22.3722 3.23678 24.034 2.47409 25.702 2.09274 27.5529 2.09274 29.5867 2.09274 31.6206 2.48029 33.4963 3.25538 35.2139 4.03047 36.9315 5.09079 38.2088 6.43635 39.0459 7.7819 39.8892 9.16466 40.3109 10.5846 40.3109ZM10.4916 38.6832C9.5057 38.6832 8.6283 38.1003 7.85941 36.9346 7.09672 35.7751 6.71538 33.3351 6.71538 29.6146 6.71538 26.9235 6.9293 24.8711 7.35715 23.4573 7.68579 22.3908 8.19735 21.5661 8.89183 20.9832 9.30108 20.636 9.80644 20.4624 10.4079 20.4624 11.338 20.4624 12.1317 20.9677 12.789 21.9785 13.7563 23.4666 14.24 25.9562 14.24 29.4472 14.24 33.1242 13.7656 35.7099 12.8169 37.2043 12.1968 38.1902 11.4217 38.6832 10.4916 38.6832ZM39.1203 19.5602C40.4969 19.5602 41.8673 19.123 43.2314 18.2487 44.6018 17.3806 45.659 16.1126 46.4031 14.4446 47.1472 12.7766 47.5192 10.9474 47.5192 8.95694 47.5192 5.52174 46.6945 2.89884 45.0451 1.08823 43.4019-0.722384 41.458-1.62769 39.2134-1.62769 37.7996-1.62769 36.4261-1.19054 35.093-0.316237 33.766 0.551864 32.7212 1.79511 31.9585 3.4135 31.1958 5.03188 30.8145 6.8797 30.8145 8.95694 30.8145 10.9908 31.1958 12.8479 31.9585 14.5283 32.7212 16.2149 33.766 17.4736 35.093 18.3045 36.4261 19.1416 37.7686 19.5602 39.1203 19.5602ZM39.1482 18.0255C38.2181 18.0255 37.4151 17.5015 36.7393 16.4536 35.865 15.0957 35.4278 12.5286 35.4278 8.75232 35.4278 5.27991 35.8743 2.85543 36.7672 1.47887 37.4244 0.492957 38.2181 0 39.1482 0 40.0411 0 40.8379 0.533262 41.5386 1.59979 42.4687 3.01355 42.9338 5.44423 42.9338 8.89183 42.9338 12.5379 42.4687 15.0864 41.5386 16.5373 40.8999 17.5294 40.1032 18.0255 39.1482 18.0255Z" transform="matrix(1 0 0 -1.00049 1327.11 1663.84)"/><path d="M0 0-16.0265 0" stroke="#000000" stroke-width="3.66319" stroke-linejoin="round" fill="none" transform="matrix(1 0 0 1.00049 1408.75 1431.35)"/><path d="M27.6986 14.5376 27.6986 10.4079 22.4063 10.4079 22.4063 0 17.6162 0 17.6162 10.4079 0.930108 10.4079 0.930108 14.1283 19.216 40.2272 22.4063 40.2272 22.4063 14.5376 27.6986 14.5376ZM17.6162 14.5376 17.6162 34.0978 3.77624 14.5376 17.6162 14.5376Z" transform="matrix(1 0 0 -1.00049 1252.7 1452.03)"/><path d="M7.44086 5.63645C8.35237 5.63645 9.11816 5.32022 9.73823 4.68774 10.3583 4.06147 10.6683 3.30188 10.6683 2.40898 10.6683 1.52228 10.3521 0.762689 9.71963 0.130215 9.09336-0.502258 8.33377-0.818495 7.44086-0.818495 6.54796-0.818495 5.78527-0.502258 5.1528 0.130215 4.52653 0.762689 4.21339 1.52228 4.21339 2.40898 4.21339 3.32049 4.52653 4.08627 5.1528 4.70635 5.78527 5.32642 6.54796 5.63645 7.44086 5.63645Z" transform="matrix(1 0 0 -1.00049 1282.47 1452.03)"/><path d="M2.14855 19.4765C2.14855 23.972 2.82753 27.8412 4.18549 31.0842 5.54344 34.3334 7.34475 36.7517 9.58941 38.3391 11.338 39.5978 13.1424 40.2272 15.0026 40.2272 18.0224 40.2272 20.7352 38.6863 23.1411 35.6045 26.1422 31.7911 27.6428 26.6166 27.6428 20.081 27.6428 15.5111 26.9824 11.6263 25.6617 8.42678 24.3471 5.23341 22.6667 2.91434 20.6205 1.46957 18.5805 0.0248029 16.6086-0.697581 14.705-0.697581 10.9474-0.697581 7.81911 1.52228 5.32022 5.96199 3.20577 9.70103 2.14855 14.2058 2.14855 19.4765ZM7.85011 18.751C7.85011 13.3253 8.51669 8.89803 9.84984 5.46903 10.9598 2.5795 12.6092 1.13473 14.798 1.13473 15.8397 1.13473 16.9218 1.60289 18.0441 2.53919 19.1726 3.4817 20.0283 5.05669 20.6112 7.26414 21.4979 10.6001 21.9412 15.3003 21.9412 21.3646 21.9412 25.8601 21.4762 29.6084 20.5461 32.6096 19.8516 34.8418 18.9525 36.423 17.8488 37.3531 17.0551 37.9918 16.094 38.3111 14.9654 38.3111 13.6509 38.3111 12.4789 37.719 11.4496 36.5346 10.0545 34.9287 9.10576 32.3988 8.6035 28.945 8.10124 25.4974 7.85011 22.0994 7.85011 18.751Z" transform="matrix(1 0 0 -1.00049 1297.35 1452.03)"/><path d="M40.4597 40.3109 11.7473-1.62769 9.15226-1.62769 37.874 40.3109 40.4597 40.3109ZM10.5846 40.3109C13.1951 40.3109 15.2228 39.2258 16.6675 37.0555 18.1123 34.8853 18.8347 32.3957 18.8347 29.5867 18.8347 26.2197 18.0193 23.6154 16.3885 21.7738 14.7639 19.9322 12.8076 19.0114 10.5195 19.0114 8.98794 19.0114 7.58348 19.4331 6.30613 20.2764 5.02878 21.1197 4.00566 22.3722 3.23678 24.034 2.47409 25.702 2.09274 27.5529 2.09274 29.5867 2.09274 31.6206 2.48029 33.4963 3.25538 35.2139 4.03047 36.9315 5.09079 38.2088 6.43635 39.0459 7.7819 39.8892 9.16466 40.3109 10.5846 40.3109ZM10.4916 38.6832C9.5057 38.6832 8.6283 38.1003 7.85941 36.9346 7.09672 35.7751 6.71538 33.3351 6.71538 29.6146 6.71538 26.9235 6.9293 24.8711 7.35715 23.4573 7.68579 22.3908 8.19735 21.5661 8.89183 20.9832 9.30108 20.636 9.80644 20.4624 10.4079 20.4624 11.338 20.4624 12.1317 20.9677 12.789 21.9785 13.7563 23.4666 14.24 25.9562 14.24 29.4472 14.24 33.1242 13.7656 35.7099 12.8169 37.2043 12.1968 38.1902 11.4217 38.6832 10.4916 38.6832ZM39.1203 19.5602C40.4969 19.5602 41.8673 19.123 43.2314 18.2487 44.6018 17.3806 45.659 16.1126 46.4031 14.4446 47.1472 12.7766 47.5192 10.9474 47.5192 8.95694 47.5192 5.52174 46.6945 2.89884 45.0451 1.08823 43.4019-0.722384 41.458-1.62769 39.2134-1.62769 37.7996-1.62769 36.4261-1.19054 35.093-0.316237 33.766 0.551864 32.7212 1.79511 31.9585 3.4135 31.1958 5.03188 30.8145 6.8797 30.8145 8.95694 30.8145 10.9908 31.1958 12.8479 31.9585 14.5283 32.7212 16.2149 33.766 17.4736 35.093 18.3045 36.4261 19.1416 37.7686 19.5602 39.1203 19.5602ZM39.1482 18.0255C38.2181 18.0255 37.4151 17.5015 36.7393 16.4536 35.865 15.0957 35.4278 12.5286 35.4278 8.75232 35.4278 5.27991 35.8743 2.85543 36.7672 1.47887 37.4244 0.492957 38.2181 0 39.1482 0 40.0411 0 40.8379 0.533262 41.5386 1.59979 42.4687 3.01355 42.9338 5.44423 42.9338 8.89183 42.9338 12.5379 42.4687 15.0864 41.5386 16.5373 40.8999 17.5294 40.1032 18.0255 39.1482 18.0255Z" transform="matrix(1 0 0 -1.00049 1327.11 1452.03)"/><path d="M0 0-16.0265 0" stroke="#000000" stroke-width="3.66319" stroke-linejoin="round" fill="none" transform="matrix(1 0 0 1.00049 1408.75 1219.54)"/><path d="M26.6848 40.2272 26.6848 39.1482C24.1239 38.9002 22.0343 38.3918 20.4159 37.6229 18.7975 36.8602 17.1977 35.6944 15.6165 34.1257 14.0415 32.5569 12.7363 30.8083 11.7008 28.8799 10.6652 26.9514 9.79714 24.6603 9.09646 22.0064 11.8868 23.9224 14.6864 24.8804 17.4953 24.8804 20.1926 24.8804 22.5272 23.7953 24.499 21.625 26.4771 19.4548 27.4661 16.6644 27.4661 13.254 27.4661 9.96146 26.4678 6.95721 24.4711 4.24129 22.0715 0.94871 18.8936-0.697581 14.9375-0.697581 12.2464-0.697581 9.96146 0.195323 8.08264 1.98113 4.39941 5.44733 2.5578 9.94285 2.5578 15.4677 2.5578 18.9897 3.26468 22.3381 4.67844 25.5129 6.09221 28.6938 8.11054 31.5152 10.7334 33.9768 13.3626 36.4385 15.8769 38.0941 18.2766 38.9436 20.6825 39.7993 22.9241 40.2272 25.0013 40.2272L26.6848 40.2272ZM8.6035 19.8857C8.25626 17.269 8.08264 15.1546 8.08264 13.5424 8.08264 11.6822 8.42678 9.66072 9.11506 7.47807 9.80334 5.30162 10.8234 3.57471 12.1751 2.29737 13.1672 1.38586 14.3702 0.930108 15.7839 0.930108 17.4705 0.930108 18.9773 1.7238 20.3043 3.31118 21.6312 4.90477 22.2947 7.17423 22.2947 10.1196 22.2947 13.4308 21.6343 16.2955 20.3136 18.7138 18.999 21.1383 17.1295 22.3505 14.705 22.3505 13.9733 22.3505 13.1858 22.1955 12.3425 21.8854 11.4992 21.5754 10.2529 20.9088 8.6035 19.8857Z" transform="matrix(1 0 0 -1.00049 1252.7 1240.22)"/><path d="M7.44086 5.63645C8.35237 5.63645 9.11816 5.32022 9.73823 4.68774 10.3583 4.06147 10.6683 3.30188 10.6683 2.40898 10.6683 1.52228 10.3521 0.762689 9.71963 0.130215 9.09336-0.502258 8.33377-0.818495 7.44086-0.818495 6.54796-0.818495 5.78527-0.502258 5.1528 0.130215 4.52653 0.762689 4.21339 1.52228 4.21339 2.40898 4.21339 3.32049 4.52653 4.08627 5.1528 4.70635 5.78527 5.32642 6.54796 5.63645 7.44086 5.63645Z" transform="matrix(1 0 0 -1.00049 1282.47 1240.22)"/><path d="M2.14855 19.4765C2.14855 23.972 2.82753 27.8412 4.18549 31.0842 5.54344 34.3334 7.34475 36.7517 9.58941 38.3391 11.338 39.5978 13.1424 40.2272 15.0026 40.2272 18.0224 40.2272 20.7352 38.6863 23.1411 35.6045 26.1422 31.7911 27.6428 26.6166 27.6428 20.081 27.6428 15.5111 26.9824 11.6263 25.6617 8.42678 24.3471 5.23341 22.6667 2.91434 20.6205 1.46957 18.5805 0.0248029 16.6086-0.697581 14.705-0.697581 10.9474-0.697581 7.81911 1.52228 5.32022 5.96199 3.20577 9.70103 2.14855 14.2058 2.14855 19.4765ZM7.85011 18.751C7.85011 13.3253 8.51669 8.89803 9.84984 5.46903 10.9598 2.5795 12.6092 1.13473 14.798 1.13473 15.8397 1.13473 16.9218 1.60289 18.0441 2.53919 19.1726 3.4817 20.0283 5.05669 20.6112 7.26414 21.4979 10.6001 21.9412 15.3003 21.9412 21.3646 21.9412 25.8601 21.4762 29.6084 20.5461 32.6096 19.8516 34.8418 18.9525 36.423 17.8488 37.3531 17.0551 37.9918 16.094 38.3111 14.9654 38.3111 13.6509 38.3111 12.4789 37.719 11.4496 36.5346 10.0545 34.9287 9.10576 32.3988 8.6035 28.945 8.10124 25.4974 7.85011 22.0994 7.85011 18.751Z" transform="matrix(1 0 0 -1.00049 1297.35 1240.22)"/><path d="M40.4597 40.3109 11.7473-1.62769 9.15226-1.62769 37.874 40.3109 40.4597 40.3109ZM10.5846 40.3109C13.1951 40.3109 15.2228 39.2258 16.6675 37.0555 18.1123 34.8853 18.8347 32.3957 18.8347 29.5867 18.8347 26.2197 18.0193 23.6154 16.3885 21.7738 14.7639 19.9322 12.8076 19.0114 10.5195 19.0114 8.98794 19.0114 7.58348 19.4331 6.30613 20.2764 5.02878 21.1197 4.00566 22.3722 3.23678 24.034 2.47409 25.702 2.09274 27.5529 2.09274 29.5867 2.09274 31.6206 2.48029 33.4963 3.25538 35.2139 4.03047 36.9315 5.09079 38.2088 6.43635 39.0459 7.7819 39.8892 9.16466 40.3109 10.5846 40.3109ZM10.4916 38.6832C9.5057 38.6832 8.6283 38.1003 7.85941 36.9346 7.09672 35.7751 6.71538 33.3351 6.71538 29.6146 6.71538 26.9235 6.9293 24.8711 7.35715 23.4573 7.68579 22.3908 8.19735 21.5661 8.89183 20.9832 9.30108 20.636 9.80644 20.4624 10.4079 20.4624 11.338 20.4624 12.1317 20.9677 12.789 21.9785 13.7563 23.4666 14.24 25.9562 14.24 29.4472 14.24 33.1242 13.7656 35.7099 12.8169 37.2043 12.1968 38.1902 11.4217 38.6832 10.4916 38.6832ZM39.1203 19.5602C40.4969 19.5602 41.8673 19.123 43.2314 18.2487 44.6018 17.3806 45.659 16.1126 46.4031 14.4446 47.1472 12.7766 47.5192 10.9474 47.5192 8.95694 47.5192 5.52174 46.6945 2.89884 45.0451 1.08823 43.4019-0.722384 41.458-1.62769 39.2134-1.62769 37.7996-1.62769 36.4261-1.19054 35.093-0.316237 33.766 0.551864 32.7212 1.79511 31.9585 3.4135 31.1958 5.03188 30.8145 6.8797 30.8145 8.95694 30.8145 10.9908 31.1958 12.8479 31.9585 14.5283 32.7212 16.2149 33.766 17.4736 35.093 18.3045 36.4261 19.1416 37.7686 19.5602 39.1203 19.5602ZM39.1482 18.0255C38.2181 18.0255 37.4151 17.5015 36.7393 16.4536 35.865 15.0957 35.4278 12.5286 35.4278 8.75232 35.4278 5.27991 35.8743 2.85543 36.7672 1.47887 37.4244 0.492957 38.2181 0 39.1482 0 40.0411 0 40.8379 0.533262 41.5386 1.59979 42.4687 3.01355 42.9338 5.44423 42.9338 8.89183 42.9338 12.5379 42.4687 15.0864 41.5386 16.5373 40.8999 17.5294 40.1032 18.0255 39.1482 18.0255Z" transform="matrix(1 0 0 -1.00049 1327.11 1240.22)"/><path d="M0 0-16.0265 0" stroke="#000000" stroke-width="3.66319" stroke-linejoin="round" fill="none" transform="matrix(1 0 0 1.00049 1408.75 1007.73)"/><path d="M11.4217 19.8485C8.30276 22.4094 6.29063 24.4649 5.38532 26.0151 4.48622 27.5653 4.03667 29.1744 4.03667 30.8424 4.03667 33.3971 5.02568 35.5983 7.00371 37.4461 8.98174 39.3002 11.6077 40.2272 14.8817 40.2272 18.0627 40.2272 20.6205 39.3653 22.5551 37.6415 24.4959 35.9177 25.4664 33.952 25.4664 31.7446 25.4664 30.2688 24.9424 28.7651 23.8945 27.2336 22.8465 25.702 20.667 23.9007 17.3558 21.8296 20.7662 19.1943 23.0233 17.1202 24.127 15.6072 25.5966 13.6292 26.3314 11.5457 26.3314 9.35689 26.3314 6.58516 25.2741 4.21649 23.1597 2.25086 21.0514 0.285233 18.2828-0.697581 14.8538-0.697581 11.1148-0.697581 8.19735 0.474355 6.10151 2.81823 4.43972 4.69705 3.60882 6.75258 3.60882 8.98484 3.60882 10.7272 4.19479 12.4541 5.36672 14.1655 6.53866 15.8831 8.55699 17.7775 11.4217 19.8485ZM15.9886 22.9644C18.3138 25.054 19.7865 26.7034 20.4066 27.9125 21.0266 29.1279 21.3367 30.5013 21.3367 32.0329 21.3367 34.0668 20.7631 35.6603 19.616 36.8137 18.475 37.967 16.9156 38.5437 14.9375 38.5437 12.9657 38.5437 11.3597 37.9701 10.1196 36.823 8.87943 35.682 8.25936 34.3458 8.25936 32.8142 8.25936 31.8097 8.51359 30.8021 9.02205 29.7914 9.53671 28.7868 10.2684 27.8288 11.2171 26.9173L15.9886 22.9644ZM12.789 18.751C11.183 17.393 9.99246 15.9141 9.21737 14.3144 8.44228 12.7146 8.05474 10.9846 8.05474 9.12436 8.05474 6.62547 8.73681 4.62574 10.101 3.12516 11.4651 1.62459 13.2044 0.874301 15.3189 0.874301 17.4085 0.874301 19.0827 1.46337 20.3415 2.64151 21.6064 3.82584 22.2389 5.26131 22.2389 6.94791 22.2389 8.34307 21.8699 9.59251 21.1321 10.6962 19.7555 12.7487 16.9745 15.4336 12.789 18.751Z" transform="matrix(1 0 0 -1.00049 1252.7 1028.4)"/><path d="M7.44086 5.63645C8.35237 5.63645 9.11816 5.32022 9.73823 4.68774 10.3583 4.06147 10.6683 3.30188 10.6683 2.40898 10.6683 1.52228 10.3521 0.762689 9.71963 0.130215 9.09336-0.502258 8.33377-0.818495 7.44086-0.818495 6.54796-0.818495 5.78527-0.502258 5.1528 0.130215 4.52653 0.762689 4.21339 1.52228 4.21339 2.40898 4.21339 3.32049 4.52653 4.08627 5.1528 4.70635 5.78527 5.32642 6.54796 5.63645 7.44086 5.63645Z" transform="matrix(1 0 0 -1.00049 1282.47 1028.4)"/><path d="M2.14855 19.4765C2.14855 23.972 2.82753 27.8412 4.18549 31.0842 5.54344 34.3334 7.34475 36.7517 9.58941 38.3391 11.338 39.5978 13.1424 40.2272 15.0026 40.2272 18.0224 40.2272 20.7352 38.6863 23.1411 35.6045 26.1422 31.7911 27.6428 26.6166 27.6428 20.081 27.6428 15.5111 26.9824 11.6263 25.6617 8.42678 24.3471 5.23341 22.6667 2.91434 20.6205 1.46957 18.5805 0.0248029 16.6086-0.697581 14.705-0.697581 10.9474-0.697581 7.81911 1.52228 5.32022 5.96199 3.20577 9.70103 2.14855 14.2058 2.14855 19.4765ZM7.85011 18.751C7.85011 13.3253 8.51669 8.89803 9.84984 5.46903 10.9598 2.5795 12.6092 1.13473 14.798 1.13473 15.8397 1.13473 16.9218 1.60289 18.0441 2.53919 19.1726 3.4817 20.0283 5.05669 20.6112 7.26414 21.4979 10.6001 21.9412 15.3003 21.9412 21.3646 21.9412 25.8601 21.4762 29.6084 20.5461 32.6096 19.8516 34.8418 18.9525 36.423 17.8488 37.3531 17.0551 37.9918 16.094 38.3111 14.9654 38.3111 13.6509 38.3111 12.4789 37.719 11.4496 36.5346 10.0545 34.9287 9.10576 32.3988 8.6035 28.945 8.10124 25.4974 7.85011 22.0994 7.85011 18.751Z" transform="matrix(1 0 0 -1.00049 1297.35 1028.4)"/><path d="M40.4597 40.3109 11.7473-1.62769 9.15226-1.62769 37.874 40.3109 40.4597 40.3109ZM10.5846 40.3109C13.1951 40.3109 15.2228 39.2258 16.6675 37.0555 18.1123 34.8853 18.8347 32.3957 18.8347 29.5867 18.8347 26.2197 18.0193 23.6154 16.3885 21.7738 14.7639 19.9322 12.8076 19.0114 10.5195 19.0114 8.98794 19.0114 7.58348 19.4331 6.30613 20.2764 5.02878 21.1197 4.00566 22.3722 3.23678 24.034 2.47409 25.702 2.09274 27.5529 2.09274 29.5867 2.09274 31.6206 2.48029 33.4963 3.25538 35.2139 4.03047 36.9315 5.09079 38.2088 6.43635 39.0459 7.7819 39.8892 9.16466 40.3109 10.5846 40.3109ZM10.4916 38.6832C9.5057 38.6832 8.6283 38.1003 7.85941 36.9346 7.09672 35.7751 6.71538 33.3351 6.71538 29.6146 6.71538 26.9235 6.9293 24.8711 7.35715 23.4573 7.68579 22.3908 8.19735 21.5661 8.89183 20.9832 9.30108 20.636 9.80644 20.4624 10.4079 20.4624 11.338 20.4624 12.1317 20.9677 12.789 21.9785 13.7563 23.4666 14.24 25.9562 14.24 29.4472 14.24 33.1242 13.7656 35.7099 12.8169 37.2043 12.1968 38.1902 11.4217 38.6832 10.4916 38.6832ZM39.1203 19.5602C40.4969 19.5602 41.8673 19.123 43.2314 18.2487 44.6018 17.3806 45.659 16.1126 46.4031 14.4446 47.1472 12.7766 47.5192 10.9474 47.5192 8.95694 47.5192 5.52174 46.6945 2.89884 45.0451 1.08823 43.4019-0.722384 41.458-1.62769 39.2134-1.62769 37.7996-1.62769 36.4261-1.19054 35.093-0.316237 33.766 0.551864 32.7212 1.79511 31.9585 3.4135 31.1958 5.03188 30.8145 6.8797 30.8145 8.95694 30.8145 10.9908 31.1958 12.8479 31.9585 14.5283 32.7212 16.2149 33.766 17.4736 35.093 18.3045 36.4261 19.1416 37.7686 19.5602 39.1203 19.5602ZM39.1482 18.0255C38.2181 18.0255 37.4151 17.5015 36.7393 16.4536 35.865 15.0957 35.4278 12.5286 35.4278 8.75232 35.4278 5.27991 35.8743 2.85543 36.7672 1.47887 37.4244 0.492957 38.2181 0 39.1482 0 40.0411 0 40.8379 0.533262 41.5386 1.59979 42.4687 3.01355 42.9338 5.44423 42.9338 8.89183 42.9338 12.5379 42.4687 15.0864 41.5386 16.5373 40.8999 17.5294 40.1032 18.0255 39.1482 18.0255Z" transform="matrix(1 0 0 -1.00049 1327.11 1028.4)"/><path d="M0 0-16.0265 0" stroke="#000000" stroke-width="3.66319" stroke-linejoin="round" fill="none" transform="matrix(1 0 0 1.00049 1408.75 795.914)"/><path d="M6.97581 35.5487 16.5652 40.2272 17.5232 40.2272 17.5232 6.94791C17.5232 4.74045 17.6162 3.36389 17.8023 2.81823 17.9883 2.27876 18.3696 1.86332 18.9463 1.57188 19.5292 1.28045 20.7135 1.11613 22.4993 1.07893L22.4993 0 7.67339 0 7.67339 1.07893C9.53361 1.11613 10.7334 1.27425 11.2729 1.55328 11.8186 1.83851 12.1968 2.21676 12.4076 2.68801 12.6247 3.16547 12.7332 4.58543 12.7332 6.94791L12.7332 28.2195C12.7332 31.0904 12.6371 32.932 12.4448 33.7443 12.3084 34.3644 12.0604 34.8201 11.7008 35.1116 11.3411 35.403 10.9102 35.5487 10.4079 35.5487 9.68862 35.5487 8.69031 35.248 7.41296 34.6465L6.97581 35.5487Z" transform="matrix(1 0 0 -1.00049 1222.94 816.591)"/><path d="M2.14855 19.4765C2.14855 23.972 2.82753 27.8412 4.18549 31.0842 5.54344 34.3334 7.34475 36.7517 9.58941 38.3391 11.338 39.5978 13.1424 40.2272 15.0026 40.2272 18.0224 40.2272 20.7352 38.6863 23.1411 35.6045 26.1422 31.7911 27.6428 26.6166 27.6428 20.081 27.6428 15.5111 26.9824 11.6263 25.6617 8.42678 24.3471 5.23341 22.6667 2.91434 20.6205 1.46957 18.5805 0.0248029 16.6086-0.697581 14.705-0.697581 10.9474-0.697581 7.81911 1.52228 5.32022 5.96199 3.20577 9.70103 2.14855 14.2058 2.14855 19.4765ZM7.85011 18.751C7.85011 13.3253 8.51669 8.89803 9.84984 5.46903 10.9598 2.5795 12.6092 1.13473 14.798 1.13473 15.8397 1.13473 16.9218 1.60289 18.0441 2.53919 19.1726 3.4817 20.0283 5.05669 20.6112 7.26414 21.4979 10.6001 21.9412 15.3003 21.9412 21.3646 21.9412 25.8601 21.4762 29.6084 20.5461 32.6096 19.8516 34.8418 18.9525 36.423 17.8488 37.3531 17.0551 37.9918 16.094 38.3111 14.9654 38.3111 13.6509 38.3111 12.4789 37.719 11.4496 36.5346 10.0545 34.9287 9.10576 32.3988 8.6035 28.945 8.10124 25.4974 7.85011 22.0994 7.85011 18.751Z" transform="matrix(1 0 0 -1.00049 1252.7 816.591)"/><path d="M7.44086 5.63645C8.35237 5.63645 9.11816 5.32022 9.73823 4.68774 10.3583 4.06147 10.6683 3.30188 10.6683 2.40898 10.6683 1.52228 10.3521 0.762689 9.71963 0.130215 9.09336-0.502258 8.33377-0.818495 7.44086-0.818495 6.54796-0.818495 5.78527-0.502258 5.1528 0.130215 4.52653 0.762689 4.21339 1.52228 4.21339 2.40898 4.21339 3.32049 4.52653 4.08627 5.1528 4.70635 5.78527 5.32642 6.54796 5.63645 7.44086 5.63645Z" transform="matrix(1 0 0 -1.00049 1282.47 816.591)"/><path d="M2.14855 19.4765C2.14855 23.972 2.82753 27.8412 4.18549 31.0842 5.54344 34.3334 7.34475 36.7517 9.58941 38.3391 11.338 39.5978 13.1424 40.2272 15.0026 40.2272 18.0224 40.2272 20.7352 38.6863 23.1411 35.6045 26.1422 31.7911 27.6428 26.6166 27.6428 20.081 27.6428 15.5111 26.9824 11.6263 25.6617 8.42678 24.3471 5.23341 22.6667 2.91434 20.6205 1.46957 18.5805 0.0248029 16.6086-0.697581 14.705-0.697581 10.9474-0.697581 7.81911 1.52228 5.32022 5.96199 3.20577 9.70103 2.14855 14.2058 2.14855 19.4765ZM7.85011 18.751C7.85011 13.3253 8.51669 8.89803 9.84984 5.46903 10.9598 2.5795 12.6092 1.13473 14.798 1.13473 15.8397 1.13473 16.9218 1.60289 18.0441 2.53919 19.1726 3.4817 20.0283 5.05669 20.6112 7.26414 21.4979 10.6001 21.9412 15.3003 21.9412 21.3646 21.9412 25.8601 21.4762 29.6084 20.5461 32.6096 19.8516 34.8418 18.9525 36.423 17.8488 37.3531 17.0551 37.9918 16.094 38.3111 14.9654 38.3111 13.6509 38.3111 12.4789 37.719 11.4496 36.5346 10.0545 34.9287 9.10576 32.3988 8.6035 28.945 8.10124 25.4974 7.85011 22.0994 7.85011 18.751Z" transform="matrix(1 0 0 -1.00049 1297.35 816.591)"/><path d="M40.4597 40.3109 11.7473-1.62769 9.15226-1.62769 37.874 40.3109 40.4597 40.3109ZM10.5846 40.3109C13.1951 40.3109 15.2228 39.2258 16.6675 37.0555 18.1123 34.8853 18.8347 32.3957 18.8347 29.5867 18.8347 26.2197 18.0193 23.6154 16.3885 21.7738 14.7639 19.9322 12.8076 19.0114 10.5195 19.0114 8.98794 19.0114 7.58348 19.4331 6.30613 20.2764 5.02878 21.1197 4.00566 22.3722 3.23678 24.034 2.47409 25.702 2.09274 27.5529 2.09274 29.5867 2.09274 31.6206 2.48029 33.4963 3.25538 35.2139 4.03047 36.9315 5.09079 38.2088 6.43635 39.0459 7.7819 39.8892 9.16466 40.3109 10.5846 40.3109ZM10.4916 38.6832C9.5057 38.6832 8.6283 38.1003 7.85941 36.9346 7.09672 35.7751 6.71538 33.3351 6.71538 29.6146 6.71538 26.9235 6.9293 24.8711 7.35715 23.4573 7.68579 22.3908 8.19735 21.5661 8.89183 20.9832 9.30108 20.636 9.80644 20.4624 10.4079 20.4624 11.338 20.4624 12.1317 20.9677 12.789 21.9785 13.7563 23.4666 14.24 25.9562 14.24 29.4472 14.24 33.1242 13.7656 35.7099 12.8169 37.2043 12.1968 38.1902 11.4217 38.6832 10.4916 38.6832ZM39.1203 19.5602C40.4969 19.5602 41.8673 19.123 43.2314 18.2487 44.6018 17.3806 45.659 16.1126 46.4031 14.4446 47.1472 12.7766 47.5192 10.9474 47.5192 8.95694 47.5192 5.52174 46.6945 2.89884 45.0451 1.08823 43.4019-0.722384 41.458-1.62769 39.2134-1.62769 37.7996-1.62769 36.4261-1.19054 35.093-0.316237 33.766 0.551864 32.7212 1.79511 31.9585 3.4135 31.1958 5.03188 30.8145 6.8797 30.8145 8.95694 30.8145 10.9908 31.1958 12.8479 31.9585 14.5283 32.7212 16.2149 33.766 17.4736 35.093 18.3045 36.4261 19.1416 37.7686 19.5602 39.1203 19.5602ZM39.1482 18.0255C38.2181 18.0255 37.4151 17.5015 36.7393 16.4536 35.865 15.0957 35.4278 12.5286 35.4278 8.75232 35.4278 5.27991 35.8743 2.85543 36.7672 1.47887 37.4244 0.492957 38.2181 0 39.1482 0 40.0411 0 40.8379 0.533262 41.5386 1.59979 42.4687 3.01355 42.9338 5.44423 42.9338 8.89183 42.9338 12.5379 42.4687 15.0864 41.5386 16.5373 40.8999 17.5294 40.1032 18.0255 39.1482 18.0255Z" transform="matrix(1 0 0 -1.00049 1327.11 816.591)"/><path d="M27.2336 13.1982 11.9798 13.1982 9.30108 6.97581C8.6438 5.44423 8.31516 4.3002 8.31516 3.54371 8.31516 2.94224 8.6004 2.41518 9.17086 1.96253 9.74133 1.50988 10.9753 1.21534 12.8727 1.07893L12.8727 0 0.465054 0 0.465054 1.07893C2.11445 1.37036 3.18097 1.7486 3.66463 2.21366 4.65054 3.14376 5.74497 5.03188 6.94791 7.87801L20.8158 40.3109 21.8296 40.3109 35.5487 7.52457C36.6525 4.88927 37.6539 3.17787 38.553 2.39038 39.4583 1.60909 40.7139 1.17194 42.3199 1.07893L42.3199 0 26.7685 0 26.7685 1.07893C28.3373 1.15333 29.3976 1.41376 29.9495 1.86022 30.5013 2.30667 30.7773 2.84923 30.7773 3.4879 30.7773 4.3436 30.3897 5.68916 29.6146 7.52457L27.2336 13.1982ZM26.4244 15.3468 19.7369 31.2795 12.8727 15.3468 26.4244 15.3468Z" transform="matrix(6.12323e-17 -1.00049 -1 -6.12625e-17 1191.78 1409.37)"/><path d="M0.492957 26.629 13.0215 26.629 13.0215 25.5501 12.2123 25.5501C11.4558 25.5501 10.8792 25.364 10.4823 24.992 10.0855 24.6262 9.88705 24.1332 9.88705 23.5131 9.88705 22.8372 10.0886 22.0343 10.4916 21.1041L16.6861 6.39914 22.9086 21.6529C23.3488 22.738 23.5689 23.5627 23.5689 24.127 23.5689 24.3998 23.4914 24.6231 23.3364 24.7967 23.1256 25.0881 22.8559 25.2865 22.5272 25.3919 22.1986 25.4974 21.5289 25.5501 20.5182 25.5501L20.5182 26.629 29.2147 26.629 29.2147 25.5501C28.204 25.4695 27.5064 25.2648 27.1219 24.9362 26.4399 24.3595 25.8291 23.3922 25.2896 22.0343L15.8397-0.818495 14.6492-0.818495 5.1435 21.6529C4.71565 22.7008 4.3064 23.4511 3.91575 23.9038 3.53131 24.3626 3.04145 24.7471 2.44618 25.0571 2.11135 25.2307 1.46027 25.395 0.492957 25.5501L0.492957 26.629Z" transform="matrix(6.12323e-17 -1.00049 -1 -6.12625e-17 1191.78 1370.76)"/><path d="M6.33403 16.5931C6.31543 12.6433 7.27654 9.54291 9.21737 7.29205 11.152 5.04739 13.4277 3.92506 16.0444 3.92506 17.7868 3.92506 19.3028 4.40251 20.5926 5.35742 21.8823 6.31853 22.9644 7.96172 23.8387 10.287L24.7316 9.71033C24.3285 7.05642 23.1473 4.63814 21.1879 2.45548 19.2346 0.272832 16.7853-0.818495 13.84-0.818495 10.6404-0.818495 7.90282 0.42785 5.62715 2.92054 3.35149 5.41323 2.21366 8.76162 2.21366 12.9657 2.21366 17.517 3.37939 21.0669 5.71086 23.6154 8.04853 26.1639 10.9784 27.4382 14.5004 27.4382 17.4891 27.4382 19.9415 26.4554 21.8575 24.4897 23.7736 22.5241 24.7316 19.8919 24.7316 16.5931L6.33403 16.5931ZM6.33403 18.2859 18.658 18.2859C18.565 19.9911 18.3634 21.191 18.0534 21.8854 17.5697 22.9706 16.8474 23.8232 15.8862 24.4432 14.9251 25.0633 13.9206 25.3733 12.8727 25.3733 11.2667 25.3733 9.82814 24.7471 8.55699 23.4945 7.29205 22.2482 6.55106 20.512 6.33403 18.2859Z" transform="matrix(6.12323e-17 -1.00049 -1 -6.12625e-17 1191.78 1340.98)"/><path d="M9.65452 27.4103 9.65452 21.4204C11.8806 25.4136 14.1655 27.4103 16.5094 27.4103 17.5759 27.4103 18.4564 27.0847 19.1509 26.4337 19.8516 25.7888 20.2019 25.0385 20.2019 24.1828 20.2019 23.4263 19.9477 22.7845 19.4393 22.2575 18.937 21.7366 18.3386 21.4762 17.6441 21.4762 16.9683 21.4762 16.2087 21.811 15.3654 22.4807 14.5221 23.1504 13.8958 23.4852 13.4866 23.4852 13.1393 23.4852 12.7611 23.293 12.3518 22.9086 11.4837 22.1087 10.5846 20.8003 9.65452 18.9835L9.65452 6.22242C9.65452 4.74665 9.83744 3.63052 10.2033 2.87403 10.4575 2.35317 10.904 1.91912 11.5426 1.57188 12.1813 1.22464 13.1021 1.05102 14.3051 1.05102L14.3051 0 0.669678 0 0.669678 1.05102C2.02764 1.05102 3.03525 1.26185 3.69253 1.6835 4.17618 1.99353 4.51412 2.48959 4.70635 3.17167 4.80556 3.50031 4.85516 4.43972 4.85516 5.9899L4.85516 16.3048C4.85516 19.4052 4.79006 21.2499 4.65984 21.8389 4.53583 22.4342 4.3033 22.8652 3.96226 23.1318 3.62742 23.4046 3.20887 23.541 2.70661 23.541 2.10514 23.541 1.42617 23.3953 0.669678 23.1039L0.381344 24.1549 8.42678 27.4103 9.65452 27.4103Z" transform="matrix(6.12323e-17 -1.00049 -1 -6.12625e-17 1191.78 1314.54)"/><path d="M16.9466 3.84135C14.212 1.7269 12.4976 0.505359 11.8031 0.176721 10.7551-0.306936 9.63902-0.548764 8.45468-0.548764 6.61927-0.548764 5.10319 0.0806094 3.90645 1.33936 2.71592 2.5981 2.12065 4.25369 2.12065 6.30613 2.12065 7.60828 2.41208 8.73371 2.99495 9.68242 3.78864 10.997 5.1683 12.234 7.13393 13.3936 9.09956 14.5593 12.3704 15.9762 16.9466 17.6441L16.9466 18.6859C16.9466 21.346 16.5249 23.169 15.6816 24.1549 14.8383 25.1408 13.6137 25.6338 12.0077 25.6338 10.7862 25.6338 9.81574 25.3051 9.09646 24.6479 8.35857 23.9906 7.98963 23.2341 7.98963 22.3784L8.05474 20.6949C8.05474 19.802 7.82531 19.1137 7.36646 18.6301 6.9138 18.1464 6.31853 17.9046 5.58065 17.9046 4.86136 17.9046 4.2754 18.1557 3.82274 18.658 3.37009 19.1664 3.14376 19.8547 3.14376 20.7228 3.14376 22.3908 3.99636 23.9224 5.70156 25.3175 7.40676 26.7127 9.79714 27.4103 12.8727 27.4103 15.2414 27.4103 17.1791 27.0134 18.6859 26.2197 19.833 25.6183 20.6763 24.6789 21.2158 23.4015 21.5692 22.5644 21.7459 20.8592 21.7459 18.2859L21.7459 9.24527C21.7459 6.70298 21.7924 5.1466 21.8854 4.57613 21.9847 4.00566 22.1459 3.62432 22.3691 3.4321 22.5923 3.23988 22.8497 3.14376 23.1411 3.14376 23.4511 3.14376 23.7209 3.20887 23.9503 3.33909 24.3595 3.59332 25.1439 4.3033 26.3035 5.46903L26.3035 3.84135C24.1332 0.933208 22.0591-0.52086 20.081-0.52086 19.1323-0.52086 18.3758-0.192222 17.8116 0.465054 17.2535 1.12233 16.9652 2.24776 16.9466 3.84135ZM16.9466 5.72947 16.9466 15.8676C14.0198 14.7081 12.1317 13.8865 11.2822 13.4029 9.75063 12.5472 8.6531 11.6543 7.98963 10.7241 7.33235 9.79404 7.00371 8.77712 7.00371 7.67339 7.00371 6.27823 7.41916 5.11869 8.25006 4.19479 9.08715 3.27708 10.0483 2.81823 11.1334 2.81823 12.603 2.81823 14.5407 3.78864 16.9466 5.72947Z" transform="matrix(6.12323e-17 -1.00049 -1 -6.12625e-17 1191.78 1294.71)"/><path d="M8.98484 9.71033C7.35405 10.504 6.10151 11.6108 5.22721 13.0308 4.35911 14.457 3.92506 16.032 3.92506 17.7558 3.92506 20.3911 4.91717 22.6574 6.9014 24.5548 8.89183 26.4585 11.4372 27.4103 14.5376 27.4103 17.0737 27.4103 19.2718 26.7902 21.1321 25.5501L26.7685 25.5501C27.6056 25.5501 28.0893 25.5253 28.2195 25.4757 28.3559 25.4261 28.4551 25.3454 28.5171 25.2338 28.6287 25.054 28.6845 24.744 28.6845 24.3037 28.6845 23.7953 28.638 23.4449 28.545 23.2527 28.483 23.1535 28.3807 23.076 28.2381 23.0202 28.0955 22.9644 27.6056 22.9365 26.7685 22.9365L23.3085 22.9365C24.3936 21.5413 24.9362 19.7586 24.9362 17.5883 24.9362 15.1081 23.9875 12.9843 22.0901 11.2171 20.1926 9.4561 17.6441 8.57559 14.4446 8.57559 13.13 8.57559 11.7845 8.76782 10.4079 9.15226 9.55221 8.42058 8.97244 7.7788 8.66861 7.22694 8.37097 6.67508 8.22215 6.20382 8.22215 5.81317 8.22215 5.48454 8.38337 5.1652 8.70581 4.85516 9.02825 4.54513 9.65452 4.3219 10.5846 4.18549 11.1241 4.11108 12.4789 4.04287 14.6492 3.98086 18.6425 3.88785 21.2282 3.75144 22.4063 3.57161 24.2107 3.32359 25.6493 2.65701 26.722 1.57188 27.8009 0.486756 28.3404-0.852599 28.3404-2.44618 28.3404-4.63504 27.3142-6.68748 25.2617-8.6035 22.2358-11.431 18.2921-12.8448 13.4308-12.8448 9.69172-12.8448 6.53246-12.0015 3.95296-10.3149 2.50199-9.34758 1.77651-8.33997 1.77651-7.29205 1.77651-6.82699 1.88192-6.36194 2.09274-5.89688 2.42138-5.1838 3.10036-4.18859 4.12968-2.91124 4.2661-2.73142 5.25511-1.6835 7.09672 0.232527 6.08601 0.833997 5.37292 1.37036 4.95748 1.84161 4.54203 2.31907 4.3343 2.85853 4.3343 3.46 4.3343 4.13588 4.61023 4.92957 5.1621 5.84108 5.71396 6.75258 6.98821 8.04233 8.98484 9.71033ZM14.0353 26.0151C12.603 26.0151 11.4031 25.4416 10.4358 24.2944 9.4685 23.1535 8.98484 21.4018 8.98484 19.0393 8.98484 15.9762 9.64212 13.6013 10.9567 11.9147 11.9674 10.6373 13.2478 9.99866 14.798 9.99866 16.2676 9.99866 17.4767 10.5505 18.4254 11.6543 19.3741 12.758 19.8485 14.4942 19.8485 16.8629 19.8485 19.9384 19.1819 22.3505 17.8488 24.0991 16.8567 25.3764 15.5855 26.0151 14.0353 26.0151ZM8.68721 0C7.7819-0.985914 7.09672-1.90362 6.63167-2.75312 6.16662-3.60882 5.93409-4.39631 5.93409-5.11559 5.93409-6.0457 6.49525-6.8611 7.61758-7.56178 9.55221-8.75852 12.3518-9.35689 16.0165-9.35689 19.5013-9.35689 22.0715-8.73991 23.7271-7.50597 25.3888-6.27823 26.2197-4.96678 26.2197-3.57161 26.2197-2.5671 25.7237-1.85091 24.7316-1.42307 23.7271-0.995215 21.7335-0.744086 18.751-0.669678 14.3919-0.551864 11.0373-0.328638 8.68721 0Z" transform="matrix(6.12323e-17 -1.00049 -1 -6.12625e-17 1191.78 1268.28)"/><path d="M6.33403 16.5931C6.31543 12.6433 7.27654 9.54291 9.21737 7.29205 11.152 5.04739 13.4277 3.92506 16.0444 3.92506 17.7868 3.92506 19.3028 4.40251 20.5926 5.35742 21.8823 6.31853 22.9644 7.96172 23.8387 10.287L24.7316 9.71033C24.3285 7.05642 23.1473 4.63814 21.1879 2.45548 19.2346 0.272832 16.7853-0.818495 13.84-0.818495 10.6404-0.818495 7.90282 0.42785 5.62715 2.92054 3.35149 5.41323 2.21366 8.76162 2.21366 12.9657 2.21366 17.517 3.37939 21.0669 5.71086 23.6154 8.04853 26.1639 10.9784 27.4382 14.5004 27.4382 17.4891 27.4382 19.9415 26.4554 21.8575 24.4897 23.7736 22.5241 24.7316 19.8919 24.7316 16.5931L6.33403 16.5931ZM6.33403 18.2859 18.658 18.2859C18.565 19.9911 18.3634 21.191 18.0534 21.8854 17.5697 22.9706 16.8474 23.8232 15.8862 24.4432 14.9251 25.0633 13.9206 25.3733 12.8727 25.3733 11.2667 25.3733 9.82814 24.7471 8.55699 23.4945 7.29205 22.2482 6.55106 20.512 6.33403 18.2859Z" transform="matrix(6.12323e-17 -1.00049 -1 -6.12625e-17 1191.78 1238.5)"/><path d="M6.33403 16.5931C6.31543 12.6433 7.27654 9.54291 9.21737 7.29205 11.152 5.04739 13.4277 3.92506 16.0444 3.92506 17.7868 3.92506 19.3028 4.40251 20.5926 5.35742 21.8823 6.31853 22.9644 7.96172 23.8387 10.287L24.7316 9.71033C24.3285 7.05642 23.1473 4.63814 21.1879 2.45548 19.2346 0.272832 16.7853-0.818495 13.84-0.818495 10.6404-0.818495 7.90282 0.42785 5.62715 2.92054 3.35149 5.41323 2.21366 8.76162 2.21366 12.9657 2.21366 17.517 3.37939 21.0669 5.71086 23.6154 8.04853 26.1639 10.9784 27.4382 14.5004 27.4382 17.4891 27.4382 19.9415 26.4554 21.8575 24.4897 23.7736 22.5241 24.7316 19.8919 24.7316 16.5931L6.33403 16.5931ZM6.33403 18.2859 18.658 18.2859C18.565 19.9911 18.3634 21.191 18.0534 21.8854 17.5697 22.9706 16.8474 23.8232 15.8862 24.4432 14.9251 25.0633 13.9206 25.3733 12.8727 25.3733 11.2667 25.3733 9.82814 24.7471 8.55699 23.4945 7.29205 22.2482 6.55106 20.512 6.33403 18.2859Z" transform="matrix(6.12323e-17 -1.00049 -1 -6.12625e-17 1191.78 1197.18)"/><path d="M9.65452 27.4103 9.65452 21.4204C11.8806 25.4136 14.1655 27.4103 16.5094 27.4103 17.5759 27.4103 18.4564 27.0847 19.1509 26.4337 19.8516 25.7888 20.2019 25.0385 20.2019 24.1828 20.2019 23.4263 19.9477 22.7845 19.4393 22.2575 18.937 21.7366 18.3386 21.4762 17.6441 21.4762 16.9683 21.4762 16.2087 21.811 15.3654 22.4807 14.5221 23.1504 13.8958 23.4852 13.4866 23.4852 13.1393 23.4852 12.7611 23.293 12.3518 22.9086 11.4837 22.1087 10.5846 20.8003 9.65452 18.9835L9.65452 6.22242C9.65452 4.74665 9.83744 3.63052 10.2033 2.87403 10.4575 2.35317 10.904 1.91912 11.5426 1.57188 12.1813 1.22464 13.1021 1.05102 14.3051 1.05102L14.3051 0 0.669678 0 0.669678 1.05102C2.02764 1.05102 3.03525 1.26185 3.69253 1.6835 4.17618 1.99353 4.51412 2.48959 4.70635 3.17167 4.80556 3.50031 4.85516 4.43972 4.85516 5.9899L4.85516 16.3048C4.85516 19.4052 4.79006 21.2499 4.65984 21.8389 4.53583 22.4342 4.3033 22.8652 3.96226 23.1318 3.62742 23.4046 3.20887 23.541 2.70661 23.541 2.10514 23.541 1.42617 23.3953 0.669678 23.1039L0.381344 24.1549 8.42678 27.4103 9.65452 27.4103Z" transform="matrix(6.12323e-17 -1.00049 -1 -6.12625e-17 1191.78 1170.74)"/><path d="M9.65452 27.4103 9.65452 21.4204C11.8806 25.4136 14.1655 27.4103 16.5094 27.4103 17.5759 27.4103 18.4564 27.0847 19.1509 26.4337 19.8516 25.7888 20.2019 25.0385 20.2019 24.1828 20.2019 23.4263 19.9477 22.7845 19.4393 22.2575 18.937 21.7366 18.3386 21.4762 17.6441 21.4762 16.9683 21.4762 16.2087 21.811 15.3654 22.4807 14.5221 23.1504 13.8958 23.4852 13.4866 23.4852 13.1393 23.4852 12.7611 23.293 12.3518 22.9086 11.4837 22.1087 10.5846 20.8003 9.65452 18.9835L9.65452 6.22242C9.65452 4.74665 9.83744 3.63052 10.2033 2.87403 10.4575 2.35317 10.904 1.91912 11.5426 1.57188 12.1813 1.22464 13.1021 1.05102 14.3051 1.05102L14.3051 0 0.669678 0 0.669678 1.05102C2.02764 1.05102 3.03525 1.26185 3.69253 1.6835 4.17618 1.99353 4.51412 2.48959 4.70635 3.17167 4.80556 3.50031 4.85516 4.43972 4.85516 5.9899L4.85516 16.3048C4.85516 19.4052 4.79006 21.2499 4.65984 21.8389 4.53583 22.4342 4.3033 22.8652 3.96226 23.1318 3.62742 23.4046 3.20887 23.541 2.70661 23.541 2.10514 23.541 1.42617 23.3953 0.669678 23.1039L0.381344 24.1549 8.42678 27.4103 9.65452 27.4103Z" transform="matrix(6.12323e-17 -1.00049 -1 -6.12625e-17 1191.78 1150.91)"/><path d="M14.8817 27.4103C18.9122 27.4103 22.149 25.8787 24.5921 22.8155 26.6631 20.1988 27.6986 17.1946 27.6986 13.8028 27.6986 11.4217 27.125 9.00965 25.9779 6.56656 24.837 4.12968 23.2651 2.28807 21.2623 1.04172 19.2594-0.198423 17.0272-0.818495 14.5655-0.818495 10.5536-0.818495 7.36646 0.781291 5.00398 3.98086 3.00735 6.67817 2.00903 9.70103 2.00903 13.0494 2.00903 15.4925 2.6136 17.9201 3.82274 20.3322 5.03188 22.7442 6.62547 24.5269 8.6035 25.6803 10.5815 26.8336 12.6743 27.4103 14.8817 27.4103ZM13.9795 25.5222C12.9564 25.5222 11.924 25.2152 10.8823 24.6014 9.84674 23.9937 9.00965 22.9241 8.37097 21.3925 7.7323 19.8609 7.41296 17.8953 7.41296 15.4956 7.41296 11.6201 8.18185 8.27486 9.71963 5.45973 11.2636 2.65081 13.2943 1.24634 15.8118 1.24634 17.6907 1.24634 19.2408 2.02143 20.4624 3.57161 21.6839 5.12179 22.2947 7.7881 22.2947 11.5705 22.2947 16.2955 21.2778 20.0159 19.2439 22.7318 17.8674 24.5921 16.1126 25.5222 13.9795 25.5222Z" transform="matrix(6.12323e-17 -1.00049 -1 -6.12625e-17 1191.78 1131.08)"/><path d="M9.65452 27.4103 9.65452 21.4204C11.8806 25.4136 14.1655 27.4103 16.5094 27.4103 17.5759 27.4103 18.4564 27.0847 19.1509 26.4337 19.8516 25.7888 20.2019 25.0385 20.2019 24.1828 20.2019 23.4263 19.9477 22.7845 19.4393 22.2575 18.937 21.7366 18.3386 21.4762 17.6441 21.4762 16.9683 21.4762 16.2087 21.811 15.3654 22.4807 14.5221 23.1504 13.8958 23.4852 13.4866 23.4852 13.1393 23.4852 12.7611 23.293 12.3518 22.9086 11.4837 22.1087 10.5846 20.8003 9.65452 18.9835L9.65452 6.22242C9.65452 4.74665 9.83744 3.63052 10.2033 2.87403 10.4575 2.35317 10.904 1.91912 11.5426 1.57188 12.1813 1.22464 13.1021 1.05102 14.3051 1.05102L14.3051 0 0.669678 0 0.669678 1.05102C2.02764 1.05102 3.03525 1.26185 3.69253 1.6835 4.17618 1.99353 4.51412 2.48959 4.70635 3.17167 4.80556 3.50031 4.85516 4.43972 4.85516 5.9899L4.85516 16.3048C4.85516 19.4052 4.79006 21.2499 4.65984 21.8389 4.53583 22.4342 4.3033 22.8652 3.96226 23.1318 3.62742 23.4046 3.20887 23.541 2.70661 23.541 2.10514 23.541 1.42617 23.3953 0.669678 23.1039L0.381344 24.1549 8.42678 27.4103 9.65452 27.4103Z" transform="matrix(6.12323e-17 -1.00049 -1 -6.12625e-17 1191.78 1101.3)"/><g clip-path="url(#clip4)"><path d="M474.603 687.12 474.603 621.557" stroke="#333333" stroke-width="6.86849" stroke-linejoin="round" fill="none" transform="matrix(1 0 0 1.00049 1145 445.86)"/></g><g clip-path="url(#clip5)"><path d="M1081.38 569.473 1081.38 481.477" stroke="#333333" stroke-width="6.86849" stroke-linejoin="round" fill="none" transform="matrix(1 0 0 1.00049 1145 445.86)"/></g><g clip-path="url(#clip6)"><path d="M1688.15 377.321 1688.15 247.925" stroke="#333333" stroke-width="6.86849" stroke-linejoin="round" fill="none" transform="matrix(1 0 0 1.00049 1145 445.86)"/></g><g clip-path="url(#clip7)"><path d="M22.895 0-22.895 0" stroke="#333333" stroke-width="4.57899" stroke-linejoin="round" fill="none" transform="matrix(1 0 0 1.00049 1619.6 1133.32)"/><path d="M22.895 0-22.895 0" stroke="#333333" stroke-width="4.57899" stroke-linejoin="round" fill="none" transform="matrix(1 0 0 1.00049 2226.38 1015.61)"/><path d="M22.895 0-22.895 0" stroke="#333333" stroke-width="4.57899" stroke-linejoin="round" fill="none" transform="matrix(1 0 0 1.00049 2833.15 823.367)"/></g><g clip-path="url(#clip8)"><path d="M22.895 0-22.895 0" stroke="#333333" stroke-width="4.57899" stroke-linejoin="round" fill="none" transform="matrix(1 0 0 1.00049 1619.6 1067.72)"/><path d="M22.895 0-22.895 0" stroke="#333333" stroke-width="4.57899" stroke-linejoin="round" fill="none" transform="matrix(1 0 0 1.00049 2226.38 927.574)"/><path d="M22.895 0-22.895 0" stroke="#333333" stroke-width="4.57899" stroke-linejoin="round" fill="none" transform="matrix(1 0 0 1.00049 2833.15 693.907)"/></g><path d="M263.75 1408.43 263.75 189.9" stroke="#000000" stroke-width="3.66319" stroke-linecap="square" fill="none" transform="matrix(1 0 0 1.00049 1145 445.86)"/><path d="M1899 1408.43 1899 189.9" stroke="#000000" stroke-width="3.66319" stroke-linecap="square" fill="none" transform="matrix(1 0 0 1.00049 1145 445.86)"/><path d="M263.75 1408.43 1899 1408.43" stroke="#000000" stroke-width="3.66319" stroke-linecap="square" fill="none" transform="matrix(1 0 0 1.00049 1145 445.86)"/><path d="M263.75 189.9 1899 189.9" stroke="#000000" stroke-width="3.66319" stroke-linecap="square" fill="none" transform="matrix(1 0 0 1.00049 1145 445.86)"/><path d="M1620.5 660.5 2835.11 660.5" stroke="#000000" stroke-width="3.4375" stroke-miterlimit="8" fill="none" fill-rule="evenodd"/><path d="M1620.5 660.5 1620.5 675.676" stroke="#000000" stroke-width="3.4375" stroke-miterlimit="8" fill="none" fill-rule="evenodd"/><path d="M2835.5 660.5 2835.5 675.676" stroke="#000000" stroke-width="3.4375" stroke-miterlimit="8" fill="none" fill-rule="evenodd"/><text font-family="Times New Roman,Times New Roman_MSFontService,sans-serif" font-weight="400" font-size="55" transform="matrix(1 0 0 1 2171.91 713)">***</text><path d="M1620.5 883.5 1620.5 898.677" stroke="#000000" stroke-width="3.4375" stroke-miterlimit="8" fill="none" fill-rule="evenodd"/><path d="M2227.5 884.5 2227.5 899.677" stroke="#000000" stroke-width="3.4375" stroke-miterlimit="8" fill="none" fill-rule="evenodd"/><path d="M1620.5 883.5 2227.8 886.213" stroke="#000000" stroke-width="3.4375" stroke-miterlimit="8" fill="none" fill-rule="evenodd"/><text font-family="Times New Roman,Times New Roman_MSFontService,sans-serif" font-weight="400" font-size="55" transform="matrix(1 0 0 1 1895.75 943)">***</text></g></svg>